<svg width="185" height="27" viewBox="0 0 185 27" fill="none" xmlns="http://www.w3.org/2000/svg">
<path d="M19.5869 7.50697C19.5869 10.6011 17.865 12.1885 16.0085 13.157C18.9681 14.1525 21.0129 15.8475 21.0129 19.3183C21.0129 23.8652 17.3 26.2598 11.7037 26.2598H0L0 1.07666L11.3001 1.07666C16.3583 1.07666 19.5869 3.55193 19.5869 7.50697ZM15.1475 8.23341C15.1475 6.18862 13.5602 5.0048 10.7082 5.0048H4.35862L4.35862 11.7042H10.3854C13.2373 11.7042 15.1475 10.5741 15.1475 8.23341ZM16.5466 18.8609C16.5466 16.7085 14.8516 15.444 11.3808 15.444H4.35862V22.3586H11.7037C14.7171 22.3317 16.5466 21.1478 16.5466 18.8609Z" fill="white"/>
<path d="M23.918 26.2593V0L28.2766 0V26.2593H23.918Z" fill="white"/>
<path d="M43.8002 26.2596V23.9189C42.5087 25.4794 40.5178 26.6632 37.6389 26.6632C34.0336 26.6632 30.8857 24.6184 30.8857 20.7979V20.7172C30.8857 16.6276 34.1682 14.6097 38.5806 14.6097C40.3563 14.5828 42.1321 14.8519 43.8271 15.4169V14.9595C43.8271 12.3228 42.159 10.8968 39.1456 10.8968C37.2622 10.8968 35.4327 11.3004 33.7108 12.0806L32.5269 8.58299C34.787 7.50679 37.2622 6.96869 39.7644 6.99559C45.3876 6.99559 48.105 9.95515 48.105 15.0133V26.2596H43.8002ZM43.8809 18.1881C42.4818 17.6769 41.002 17.4348 39.5223 17.4348C36.7779 17.4348 35.1636 18.5379 35.1636 20.5019V20.5826C35.1636 22.3853 36.7779 23.3808 38.8227 23.3808C41.7016 23.3808 43.854 21.7665 43.854 19.3719L43.8809 18.1881Z" fill="white"/>
<path d="M60.2696 26.6893C54.9155 26.7431 50.5299 22.4652 50.4492 17.1111C50.4492 17.0304 50.4492 16.9228 50.4492 16.8421C50.4492 11.4073 54.6195 6.88721 60.2965 6.88721C63.9017 6.88721 66.1349 8.23246 67.8837 10.1696L65.1932 13.0754C63.8748 11.6763 62.4489 10.6808 60.2696 10.6808C57.0948 10.6808 54.8078 13.4251 54.8078 16.7614C54.8078 20.1783 57.1486 22.9226 60.4848 22.9226C62.5296 22.9226 64.0632 21.954 65.4084 20.5281L68.0451 23.111C66.1618 25.2095 63.9825 26.6893 60.2696 26.6893Z" fill="white"/>
<path d="M88.0079 26.2593H82.9766L77.2459 18.0533L74.5823 20.8245V26.2593H70.2236V0L74.5823 0V15.6857L82.4654 7.26437H87.7657L80.2054 14.9861L88.0079 26.2593Z" fill="white"/>
<path d="M101.137 26.6629C98.0156 26.6629 96.0246 25.0755 94.6794 23.2998V26.2593H90.3477V0L94.7063 0V10.4392C96.1053 8.44819 98.0963 6.86079 101.163 6.86079C105.657 6.86079 110.015 10.4392 110.015 16.7619C110.015 23.0845 105.657 26.6629 101.137 26.6629ZM100.141 10.6544C97.1815 10.6544 94.5718 13.0759 94.5718 16.7888C94.5718 20.5017 97.1546 22.8962 100.141 22.8962C103.128 22.8962 105.576 20.5555 105.576 16.7888C105.576 13.022 103.074 10.6544 100.141 10.6544Z" fill="white"/>
<path d="M121.692 26.6903C115.908 26.6903 111.63 22.251 111.63 16.8431C111.63 11.4351 115.935 6.88818 121.773 6.88818C127.611 6.88818 131.889 11.3006 131.889 16.7892C131.889 22.2779 127.558 26.6903 121.692 26.6903ZM121.692 10.6818C118.195 10.6818 115.962 13.4261 115.962 16.7623C115.962 20.0986 118.356 22.9236 121.746 22.9236C125.271 22.9236 127.504 20.1793 127.504 16.8431C127.504 13.5068 125.082 10.6818 121.692 10.6818Z" fill="white"/>
<path d="M146.123 26.2596V23.9189C144.831 25.4794 142.84 26.6632 139.961 26.6632C136.383 26.6632 133.208 24.6184 133.208 20.7979V20.7172C133.208 16.6276 136.491 14.6097 140.903 14.6097C142.679 14.5828 144.455 14.8519 146.15 15.4169V14.9595C146.15 12.3228 144.481 10.8968 141.468 10.8968C139.585 10.8968 137.728 11.3004 136.033 12.0806L134.849 8.58299C137.109 7.50679 139.585 6.96869 142.087 6.99559C147.71 6.99559 150.427 9.95515 150.427 15.0133V26.2596H146.123ZM146.23 18.1881C144.831 17.6769 143.351 17.4348 141.872 17.4348C139.127 17.4348 137.513 18.5379 137.513 20.5019V20.5826C137.513 22.3853 139.127 23.3808 141.172 23.3808C144.051 23.3808 146.203 21.7665 146.203 19.3719L146.23 18.1881Z" fill="white"/>
<path d="M158.175 26.2598H153.816V7.26478H158.175V11.5427C159.359 8.69075 161.565 6.78049 164.901 6.88811V11.5427H164.632C160.812 11.5427 158.148 14.018 158.148 19.0492L158.175 26.2598Z" fill="white"/>
<path d="M180.668 26.2598V23.085C179.269 25.076 177.278 26.6634 174.184 26.6634C169.718 26.6634 165.359 23.085 165.359 16.7623C165.359 10.4397 169.61 6.86128 174.157 6.86128C177.278 6.86128 179.269 8.44868 180.641 10.1975V0.000488281L185 0.000488281V26.2598H180.668ZM175.207 10.6549C172.22 10.6549 169.745 12.9687 169.745 16.7892C169.745 20.529 172.274 22.8967 175.207 22.8967C178.139 22.8967 180.722 20.4752 180.722 16.7892C180.722 13.1032 178.139 10.6549 175.207 10.6549Z" fill="white"/>
</svg>
