<svg width="16" height="12" viewBox="0 0 16 12" fill="none" xmlns="http://www.w3.org/2000/svg">
<path d="M0.999023 5.25C0.58481 5.25 0.249023 5.58579 0.249023 6C0.249023 6.41421 0.58481 6.75 0.999023 6.75V5.25ZM15.5294 6.53033C15.8222 6.23744 15.8222 5.76256 15.5294 5.46967L10.7564 0.696699C10.4635 0.403806 9.98862 0.403806 9.69572 0.696699C9.40283 0.989593 9.40283 1.46447 9.69572 1.75736L13.9384 6L9.69572 10.2426C9.40283 10.5355 9.40283 11.0104 9.69572 11.3033C9.98862 11.5962 10.4635 11.5962 10.7564 11.3033L15.5294 6.53033ZM0.999023 6.75H14.999V5.25H0.999023V6.75Z" fill="#748FFD"/>
</svg>
