<svg width="122" height="36" viewBox="0 0 122 36" fill="none" xmlns="http://www.w3.org/2000/svg">
<path d="M56.2852 35.5134V31.2471H58.38C59.1627 31.2471 59.5956 31.7333 59.5956 32.3328C59.606 32.5571 59.5374 32.778 59.4017 32.9569C59.266 33.1359 59.0718 33.2615 58.8529 33.312C59.091 33.3637 59.3036 33.4967 59.4544 33.6881C59.6051 33.8796 59.6845 34.1175 59.6789 34.361C59.6789 35.0271 59.2393 35.5134 58.44 35.5134H56.2852ZM58.8296 32.4627C58.8315 32.3851 58.8167 32.308 58.7865 32.2366C58.7562 32.1651 58.711 32.1009 58.654 32.0483C58.5969 31.9957 58.5293 31.9558 58.4557 31.9314C58.382 31.9069 58.304 31.8984 58.2268 31.9065H57.0179V33.0122H58.2135C58.2903 33.0213 58.3682 33.0138 58.4419 32.9901C58.5155 32.9665 58.5832 32.9273 58.6404 32.8751C58.6976 32.823 58.7429 32.7592 58.7732 32.6881C58.8036 32.6169 58.8183 32.54 58.8163 32.4627M58.8996 34.2578C58.9004 34.1736 58.883 34.0902 58.8487 34.0134C58.8143 33.9365 58.7639 33.8679 58.7007 33.8123C58.6375 33.7567 58.563 33.7153 58.4824 33.691C58.4018 33.6668 58.3169 33.6602 58.2335 33.6716H57.0179V34.854H58.2468C58.3313 34.8674 58.4178 34.8619 58.5 34.8377C58.5821 34.8135 58.6578 34.7714 58.7216 34.7143C58.7854 34.6572 58.8357 34.5866 58.8688 34.5076C58.9018 34.4287 58.9169 34.3433 58.9129 34.2578" fill="white"/>
<path d="M62.3232 35.5134V33.7416L60.668 31.2471H61.5239L62.6995 33.0755L63.8652 31.2471H64.7211L63.0726 33.7416V35.5134H62.3232Z" fill="white"/>
<path d="M69.6471 31.2471H68.5481V35.5101H69.6471L69.6471 31.2471Z" fill="white"/>
<path d="M74.2137 35.5134L72.4086 33.0455V35.5134H71.3096V31.2471H72.4419L74.1671 33.595V31.2471H75.2761V35.5134H74.2137Z" fill="white"/>
<path d="M76.6289 34.9101L77.2117 34.0841C77.3902 34.2634 77.6026 34.4055 77.8364 34.5021C78.0702 34.5987 78.3209 34.648 78.5739 34.647C78.9502 34.647 79.18 34.5004 79.18 34.3139C79.18 33.7311 76.7621 34.1974 76.7621 32.5555C76.7621 31.8394 77.3716 31.2 78.464 31.2C79.0941 31.1806 79.7097 31.3913 80.1958 31.7928L79.5997 32.5654C79.2459 32.28 78.8053 32.1238 78.3508 32.1225C78.0177 32.1225 77.8911 32.2491 77.8911 32.4289C77.8911 32.9718 80.3024 32.5788 80.3024 34.1641C80.3024 35.02 79.6696 35.5895 78.5239 35.5895C78.1803 35.6088 77.8362 35.5599 77.5115 35.4456C77.1868 35.3313 76.888 35.1538 76.6322 34.9234" fill="white"/>
<path d="M82.5482 35.5134V32.2062H81.3525V31.2471H84.8395V32.2062H83.6506V35.5134H82.5482Z" fill="white"/>
<path d="M88.6354 35.5137L87.9193 34.0817H87.3565V35.5137H86.2607V31.2474H88.3956C88.589 31.2313 88.7837 31.2564 88.9668 31.321C89.1499 31.3857 89.3171 31.4885 89.4575 31.6226C89.5979 31.7567 89.7082 31.919 89.7812 32.0989C89.8542 32.2789 89.8882 32.4722 89.8809 32.6662C89.8952 32.9423 89.8204 33.2156 89.6675 33.4459C89.5146 33.6762 89.2917 33.8512 89.0317 33.9451L89.9009 35.5137H88.6354ZM88.7553 32.6595C88.7525 32.5942 88.7363 32.5302 88.7077 32.4714C88.6791 32.4127 88.6387 32.3604 88.589 32.3179C88.5393 32.2754 88.4814 32.2436 88.4189 32.2245C88.3564 32.2053 88.2907 32.1992 88.2257 32.2066H87.3565L87.3565 33.1225H88.2257C88.2916 33.1304 88.3584 33.1244 88.4217 33.1049C88.4851 33.0853 88.5437 33.0527 88.5936 33.009C88.6436 32.9654 88.6838 32.9117 88.7116 32.8515C88.7395 32.7913 88.7543 32.7259 88.7553 32.6595Z" fill="white"/>
<path d="M91.3718 33.7849V31.2471H92.4909L92.4909 33.7482C92.4909 33.9867 92.5856 34.2155 92.7542 34.3841C92.9229 34.5527 93.1516 34.6475 93.3901 34.6475C93.6286 34.6475 93.8573 34.5527 94.0259 34.3841C94.1946 34.2155 94.2893 33.9867 94.2893 33.7482V31.2471H95.4017V33.7782C95.4017 34.8406 94.7556 35.59 93.4034 35.59C92.0512 35.59 91.3818 34.834 91.3818 33.7849" fill="white"/>
<path d="M96.844 33.3819C96.844 32.0497 97.8431 31.1771 99.152 31.1771C99.5408 31.1627 99.9252 31.2638 100.257 31.4678C100.588 31.6717 100.851 31.9692 101.014 32.3228L100.068 32.7691C99.9907 32.5889 99.8633 32.4347 99.7009 32.3249C99.5385 32.215 99.348 32.1542 99.152 32.1496C98.8358 32.1661 98.538 32.3032 98.32 32.5328C98.1021 32.7624 97.9805 33.067 97.9805 33.3836C97.9805 33.7002 98.1021 34.0047 98.32 34.2343C98.538 34.4639 98.8358 34.6011 99.152 34.6175C99.3478 34.6121 99.538 34.5509 99.7002 34.4412C99.8624 34.3315 99.99 34.1777 100.068 33.998L101.014 34.4443C100.848 34.7955 100.584 35.0908 100.253 35.2943C99.9228 35.4978 99.5401 35.6005 99.152 35.59C97.8431 35.59 96.844 34.6941 96.844 33.3819Z" fill="white"/>
<path d="M103.331 35.5134L103.331 32.2062H102.136V31.2471H105.623V32.2062H104.43V35.5134H103.331Z" fill="white"/>
<path d="M107.039 33.7849V31.2471H108.158V33.7482C108.158 33.9867 108.253 34.2155 108.421 34.3841C108.59 34.5527 108.819 34.6475 109.057 34.6475C109.296 34.6475 109.525 34.5527 109.693 34.3841C109.862 34.2155 109.957 33.9867 109.957 33.7482V31.2471H111.069V33.7782C111.069 34.8406 110.423 35.59 109.071 35.59C107.718 35.59 107.049 34.834 107.049 33.7849" fill="white"/>
<path d="M115.109 35.5135L114.393 34.0814H113.83V35.5135H112.728V31.2472H114.863C115.056 31.231 115.251 31.2561 115.434 31.3208C115.617 31.3855 115.784 31.4882 115.925 31.6223C116.065 31.7564 116.175 31.9188 116.248 32.0987C116.321 32.2786 116.355 32.472 116.348 32.666C116.362 32.942 116.287 33.2154 116.135 33.4457C115.982 33.6759 115.759 33.8509 115.499 33.9449L116.368 35.5135H115.109ZM115.229 32.6593C115.226 32.594 115.21 32.53 115.181 32.4712C115.153 32.4124 115.112 32.3601 115.063 32.3177C115.013 32.2752 114.955 32.2434 114.893 32.2242C114.83 32.2051 114.764 32.199 114.699 32.2064H113.83V33.1222H114.699C114.766 33.1312 114.833 33.126 114.897 33.1069C114.962 33.0878 115.021 33.0553 115.072 33.0115C115.122 32.9678 115.163 32.9137 115.192 32.853C115.22 32.7923 115.235 32.7263 115.236 32.6593" fill="white"/>
<path d="M117.85 35.5134V31.2471H120.974V32.2062H118.949L118.949 32.8723H120.93V33.8315H118.949V34.5542H120.974V35.5134H117.85Z" fill="white"/>
<path d="M4.3775 15.0542C4.37816 13.9898 3.98939 12.9619 3.28448 12.1644C2.57957 11.3668 1.60724 10.8547 0.550806 10.7246C-0.183602 13.5643 -0.183602 16.5441 0.550806 19.3838C1.60724 19.2537 2.57957 18.7416 3.28448 17.944C3.98939 17.1465 4.37816 16.1186 4.3775 15.0542Z" fill="white"/>
<path d="M6.91178 13.689C6.64091 13.689 6.37614 13.7693 6.15096 13.9199C5.92579 14.0704 5.75035 14.2844 5.64685 14.5347C5.54334 14.785 5.51643 15.0604 5.56952 15.3261C5.6226 15.5917 5.7533 15.8356 5.94507 16.0269C6.13683 16.2182 6.38104 16.3483 6.64679 16.4007C6.91253 16.4531 7.18786 16.4256 7.43792 16.3214C7.68798 16.2173 7.90153 16.0414 8.05153 15.8158C8.20154 15.5903 8.28126 15.3253 8.2806 15.0545C8.27972 14.692 8.13512 14.3447 7.87851 14.0887C7.6219 13.8327 7.27424 13.689 6.91178 13.689Z" fill="white"/>
<path d="M25.79 15.0542C25.7894 16.1186 26.1782 17.1465 26.8831 17.944C27.588 18.7416 28.5603 19.2537 29.6167 19.3838C30.3511 16.5441 30.3511 13.5643 29.6167 10.7246C28.5603 10.8547 27.588 11.3668 26.8831 12.1644C26.1782 12.9619 25.7894 13.9898 25.79 15.0542Z" fill="white"/>
<path d="M23.2546 13.689C22.9837 13.689 22.7189 13.7693 22.4937 13.9199C22.2686 14.0704 22.0931 14.2844 21.9896 14.5347C21.8861 14.785 21.8592 15.0604 21.9123 15.3261C21.9654 15.5917 22.0961 15.8356 22.2878 16.0269C22.4796 16.2182 22.7238 16.3483 22.9896 16.4007C23.2553 16.4531 23.5306 16.4256 23.7807 16.3214C24.0308 16.2173 24.2443 16.0414 24.3943 15.8158C24.5443 15.5903 24.624 15.3253 24.6234 15.0545C24.6225 14.692 24.4779 14.3447 24.2213 14.0887C23.9647 13.8327 23.617 13.689 23.2546 13.689Z" fill="white"/>
<path d="M15.0555 25.8015C13.9898 25.8028 12.9615 26.194 12.1645 26.9015C11.3675 27.6089 10.857 28.5835 10.7292 29.6415C13.5696 30.3709 16.5481 30.3709 19.3884 29.6415C19.2576 28.5854 18.7453 27.6135 17.9479 26.9087C17.1505 26.2039 16.1231 25.8149 15.0588 25.8148" fill="white"/>
<path d="M15.0551 21.8984C14.7844 21.8984 14.5197 21.9787 14.2946 22.1291C14.0695 22.2795 13.8941 22.4933 13.7905 22.7434C13.6869 22.9936 13.6598 23.2688 13.7126 23.5343C13.7654 23.7998 13.8958 24.0437 14.0872 24.2352C14.2786 24.4266 14.5225 24.557 14.7881 24.6098C15.0536 24.6626 15.3288 24.6355 15.5789 24.5319C15.829 24.4283 16.0428 24.2528 16.1932 24.0277C16.3436 23.8026 16.4239 23.538 16.4239 23.2673C16.4244 23.0874 16.3892 22.9092 16.3206 22.7429C16.252 22.5766 16.1512 22.4256 16.024 22.2984C15.8968 22.1712 15.7457 22.0704 15.5794 22.0017C15.4132 21.9331 15.235 21.898 15.0551 21.8984Z" fill="white"/>
<path d="M15.0552 4.37662C16.1194 4.37657 17.1469 3.98754 17.9443 3.28277C18.7417 2.578 19.254 1.60607 19.3848 0.54993C16.5449 -0.18331 13.5654 -0.18331 10.7256 0.54993C10.8564 1.60607 11.3687 2.578 12.1661 3.28277C12.9635 3.98754 13.991 4.37657 15.0552 4.37662Z" fill="white"/>
<path d="M15.0551 5.54297C14.7844 5.54297 14.5197 5.62325 14.2946 5.77366C14.0695 5.92407 13.8941 6.13785 13.7905 6.38797C13.6869 6.63809 13.6598 6.91331 13.7126 7.17883C13.7654 7.44436 13.8958 7.68826 14.0872 7.87969C14.2786 8.07112 14.5225 8.20149 14.7881 8.25431C15.0536 8.30712 15.3288 8.28002 15.5789 8.17641C15.829 8.07281 16.0428 7.89737 16.1932 7.67226C16.3436 7.44716 16.4239 7.18252 16.4239 6.91179C16.4244 6.73191 16.3892 6.55372 16.3206 6.38745C16.252 6.22118 16.1512 6.07011 16.024 5.94291C15.8968 5.81572 15.7457 5.71491 15.5794 5.64627C15.4132 5.57764 15.235 5.54253 15.0551 5.54297Z" fill="white"/>
<path d="M22.6488 22.6476C21.8982 23.4002 21.4482 24.4009 21.3832 25.4618C21.3182 26.5226 21.6427 27.5708 22.2957 28.4093C24.8162 26.9159 26.9167 24.8075 28.4005 22.2813C27.5608 21.6334 26.514 21.3132 25.4556 21.3807C24.3972 21.4481 23.3995 21.8984 22.6488 22.6476Z" fill="white"/>
<path d="M19.8814 19.8799C19.691 20.071 19.5615 20.3144 19.5092 20.5791C19.457 20.8438 19.4844 21.1181 19.5879 21.3673C19.6914 21.6165 19.8664 21.8294 20.0908 21.9792C20.3153 22.129 20.5791 22.2089 20.8489 22.2089C21.1187 22.2089 21.3825 22.129 21.6069 21.9792C21.8314 21.8294 22.0064 21.6165 22.1099 21.3673C22.2134 21.1181 22.2408 20.8438 22.1885 20.5791C22.1363 20.3144 22.0068 20.071 21.8164 19.8799C21.6897 19.7521 21.539 19.6506 21.373 19.5814C21.2069 19.5122 21.0288 19.4766 20.8489 19.4766C20.669 19.4766 20.4909 19.5122 20.3248 19.5814C20.1587 19.6506 20.008 19.7521 19.8814 19.8799Z" fill="white"/>
<path d="M7.49509 7.4942C8.2459 6.74261 8.69643 5.74273 8.76205 4.6824C8.82767 3.62207 8.50386 2.57427 7.85145 1.73584C5.32772 3.22378 3.22271 5.32764 1.7334 7.85056C2.57208 8.5039 3.62058 8.82826 4.68168 8.76263C5.74277 8.697 6.74331 8.24591 7.49509 7.4942Z" fill="white"/>
<path d="M8.32832 8.32688C8.13678 8.51826 8.0063 8.76216 7.95339 9.02772C7.90048 9.29327 7.92752 9.56856 8.03109 9.81874C8.13466 10.0689 8.3101 10.2828 8.53523 10.4332C8.76035 10.5837 9.02505 10.664 9.29582 10.664C9.5666 10.664 9.83129 10.5837 10.0564 10.4332C10.2815 10.2828 10.457 10.0689 10.5606 9.81874C10.6641 9.56856 10.6912 9.29327 10.6383 9.02772C10.5853 8.76216 10.4549 8.51826 10.2633 8.32688C10.0062 8.07123 9.65839 7.92773 9.29582 7.92773C8.93325 7.92773 8.58542 8.07123 8.32832 8.32688Z" fill="white"/>
<path d="M22.6504 7.48044C23.4023 8.2306 24.4021 8.68069 25.4623 8.7463C26.5224 8.8119 27.57 8.48852 28.4088 7.8368C26.9162 5.31103 24.8064 3.20584 22.2774 1.71875C21.6262 2.55939 21.3047 3.60905 21.3734 4.6702C21.4421 5.73134 21.8962 6.73078 22.6504 7.48044Z" fill="white"/>
<path d="M21.807 10.2419C21.9986 10.0505 22.129 9.80662 22.182 9.54106C22.2349 9.27551 22.2078 9.00023 22.1043 8.75004C22.0007 8.49986 21.8252 8.28601 21.6001 8.13555C21.375 7.98509 21.1103 7.90479 20.8395 7.90479C20.5687 7.90479 20.3041 7.98509 20.0789 8.13555C19.8538 8.28601 19.6784 8.49986 19.5748 8.75004C19.4712 9.00023 19.4442 9.27551 19.4971 9.54106C19.55 9.80662 19.6805 10.0505 19.872 10.2419C20.1291 10.4976 20.477 10.641 20.8395 10.641C21.2021 10.641 21.5499 10.4976 21.807 10.2419Z" fill="white"/>
<path d="M7.48801 22.6207C6.73551 21.8703 5.73515 21.4201 4.67446 21.3545C3.61376 21.2889 2.56556 21.6124 1.72632 22.2644C3.21519 24.7885 5.32023 26.8936 7.84437 28.3824C8.49633 27.5432 8.81982 26.495 8.75422 25.4343C8.68862 24.3736 8.23842 23.3732 7.48801 22.6207Z" fill="white"/>
<path d="M8.32695 19.8638C8.13653 20.055 8.00703 20.2983 7.95479 20.563C7.90255 20.8278 7.92991 21.102 8.03343 21.3512C8.13694 21.6004 8.31196 21.8133 8.53639 21.9631C8.76083 22.1129 9.02461 22.1929 9.29444 22.1929C9.56428 22.1929 9.82806 22.1129 10.0525 21.9631C10.2769 21.8133 10.4519 21.6004 10.5555 21.3512C10.659 21.102 10.6863 20.8278 10.6341 20.563C10.5819 20.2983 10.4524 20.055 10.2619 19.8638C10.1351 19.7364 9.9843 19.6354 9.81827 19.5664C9.65224 19.4974 9.47423 19.4619 9.29444 19.4619C9.11466 19.4619 8.93665 19.4974 8.77062 19.5664C8.60459 19.6354 8.45381 19.7364 8.32695 19.8638Z" fill="white"/>
<path d="M50.1649 21.4389C50.1649 24.3963 48.2465 25.4921 45.3457 25.4921H45.2957C42.3949 25.4921 40.4766 24.423 40.4766 21.4389V9.93549C40.4766 7.08795 42.3949 5.88232 45.2957 5.88232H45.3524C48.2532 5.88232 50.1715 7.08795 50.1715 9.93549V12.2069H46.9943V10.4317C46.9943 9.09955 46.3282 8.67658 45.329 8.67658C44.3299 8.67658 43.6638 9.08955 43.6638 10.4317V20.946C43.6638 22.2782 44.3299 22.6978 45.329 22.6978C46.3282 22.6978 46.9943 22.2882 46.9943 20.946V18.7046H50.1715L50.1649 21.4389Z" fill="white"/>
<path d="M61.4221 21.002H57.9185L57.2324 25.2717H54.165L57.7253 6.10156L61.7218 6.10156L65.3354 25.2717H62.1048L61.4221 21.002ZM61.0125 18.371L59.6803 9.85499L58.3481 18.371H61.0125Z" fill="white"/>
<path d="M69.668 25.2717V6.10156H72.8452L76.8717 17.9613V6.10156H79.7726V25.2717H76.7618L72.5721 12.8124V25.2717H69.668Z" fill="white"/>
<path d="M91.2227 25.2722H87.719L84.1055 6.10205H87.336L89.5541 20.3164L91.7722 6.10205H94.8395L91.2227 25.2722Z" fill="white"/>
<path d="M104.318 21.002H100.811L100.128 25.2717H97.0605L100.621 6.10156L104.617 6.10156L108.241 25.2717H105.007L104.318 21.002ZM103.911 18.371L102.579 9.85499L101.247 18.371H103.911Z" fill="white"/>
<path d="M118.234 11.7137V10.265C118.234 9.05934 117.548 8.62305 116.619 8.62305C115.69 8.62305 115.004 9.05934 115.004 10.265V11.5971C115.004 12.5963 115.337 13.0192 116.236 13.5421L118.481 14.801C120.316 15.8401 121.411 16.6894 121.411 18.7443V21.5119C121.411 24.4694 119.576 25.5085 116.672 25.5085H116.619C113.715 25.5085 111.88 24.5093 111.88 21.5119V19.4803H115.004V21.0723C115.004 22.2513 115.686 22.7708 116.646 22.7708C117.605 22.7708 118.287 22.2513 118.287 21.0723V19.5503C118.287 18.5511 117.988 18.0716 117.029 17.552L114.81 16.2931C112.949 15.224 111.88 14.3481 111.88 12.3498V9.82867C111.88 6.9778 113.961 5.88208 116.592 5.88208H116.646C119.273 5.88208 121.355 6.9778 121.355 9.82867V11.7137H118.234Z" fill="white"/>
</svg>
