<svg width="249" height="49" viewBox="0 0 249 49" fill="none" xmlns="http://www.w3.org/2000/svg">
<path d="M68.5181 34.2706C65.5936 34.2706 63.4866 33.5536 62.1965 32.1183C60.9063 30.6837 60.2616 28.4105 60.2616 25.2986C60.2616 22.1867 60.941 20.1124 62.2998 18.7647C63.6587 17.4162 65.68 16.7423 68.3638 16.7423C69.6363 16.7423 70.8578 16.89 72.0276 17.1831C73.1966 17.477 74.3664 17.883 75.537 18.4017V13.5272C74.3664 13.0085 73.094 12.6196 71.7181 12.3606C70.3415 12.1016 68.9657 11.9717 67.5898 11.9717C65.9725 11.9717 64.3987 12.1966 62.8678 12.6456C61.3368 13.0953 59.9691 13.8471 58.7653 14.9017C57.5608 15.9571 56.6148 17.3649 55.9272 19.1283C55.2382 20.8917 54.8955 23.0877 54.8955 25.7142C54.8955 28.3407 55.2566 30.4076 55.9789 32.119C56.7012 33.8305 57.6731 35.1968 58.8946 36.2158C60.1153 37.2362 61.4831 37.971 62.997 38.42C64.5102 38.869 66.0582 39.0938 67.6415 39.0938C69.1208 39.0938 70.5136 38.9551 71.8215 38.679C73.1287 38.4029 74.3842 37.988 75.5887 37.4344V32.5599C74.557 33.0445 73.4389 33.4505 72.2343 33.7785C71.0298 34.1073 69.7913 34.2713 68.5189 34.2713L68.5181 34.2706Z" fill="white"/>
<path d="M107.875 14.7459C107.205 14.072 106.438 13.5361 105.579 13.1384C104.719 12.7413 103.799 12.4474 102.818 12.2567C101.838 12.0667 100.865 11.9717 99.9025 11.9717C97.9417 11.9717 96.04 12.1713 94.2004 12.5684C92.36 12.9662 90.9576 13.4938 89.9946 14.1499V19.2322C90.9923 18.4025 92.2647 17.7546 93.8134 17.2878C95.3613 16.8209 96.8576 16.5879 98.3028 16.5879C100.332 16.5879 101.897 17.0117 102.999 17.8585C104.099 18.706 104.65 20.0456 104.65 21.8773V24.3345C104.252 24.0985 103.817 23.8744 103.334 23.6666C102.491 23.3037 101.545 23.0187 100.496 22.8109C99.4461 22.6038 98.2689 22.4999 96.961 22.4999C95.0002 22.4999 93.3142 22.8109 91.9036 23.4336C90.4923 24.0562 89.4089 24.9891 88.6527 26.2337C87.8957 27.4783 87.5176 29.0688 87.5176 31.0051C87.5176 32.6304 87.8182 33.987 88.4208 35.0758C89.0219 36.1645 89.8306 37.0202 90.8461 37.6429C91.86 38.2656 92.9878 38.7064 94.2262 38.9654C95.4647 39.2245 96.7549 39.3543 98.0961 39.3543C100.367 39.3543 102.396 39.1896 104.186 38.8615C105.975 38.5335 107.393 37.9108 108.443 36.9943C109.493 36.0784 110.017 34.7737 110.017 33.0794V20.6334C110.017 19.3198 109.827 18.1791 109.449 17.2106C109.07 16.2428 108.546 15.4212 107.875 14.7473V14.7459ZM103.205 34.6854C102.241 34.963 100.744 35.1003 98.7149 35.1003C97.7519 35.1003 96.8317 34.9533 95.9544 34.6594C95.077 34.3663 94.3459 33.8995 93.761 33.259C93.1753 32.62 92.8836 31.7814 92.8836 30.7438C92.8836 29.3619 93.391 28.3244 94.4064 27.6327C95.4204 26.9417 96.9093 26.5952 98.87 26.5952C100.349 26.5952 101.725 26.777 102.998 27.1399C103.608 27.3136 104.158 27.5065 104.65 27.7166V32.7669C104.65 33.7703 104.167 34.4093 103.205 34.6854Z" fill="white"/>
<path d="M129.549 25.4543C128.757 24.9021 127.897 24.4776 126.968 24.1837C126.039 23.8905 125.144 23.6048 124.285 23.328C123.356 23.0519 122.487 22.7758 121.679 22.4983C120.87 22.2222 120.217 21.8422 119.718 21.3576C119.219 20.8737 118.97 20.2169 118.97 19.3871C118.97 18.4194 119.417 17.6846 120.311 17.1829C121.206 16.682 122.324 16.4311 123.666 16.4311C125.11 16.4311 126.383 16.6731 127.485 17.1569C128.585 17.6416 129.755 18.2123 130.994 18.8684L130.942 14.2009C129.841 13.6139 128.715 13.1122 127.562 12.6973C126.409 12.2825 124.921 12.0583 123.099 12.0234C121.997 12.0234 120.87 12.1711 119.718 12.4643C118.566 12.7582 117.517 13.225 116.571 13.8647C115.624 14.5052 114.859 15.3349 114.275 16.3539C113.689 17.3744 113.397 18.6101 113.397 20.0617C113.397 21.3761 113.63 22.4819 114.094 23.3807C114.558 24.2802 115.177 25.0142 115.952 25.5849C116.726 26.1556 117.577 26.6054 118.506 26.9334C119.436 27.2622 120.365 27.5479 121.294 27.7891C122.188 28.1001 123.048 28.4118 123.873 28.7227C124.699 29.0337 125.378 29.4144 125.912 29.8634C126.445 30.3132 126.711 30.9358 126.711 31.7307C126.711 32.6643 126.29 33.4421 125.447 34.064C124.604 34.6867 123.442 34.9977 121.963 34.9977C120.793 34.9977 119.735 34.8767 118.789 34.6348C117.843 34.3936 116.939 34.0566 116.08 33.6239C115.22 33.192 114.343 32.6992 113.448 32.1463V37.2806C114.687 37.8691 115.951 38.3619 117.241 38.7582C118.531 39.1552 120.105 39.3549 121.963 39.3549C123.649 39.3549 125.283 39.0781 126.866 38.5252C128.448 37.973 129.73 37.0913 130.71 35.8801C131.69 34.6704 132.198 33.0977 132.233 31.1607C132.233 29.7083 131.983 28.5335 131.484 27.634C130.985 26.7352 130.34 26.0094 129.55 25.4558L129.549 25.4543Z" fill="white"/>
<path d="M150.635 25.4543C149.843 24.9021 148.983 24.4776 148.055 24.1837C147.126 23.8905 146.231 23.6048 145.371 23.328C144.442 23.0519 143.573 22.7758 142.766 22.4983C141.957 22.2222 141.303 21.8422 140.805 21.3576C140.306 20.8737 140.057 20.2169 140.057 19.3871C140.057 18.4194 140.504 17.6846 141.399 17.1829C142.293 16.682 143.411 16.4311 144.753 16.4311C146.198 16.4311 147.471 16.6731 148.572 17.1569C149.672 17.6416 150.842 18.2123 152.081 18.8684L152.03 14.2009C150.929 13.6139 149.802 13.1122 148.65 12.6973C147.497 12.2825 146.009 12.0583 144.185 12.0234C143.084 12.0234 141.958 12.1711 140.805 12.4643C139.652 12.7582 138.603 13.225 137.657 13.8647C136.71 14.5052 135.945 15.3349 135.361 16.3539C134.775 17.3744 134.483 18.6101 134.483 20.0617C134.483 21.3761 134.715 22.4819 135.18 23.3807C135.644 24.2802 136.264 25.0142 137.038 25.5849C137.812 26.1556 138.663 26.6054 139.592 26.9334C140.521 27.2622 141.451 27.5479 142.379 27.7891C143.273 28.1001 144.134 28.4118 144.959 28.7227C145.785 29.0337 146.464 29.4144 146.998 29.8634C147.531 30.3132 147.797 30.9358 147.797 31.7307C147.797 32.6643 147.376 33.4421 146.533 34.064C145.69 34.6867 144.529 34.9977 143.049 34.9977C141.88 34.9977 140.821 34.8767 139.875 34.6348C138.929 34.3936 138.026 34.0566 137.166 33.6239C136.306 33.192 135.429 32.6992 134.535 32.1463V37.2806C135.774 37.8691 137.038 38.3619 138.328 38.7582C139.618 39.1552 141.192 39.3549 143.05 39.3549C144.735 39.3549 146.37 39.0781 147.952 38.5252C149.534 37.973 150.816 37.0913 151.797 35.8801C152.778 34.6704 153.285 33.0977 153.32 31.1607C153.32 29.7083 153.07 28.5335 152.572 27.634C152.073 26.7352 151.428 26.0094 150.637 25.4558L150.635 25.4543Z" fill="white"/>
<path d="M174.036 13.2165C172.143 12.3526 170.045 11.9199 167.74 11.9199C166.432 11.9199 165.116 12.0157 163.793 12.2049C162.468 12.3956 161.255 12.7066 160.155 13.1385C159.054 13.5712 158.168 14.1494 157.498 14.8759C156.827 15.6018 156.491 16.5013 156.491 17.5729V48.9996H161.858V37.8695C162.217 38.0454 162.592 38.2057 162.993 38.3422C163.956 38.6703 164.92 38.9129 165.883 39.0681C166.846 39.2239 167.655 39.3018 168.308 39.3018C170.854 39.3018 173.021 38.7571 174.81 37.6683C176.599 36.5796 177.958 35.0411 178.887 33.0529C179.816 31.0654 180.28 28.7224 180.28 26.0261C180.28 22.466 179.712 19.6562 178.577 17.5989C177.442 15.5424 175.927 14.0811 174.036 13.2172V13.2165ZM173.933 30.6928C173.382 32.0072 172.556 33.0098 171.456 33.7008C170.355 34.3932 168.979 34.7383 167.327 34.7383C166.432 34.7383 165.521 34.6084 164.593 34.3494C163.664 34.0904 162.752 33.7193 161.857 33.2347V18.7663C161.857 18.0754 162.382 17.5477 163.432 17.1848C164.48 16.8219 165.865 16.64 167.586 16.64C169.513 16.64 170.992 17.0467 172.024 17.8587C173.056 18.6713 173.77 19.7861 174.166 21.2036C174.561 22.6211 174.76 24.1945 174.76 25.923C174.76 27.7895 174.484 29.3807 173.934 30.6943L173.933 30.6928Z" fill="white"/>
<path d="M202.707 14.7459C202.036 14.072 201.269 13.5361 200.41 13.1384C199.55 12.7413 198.63 12.4474 197.649 12.2567C196.669 12.0667 195.697 11.9717 194.734 11.9717C192.773 11.9717 190.871 12.1713 189.031 12.5684C187.191 12.9662 185.789 13.4938 184.826 14.1499V19.2322C185.823 18.4025 187.096 17.7546 188.644 17.2878C190.192 16.8209 191.689 16.5879 193.134 16.5879C195.163 16.5879 196.728 17.0117 197.83 17.8585C198.931 18.706 199.481 20.0456 199.481 21.8773V24.3345C199.083 24.0985 198.648 23.8744 198.165 23.6666C197.322 23.3037 196.376 23.0187 195.327 22.8109C194.277 22.6038 193.1 22.4999 191.792 22.4999C189.831 22.4999 188.145 22.8109 186.735 23.4336C185.323 24.0562 184.24 24.9891 183.484 26.2337C182.727 27.4783 182.349 29.0688 182.349 31.0051C182.349 32.6304 182.649 33.987 183.252 35.0758C183.853 36.1645 184.662 37.0202 185.677 37.6429C186.691 38.2656 187.819 38.7064 189.057 38.9654C190.296 39.2245 191.586 39.3543 192.927 39.3543C195.198 39.3543 197.227 39.1896 199.017 38.8615C200.806 38.5335 202.224 37.9108 203.274 36.9943C204.324 36.0784 204.848 34.7737 204.848 33.0794V20.6334C204.848 19.3198 204.658 18.1791 204.28 17.2106C203.901 16.2428 203.377 15.4212 202.707 14.7473V14.7459ZM198.036 34.6854C197.072 34.963 195.575 35.1003 193.546 35.1003C192.583 35.1003 191.663 34.9533 190.785 34.6594C189.908 34.3663 189.177 33.8995 188.592 33.259C188.006 32.62 187.715 31.7814 187.715 30.7438C187.715 29.3619 188.222 28.3244 189.237 27.6327C190.251 26.9417 191.74 26.5952 193.701 26.5952C195.18 26.5952 196.556 26.777 197.829 27.1399C198.439 27.3136 198.989 27.5065 199.481 27.7166V32.7669C199.481 33.7703 198.998 34.4093 198.036 34.6854Z" fill="white"/>
<path d="M224.381 25.4543C223.589 24.9021 222.729 24.4776 221.8 24.1837C220.871 23.8905 219.976 23.6048 219.117 23.328C218.188 23.0519 217.319 22.7758 216.511 22.4983C215.703 22.2222 215.049 21.8422 214.55 21.3576C214.051 20.8737 213.802 20.2169 213.802 19.3871C213.802 18.4194 214.249 17.6846 215.143 17.1829C216.038 16.682 217.156 16.4311 218.498 16.4311C219.942 16.4311 221.215 16.6731 222.317 17.1569C223.417 17.6416 224.587 18.2123 225.826 18.8684L225.774 14.2009C224.673 13.6139 223.547 13.1122 222.394 12.6973C221.241 12.2825 219.753 12.0583 217.931 12.0234C216.829 12.0234 215.703 12.1711 214.55 12.4643C213.398 12.7582 212.349 13.225 211.403 13.8647C210.456 14.5052 209.691 15.3349 209.107 16.3539C208.521 17.3744 208.229 18.6101 208.229 20.0617C208.229 21.3761 208.462 22.4819 208.926 23.3807C209.39 24.2802 210.009 25.0142 210.784 25.5849C211.558 26.1556 212.409 26.6054 213.339 26.9334C214.268 27.2622 215.197 27.5479 216.126 27.7891C217.02 28.1001 217.88 28.4118 218.705 28.7227C219.531 29.0337 220.21 29.4144 220.744 29.8634C221.277 30.3132 221.543 30.9358 221.543 31.7307C221.543 32.6643 221.122 33.4421 220.279 34.064C219.436 34.6867 218.274 34.9977 216.796 34.9977C215.625 34.9977 214.567 34.8767 213.621 34.6348C212.675 34.3936 211.771 34.0566 210.913 33.6239C210.052 33.192 209.175 32.6992 208.28 32.1463V37.2806C209.519 37.8691 210.783 38.3619 212.073 38.7582C213.363 39.1552 214.937 39.3549 216.796 39.3549C218.481 39.3549 220.115 39.0781 221.698 38.5252C223.28 37.973 224.562 37.0913 225.542 35.8801C226.522 34.6704 227.03 33.0977 227.065 31.1607C227.065 29.7083 226.815 28.5335 226.316 27.634C225.817 26.7352 225.172 26.0094 224.382 25.4558L224.381 25.4543Z" fill="white"/>
<path d="M245.467 25.4543C244.675 24.9021 243.815 24.4776 242.886 24.1837C241.957 23.8905 241.062 23.6048 240.203 23.328C239.274 23.0519 238.405 22.7758 237.597 22.4983C236.788 22.2222 236.135 21.8422 235.636 21.3576C235.137 20.8737 234.888 20.2169 234.888 19.3871C234.888 18.4194 235.335 17.6846 236.229 17.1829C237.124 16.682 238.242 16.4311 239.584 16.4311C241.028 16.4311 242.301 16.6731 243.403 17.1569C244.503 17.6416 245.673 18.2123 246.912 18.8684L246.86 14.2009C245.759 13.6139 244.633 13.1122 243.48 12.6973C242.327 12.2825 240.839 12.0583 239.017 12.0234C237.915 12.0234 236.788 12.1711 235.636 12.4643C234.484 12.7582 233.435 13.225 232.489 13.8647C231.542 14.5052 230.777 15.3349 230.193 16.3539C229.607 17.3744 229.315 18.6101 229.315 20.0617C229.315 21.3761 229.548 22.4819 230.012 23.3807C230.476 24.2802 231.095 25.0142 231.87 25.5849C232.644 26.1556 233.495 26.6054 234.424 26.9334C235.354 27.2622 236.283 27.5479 237.212 27.7891C238.106 28.1001 238.966 28.4118 239.791 28.7227C240.617 29.0337 241.296 29.4144 241.83 29.8634C242.363 30.3132 242.629 30.9358 242.629 31.7307C242.629 32.6643 242.208 33.4421 241.365 34.064C240.522 34.6867 239.36 34.9977 237.881 34.9977C236.711 34.9977 235.653 34.8767 234.707 34.6348C233.761 34.3936 232.857 34.0566 231.998 33.6239C231.138 33.192 230.261 32.6992 229.366 32.1463V37.2806C230.605 37.8691 231.869 38.3619 233.159 38.7582C234.449 39.1552 236.023 39.3549 237.881 39.3549C239.567 39.3549 241.201 39.0781 242.784 38.5252C244.366 37.973 245.648 37.0913 246.628 35.8801C247.608 34.6704 248.116 33.0977 248.15 31.1607C248.15 29.7083 247.901 28.5335 247.402 27.634C246.903 26.7352 246.258 26.0094 245.467 25.4558L245.467 25.4543Z" fill="white"/>
<path d="M83.0572 2.68848H80.2383C79.5345 2.68848 78.9629 3.26291 78.9629 3.97018V36.9903C79.7258 36.4626 80.6497 36.1531 81.6459 36.1531C82.6422 36.1531 83.5653 36.4633 84.3282 36.9903V3.97018C84.3282 3.26291 83.7603 2.68848 83.0565 2.68848H83.0572Z" fill="white"/>
<path d="M80.0195 38.7876L81.645 40.9198L83.2705 38.7876C82.8185 38.4329 82.2565 38.228 81.645 38.228C81.0335 38.228 80.4715 38.4329 80.0195 38.7876Z" fill="white"/>
<path d="M48.2595 13.7962L24.8892 0.139711C24.5754 -0.0465704 24.1876 -0.0465704 23.8738 0.139711L0.503482 13.7962C-0.167827 14.185 -0.167827 15.1625 0.503482 15.5521L8.47279 20.2091V25.926C8.47279 26.6095 9.02372 27.1669 9.70759 27.1669H13.4039C14.084 27.1669 14.6386 26.6088 14.6386 25.926V23.8116L23.873 29.2085C24.1869 29.3948 24.5746 29.3948 24.8885 29.2085L48.2588 15.5521C48.9301 15.1632 48.9301 14.1858 48.2588 13.7962H48.2595ZM24.3819 22.0942L11.6831 14.6734L24.3819 7.25255L37.0806 14.6734L24.3819 22.0942Z" fill="white"/>
<path d="M40.0051 26.9805L35.6419 26.8855C35.1132 26.8736 34.6752 27.2751 34.6147 27.8028C34.1058 32.2469 30.705 35.8508 26.2207 36.5432C21.7365 37.2356 17.4161 34.8244 15.6031 30.7388C15.3874 30.2534 14.8498 30.0033 14.3491 30.174L10.2156 31.5811C9.66396 31.7689 9.37815 32.3879 9.59971 32.9289C12.4578 39.8881 19.6834 44.036 27.1889 42.8768C34.6937 41.7183 40.3478 35.5814 40.994 28.0811C41.0442 27.4978 40.587 26.9939 40.0043 26.9812L40.0051 26.9805Z" fill="white"/>
</svg>
