<svg width="153" height="36" viewBox="0 0 153 36" fill="none" xmlns="http://www.w3.org/2000/svg">
<path fill-rule="evenodd" clip-rule="evenodd" d="M40.8808 28.6855C40.8436 29.5713 41.3441 29.8274 42.1634 29.8274C42.5451 29.8274 43.0023 29.7274 43.2266 29.3964C43.4205 29.1165 43.4772 28.7355 43.4772 28.3545V26.3696C43.4772 26.0074 43.3644 25.9513 42.9828 25.9513L42.8828 25.9453V25.7581C43.1334 25.777 43.3839 25.7892 43.6345 25.7892C43.8838 25.7892 44.1344 25.777 44.3782 25.7581V25.9453L44.2782 25.9513C43.8838 25.9513 43.7656 26.0074 43.7656 26.3696V28.6721C43.7656 29.016 43.6778 29.2842 43.49 29.5829C43.3644 29.7816 43.0639 30.0078 42.8395 30.0828C42.5654 30.1657 42.2809 30.2094 41.9946 30.2127C41.4252 30.2127 40.7436 30.1255 40.4431 29.5707C40.2858 29.2897 40.2858 29.0647 40.2858 28.7526V26.5067C40.2858 26.0196 40.2919 25.9757 39.6914 25.9446V25.7575C39.9731 25.7764 40.2669 25.7886 40.5741 25.7886C40.8796 25.7886 41.1746 25.7764 41.4752 25.7575V25.9446C40.8747 25.9757 40.8796 26.0196 40.8796 26.5067V28.6855H40.8808ZM56.9433 29.4713V26.3696C56.9433 26.0074 56.8305 25.9513 56.4489 25.9513L56.3489 25.9453V25.7581C56.5994 25.777 56.85 25.7892 57.1006 25.7892C57.3499 25.7892 57.6005 25.777 57.8443 25.7581V25.9453L57.7443 25.9513C57.3499 25.9513 57.2316 26.0074 57.2316 26.3696V29.9822L57.2505 30.2133L56.7555 30.1261L53.7336 26.4634V29.5079C53.7336 29.87 53.8531 29.9273 54.2463 29.9273L54.3475 29.9322V30.1206C54.1024 30.1017 53.8531 30.0883 53.6025 30.0883C53.352 30.0883 53.1014 30.1011 52.8514 30.1206V29.9322L52.9526 29.9273C53.3337 29.9273 53.4471 29.87 53.4471 29.5079V26.3696C53.4471 26.0074 53.3459 25.9514 52.9959 25.9459H52.9075V25.7587C53.0898 25.7776 53.2642 25.7898 53.4519 25.7898C53.6342 25.7898 53.8086 25.7776 53.9908 25.7587L56.9433 29.4713ZM67.655 29.3714C67.655 29.8572 67.6483 29.9023 68.2494 29.9322V30.1206C67.9495 30.1003 67.649 30.0895 67.3484 30.0883C67.043 30.0883 66.7479 30.1011 66.4669 30.1206V29.9322C67.0674 29.9023 67.0613 29.8572 67.0613 29.3714V26.5079C67.0613 26.0208 67.068 25.977 66.4669 25.9459V25.7587C66.7479 25.7776 67.0424 25.7898 67.3484 25.7898C67.6551 25.7898 67.9489 25.7776 68.2494 25.7587V25.9459C67.649 25.977 67.655 26.0208 67.655 26.5079V29.3714ZM77.3347 26.3635C77.1969 26.0263 77.2482 26.0013 76.9031 25.9513L76.7848 25.9453V25.7581C77.0592 25.777 77.3341 25.7892 77.6164 25.7892C77.898 25.7892 78.1736 25.777 78.4491 25.7581V25.9453C77.8486 25.9331 77.8858 26.0513 77.9297 26.1763L78.1675 26.8682L79.1435 29.3342L79.9634 27.2992L80.2323 26.5445C80.3579 26.1958 80.5511 25.9221 79.8007 25.9459V25.7587C80.0262 25.7776 80.2451 25.7898 80.4761 25.7898C80.7078 25.7898 80.9273 25.7776 81.1516 25.7587V25.9459C80.7511 25.9221 80.7395 26.1519 80.6267 26.4269L79.5812 28.9916L79.1368 30.1456H78.8247L78.6869 29.7396L78.4674 29.1726L77.3347 26.3635ZM90.9258 29.2653C90.9258 29.4902 90.9325 29.639 90.9575 29.8024C91.1891 29.8335 91.508 29.8335 91.8085 29.8335C92.1469 29.8335 92.4901 29.8213 92.8156 29.7274C92.8467 29.6335 92.8784 29.5213 92.8906 29.4086L92.9473 29.0659H93.154C93.129 29.197 93.0912 29.372 93.0912 29.5719V30.0889C92.8595 30.1212 92.4407 30.1139 92.0524 30.1212C91.6772 30.1008 91.3015 30.09 90.9258 30.0889C90.5441 30.0889 90.1759 30.1017 89.7943 30.1212V29.9328C90.1064 29.9206 90.332 29.7902 90.332 29.372V26.5085C90.332 26.0215 90.3381 25.9776 89.7376 25.9465V25.7593C90.1192 25.7782 90.4948 25.7904 90.8825 25.7904C91.2702 25.7904 91.6525 25.7782 92.0274 25.7593C92.4218 25.7666 92.8534 25.7593 93.0662 25.7904C93.0024 25.9862 92.9687 26.1905 92.9662 26.3964C92.9662 26.5274 92.9467 26.6335 92.9467 26.7634H92.7522C92.7454 26.5572 92.7164 26.3524 92.6656 26.1525C92.3651 26.0586 92.0451 26.0477 91.7329 26.0477C91.4574 26.0477 91.1635 26.0477 90.9569 26.0788C90.9319 26.2336 90.9252 26.3775 90.9252 26.5957V27.7626C92.2895 27.7754 92.3773 27.8509 92.384 27.2389H92.5901V28.6794H92.3846C92.3846 27.9747 92.3401 28.0125 90.9258 28.0613V29.2653ZM102.477 26.5073C102.477 26.0202 102.483 25.9763 101.883 25.9453V25.7581C102.234 25.777 102.596 25.7892 102.965 25.7892C103.334 25.7892 103.697 25.777 104.06 25.7581C104.923 25.7154 105.323 26.1818 105.323 26.7073C105.323 27.387 104.711 27.793 104.103 27.9113L105.523 29.7579C105.623 29.8767 105.754 29.9139 105.881 29.9316V30.12C105.739 30.0996 105.597 30.0888 105.454 30.0877C105.312 30.0877 105.173 30.1005 105.03 30.12C104.93 29.9889 104.861 29.8774 104.772 29.7713L103.284 27.8613L103.309 27.7687C103.503 27.7808 103.697 27.7747 103.884 27.7437C104.322 27.6687 104.697 27.3303 104.697 26.8682C104.697 26.1952 104.197 25.9952 103.734 25.9952C103.516 25.9952 103.278 26.0263 103.108 26.0775C103.072 26.1824 103.072 26.3135 103.072 26.5073V29.3708C103.072 29.8566 103.065 29.9017 103.665 29.9316V30.12C103.365 30.1011 103.072 30.0877 102.765 30.0877C102.458 30.0877 102.164 30.1005 101.883 30.12V29.9316C102.482 29.9017 102.477 29.8566 102.477 29.3708V26.5073ZM116.801 26.8079C116.801 26.5695 116.801 26.408 116.737 26.308C116.569 26.0471 116.124 25.9459 115.83 25.9459C115.317 25.9459 114.879 26.3019 114.879 26.839C114.879 28.1917 117.37 27.0688 117.37 28.6355C117.37 29.7024 116.412 30.2133 115.479 30.2133C115.104 30.2133 114.754 30.1206 114.41 29.9773C114.435 29.739 114.446 29.4402 114.453 29.1964V29.0214H114.665V29.3153C114.665 29.4524 114.678 29.5713 114.754 29.639C115.005 29.8566 115.404 29.9273 115.723 29.9273C116.288 29.9273 116.837 29.5963 116.837 28.9782C116.837 27.4681 114.36 28.8782 114.36 27.0633C114.36 26.2074 115.086 25.6654 115.892 25.6654C116.319 25.6654 116.713 25.8014 117.107 25.9513C117.088 26.0513 117.063 26.1513 117.058 26.2513C117.044 26.4384 117.019 26.6195 117.013 26.8073L116.801 26.8079ZM127.18 29.3714C127.18 29.8572 127.175 29.9023 127.777 29.9322V30.1206C127.476 30.1003 127.176 30.0896 126.875 30.0883C126.568 30.0883 126.274 30.1011 125.992 30.1206V29.9322C126.593 29.9023 126.586 29.8572 126.586 29.3714V26.5079C126.586 26.0208 126.593 25.977 125.992 25.9459V25.7587C126.274 25.7776 126.568 25.7898 126.875 25.7898C127.18 25.7898 127.475 25.7776 127.777 25.7587V25.9459C127.175 25.977 127.18 26.0208 127.18 26.5079V29.3714ZM137.874 26.7006C137.868 26.4634 137.868 26.2647 137.849 26.0781L136.886 26.108C136.755 26.1153 136.679 26.133 136.667 26.2964C136.642 26.4451 136.604 26.6085 136.599 26.7762H136.41C136.41 26.6585 136.41 26.5451 136.404 26.4275C136.398 26.2086 136.392 25.9904 136.373 25.7593C136.967 25.7782 137.561 25.7679 138.174 25.7679C138.782 25.7679 139.376 25.7788 139.983 25.7593C139.965 25.9904 139.958 26.208 139.951 26.4275C139.945 26.5451 139.945 26.6585 139.945 26.7762H139.758C139.752 26.6085 139.714 26.4451 139.689 26.2964C139.676 26.133 139.6 26.1153 139.47 26.108L138.493 26.0781C138.474 26.2653 138.474 26.464 138.469 26.7006V29.3714C138.469 29.8572 138.462 29.9023 139.064 29.9322V30.1206C138.763 30.1017 138.469 30.0883 138.162 30.0883C137.855 30.0883 137.561 30.1011 137.28 30.1206V29.9322C137.88 29.9023 137.874 29.8572 137.874 29.3714V26.7006ZM150.689 27.9613L151.333 26.9432C151.572 26.5445 151.803 26.1574 152.009 25.7587H152.509V25.8514C151.984 26.4573 151.227 27.5126 150.971 28.0674C150.907 28.2149 150.877 28.3749 150.883 28.5356V29.3714C150.883 29.8572 150.877 29.9023 151.477 29.9322V30.1206C151.177 30.1003 150.876 30.0895 150.575 30.0883C150.269 30.0883 149.976 30.1011 149.695 30.1206V29.9322C150.296 29.9023 150.289 29.8572 150.289 29.3714V28.4545C150.289 28.4045 150.289 28.3295 150.258 28.2606L149.507 26.9511C149.3 26.5951 148.918 25.9843 148.475 26.033V25.852L149.138 25.7221C149.319 25.691 149.413 25.7971 149.519 25.927C149.619 26.058 149.707 26.1903 149.795 26.333L150.689 27.9613ZM76.9281 9.02319C76.9281 7.07604 76.9543 6.90108 74.5518 6.77611V6.02809C75.9527 6.10307 77.4048 6.15306 78.8813 6.15306C80.3579 6.15306 81.8088 6.10307 83.2609 6.02809C86.7157 5.85313 88.3172 7.72468 88.3172 9.8212C88.3172 12.542 85.8646 14.1642 83.4371 14.6379L89.1176 22.026C89.5187 22.4996 90.0436 22.6484 90.5441 22.724V23.4732C89.9804 23.3934 89.412 23.3517 88.8427 23.3482C88.2666 23.3482 87.7161 23.3982 87.1406 23.4732C86.7407 22.9495 86.4651 22.5002 86.1146 22.0753L80.1579 14.4391L80.2579 14.0648C81.0339 14.1148 81.8094 14.0898 82.5611 13.9648C84.3137 13.6655 85.8153 12.3176 85.8153 10.4698C85.8153 7.77589 83.812 6.97667 81.9606 6.97667C81.0839 6.97667 80.1329 7.10103 79.4581 7.30038C79.3069 7.72529 79.3069 8.24957 79.3069 9.0238V20.4787C79.3069 22.4253 79.2819 22.5996 81.685 22.7246V23.4738C80.4851 23.3943 79.2829 23.3526 78.0803 23.3488C76.9031 23.3513 75.7262 23.3929 74.5518 23.4738V22.7246C76.9543 22.5996 76.9281 22.4259 76.9281 20.4787V9.02319ZM107.238 20.8768V8.47331C107.238 7.02605 106.788 6.80171 105.262 6.80171L104.862 6.77611V6.02809C105.863 6.10307 106.863 6.15306 107.865 6.15306C108.867 6.15306 109.868 6.10307 110.843 6.02809V6.77611L110.443 6.80171C108.867 6.80171 108.39 7.02605 108.39 8.47331V22.9239L108.465 23.8469L106.489 23.4982L94.3988 8.84762V21.0268C94.3988 22.4746 94.8749 22.6984 96.4521 22.6984L96.852 22.7234V23.4726C95.8612 23.393 94.8678 23.3513 93.8739 23.3476C92.8717 23.3476 91.8713 23.3976 90.8703 23.4726V22.7234L91.2702 22.6984C92.7967 22.6984 93.2478 22.4746 93.2478 21.0268V8.47331C93.2478 7.02605 92.8467 6.80171 91.4452 6.77611H91.094V6.02809C91.8207 6.10307 92.5212 6.15306 93.2728 6.15306C93.9983 6.15306 94.6988 6.10307 95.4254 6.02809L107.238 20.8768Z" fill="#E5E1EA"/>
<path fill-rule="evenodd" clip-rule="evenodd" d="M74.5825 14.1885C74.5825 19.5539 70.3779 23.8463 64.8967 23.8463C59.8154 23.8463 56.0114 20.3531 56.0114 14.6628C56.0114 9.57183 59.6155 5.57815 65.4228 5.65314C70.7778 5.65314 74.5825 8.64763 74.5825 14.1885ZM71.9044 14.9622C71.9044 10.0211 69.6774 6.72669 65.0211 6.72669C60.6665 6.72669 58.6895 9.74679 58.6895 13.8398C58.6895 18.2066 60.7409 22.7739 65.6977 22.7739C69.8767 22.4996 71.9044 19.5539 71.9044 14.9622ZM116.069 20.0538C116.069 20.9518 116.094 21.5516 116.194 22.1997C117.121 22.3246 118.397 22.3246 119.599 22.3246C120.95 22.3246 122.327 22.2746 123.628 21.9009C123.754 21.5272 123.879 21.0767 123.928 20.628L124.154 19.2552H124.98C124.879 19.7788 124.729 20.4781 124.729 21.2755V23.347C123.803 23.472 122.126 23.447 120.575 23.472C119.097 23.397 117.595 23.347 116.069 23.347C114.542 23.347 113.066 23.397 111.539 23.472V22.7227C112.791 22.6727 113.692 22.1491 113.692 20.4769V9.02194C113.692 7.07479 113.717 6.89983 111.314 6.77485V6.02806C112.841 6.10304 114.342 6.15303 115.894 6.15303C117.445 6.15303 118.972 6.10304 120.475 6.02806C122.051 6.05305 123.779 6.02806 124.629 6.15303C124.354 6.97603 124.254 7.77525 124.229 8.57326C124.229 9.09815 124.154 9.52245 124.154 10.0461H123.378C123.353 9.07376 123.203 8.37391 123.028 7.6009C121.826 7.22598 120.55 7.17599 119.299 7.17599C118.197 7.17599 117.021 7.17599 116.194 7.30035C116.094 7.92461 116.069 8.49888 116.069 9.37248V14.0398C121.525 14.0898 121.875 14.3885 121.901 11.9427H122.727V17.7079H121.901C121.901 14.8878 121.726 15.0378 116.069 15.2383V20.0538ZM130.367 21.2755L130.442 22.1997C131.494 22.3246 132.77 22.3246 133.971 22.3246C135.323 22.3246 136.701 22.2746 138 21.9009C138.1 21.676 138.176 21.401 138.251 21.1017L138.826 19.0052L139.626 19.0552C139.551 19.4039 139.477 20.0544 139.377 20.7268L139.101 23.3476C138.3 23.4726 136.7 23.4476 135.222 23.4726C133.797 23.3927 132.37 23.3511 130.943 23.3476C129.49 23.3476 128.09 23.3976 126.637 23.4726V22.7233C127.814 22.5234 127.989 21.8004 127.989 19.8038V9.02316C127.989 7.07601 128.014 6.90105 125.611 6.77608V6.02806C126.738 6.10304 127.914 6.15303 129.141 6.15303C130.367 6.15303 131.543 6.10304 132.745 6.02806V6.77608C130.342 6.90105 130.367 7.0754 130.367 9.02316V21.2755ZM143.739 21.2755L143.814 22.1997C144.866 22.3246 146.142 22.3246 147.343 22.3246C148.695 22.3246 150.071 22.2746 151.372 21.9009C151.472 21.676 151.547 21.401 151.622 21.1017L152.198 19.0052L153 19.0552C152.923 19.4039 152.848 20.0544 152.748 20.7268L152.473 23.3476C151.672 23.4726 150.071 23.4476 148.593 23.4726C147.193 23.3976 145.73 23.3842 144.277 23.3842C142.827 23.3842 141.461 23.397 140.01 23.4726V22.7233C141.186 22.5234 141.361 21.8004 141.361 19.8038V9.02316C141.361 7.07601 141.386 6.90105 138.984 6.77608V6.02806C140.109 6.10304 141.286 6.15303 142.513 6.15303C143.739 6.15303 144.915 6.10304 146.117 6.02806V6.77608C143.714 6.90105 143.739 7.0754 143.739 9.02316V21.2755ZM54.7391 22.3746C53.1632 23.2738 50.66 23.8463 49.0836 23.8463C43.5524 23.8463 38.9473 20.603 38.9473 14.6878C38.9473 8.89758 43.6274 5.65314 48.583 5.65314C50.785 5.65314 52.9888 6.17742 55.0914 6.77608C54.8409 8.02398 54.6903 9.27189 54.5403 10.5204H53.813C53.7387 8.92196 54.1386 8.34891 52.6627 7.62529C51.6355 7.12539 50.4345 6.70109 48.6318 6.70109C44.5028 6.70109 41.6491 9.62121 41.6491 14.1386C41.6491 19.1296 44.9027 22.5728 49.934 22.5728C51.736 22.5728 53.5125 21.9991 55.014 21.0011L55.2396 21.2499L54.7391 22.3746Z" fill="#E5E1EA"/>
<path d="M17.8813 0C8.02275 0 0 8.02275 0 17.8813C0 27.7399 8.02275 35.7626 17.8813 35.7626C27.7399 35.7626 35.7626 27.7399 35.7626 17.8813C35.7626 8.02275 27.7399 0 17.8813 0ZM17.8813 34.9282C8.47574 34.9282 0.834461 27.2869 0.834461 17.8813C0.834461 8.47574 8.47574 0.834461 17.8813 0.834461C27.2869 0.834461 34.9282 8.47574 34.9282 17.8813C34.9282 27.2869 27.2869 34.9282 17.8813 34.9282ZM17.8813 4.45841C10.4785 4.45841 4.44649 10.4785 4.44649 17.8932C4.44649 25.308 10.4785 31.3161 17.8813 31.3161C25.2842 31.3161 31.3161 25.2842 31.3161 17.8813C31.3161 10.4785 25.2842 4.45841 17.8813 4.45841ZM17.8813 30.4817C10.9314 30.4817 5.28095 24.8431 5.28095 17.8813C5.28095 10.9195 10.9314 5.28095 17.8813 5.28095C24.8312 5.28095 30.4817 10.9314 30.4817 17.8813C30.4817 24.8312 24.8312 30.4817 17.8813 30.4817ZM9.33405 8.83337V20.3132C9.33405 22.9835 10.7884 25.5464 13.5779 27.7876C15.6283 29.4565 17.6548 30.3386 17.7502 30.3625L17.9171 30.434L18.084 30.3625C18.1793 30.3148 20.182 29.4326 22.2324 27.7876C24.9742 25.5703 26.4524 23.0788 26.4524 20.5039V8.83337H9.33405ZM25.5703 9.66783V15.8548H10.1685V9.66783H25.5703ZM21.9583 24.8789H21.3384C20.7423 24.855 20.3609 24.8312 19.9794 24.7835C19.5741 24.7358 19.2165 24.712 18.6919 24.712C18.4774 24.712 18.3343 24.7597 18.1913 24.8312V18.6443C18.2389 18.6204 18.3105 18.5727 18.4297 18.5489C18.4297 18.5489 18.8111 18.4774 19.2165 18.525L19.9317 18.5966C20.337 18.6443 20.6708 18.6919 21.0046 18.6919H21.9583V24.8789ZM17.4998 24.8073C17.3806 24.7597 17.2376 24.712 17.0707 24.712C16.57 24.712 16.1886 24.7358 15.7832 24.7835C15.4018 24.8312 14.9965 24.855 14.4243 24.8789H13.8044V18.6681H14.758C15.068 18.6681 15.4256 18.6204 15.8309 18.5727L16.5223 18.5012C16.9515 18.4535 17.333 18.525 17.333 18.525C17.4045 18.5489 17.476 18.5727 17.5237 18.5966L17.4998 24.8073ZM10.1685 20.3132V16.6892H17.4998V17.7383C17.4522 17.7383 16.9753 17.6191 16.4508 17.6906L15.7356 17.7621C15.3541 17.8098 15.0203 17.8336 14.7104 17.8575H13.8044H12.9461V18.9542H12.1355V19.9555H12.9461V21.2668H12.1355V22.2682H12.9461V23.3172H12.1355V24.3186H12.9461V25.6776L13.3514 25.7014C13.3752 25.7014 13.8521 25.7253 14.4243 25.7253C15.0441 25.7014 15.4495 25.6776 15.8548 25.6299C16.2362 25.606 16.5939 25.5584 17.0469 25.5584C17.1899 25.5584 17.2376 25.606 17.3091 25.7253C17.3568 25.7729 17.4045 25.8445 17.4998 25.916V29.3254C15.7117 28.4075 10.1685 25.2127 10.1685 20.3132ZM18.1913 29.3611V25.8802C18.2866 25.8087 18.3343 25.7372 18.382 25.6895C18.4774 25.5703 18.525 25.5226 18.6919 25.5226C19.1688 25.5226 19.5026 25.5464 19.884 25.5941C20.2655 25.6418 20.6946 25.6657 21.3145 25.6895C21.9344 25.7133 22.3874 25.6656 22.3874 25.6656L22.7927 25.6418V24.4974H23.5318V23.4961H22.7927V22.447H23.5795V21.4576H22.7927V20.1463H23.5318V19.1449H22.7927V17.8098H21.9583H21.0523C20.7662 17.8098 20.4324 17.7621 20.0509 17.7144L19.3357 17.6429C18.7873 17.5714 18.3105 17.6906 18.2866 17.6906C18.2628 17.6906 18.2389 17.6906 18.2151 17.7144V16.6654H25.5941V20.5278C25.5703 25.2603 19.9079 28.5028 18.1913 29.3611ZM12.4096 14.4958C13.0057 14.8773 13.864 15.4018 13.8878 15.4256L14.1024 15.5448L14.317 15.4256C14.3647 15.4018 15.3183 14.8773 15.8905 14.4958C16.3912 14.1858 16.6058 13.8282 16.6296 13.4229V10.4904V10.0612H11.6348V13.4229C11.6705 13.8044 11.9328 14.162 12.4096 14.4958ZM15.7832 13.3633C15.7832 13.554 15.5448 13.7209 15.4256 13.7925C15.0203 14.0547 14.4243 14.4123 14.1143 14.5792C13.8282 14.3885 13.256 14.0547 12.8507 13.7925C12.5646 13.5779 12.4454 13.4348 12.4454 13.3633V12.4573H15.7832V12.6004C15.8071 13.0295 15.8071 13.3156 15.7832 13.3633ZM15.7832 10.9076V11.6229H12.4692V10.9076H15.7832ZM20.1224 14.4719C20.7185 14.8534 21.5768 15.3779 21.6006 15.4018L21.8152 15.521L22.0298 15.4018C22.0775 15.3779 23.0311 14.8534 23.6033 14.4719C24.104 14.162 24.3186 13.8044 24.3424 13.3991V10.4665V10.0374H19.3476V13.4229C19.3833 13.7805 19.6456 14.1382 20.1224 14.4719ZM23.5199 13.3871C23.5199 13.554 23.2815 13.7209 23.1623 13.7925C22.757 14.0547 22.1609 14.4123 21.851 14.5792C21.5649 14.3885 20.9927 14.0547 20.6112 13.7925C20.3251 13.5779 20.2059 13.4348 20.2059 13.3633V13.2679C20.2059 13.2679 21.4933 12.3381 21.851 12.0759C22.1609 12.2904 23.2099 12.9818 23.5437 13.1964C23.5437 13.2918 23.5437 13.3395 23.5199 13.3871ZM20.194 10.8838H23.5318V12.1951L21.8152 11.0745L21.6006 11.2652L20.194 12.2904V11.909C20.194 11.5513 20.194 11.1937 20.194 10.8838ZM20.1224 19.4549L21.1715 19.4787V19.9317L20.1224 19.9079C19.9317 19.9079 19.7648 19.884 19.5264 19.8602L19.1688 19.8125H18.978L18.9542 19.3833H19.1926L19.5502 19.431C19.7887 19.431 19.9794 19.4549 20.1224 19.4549ZM20.1224 20.8139L21.1715 20.8377V21.2907L20.1224 21.2668C19.9317 21.2668 19.7648 21.243 19.5264 21.2192L19.1688 21.1715H18.978L18.9542 20.7423H19.1926L19.5502 20.79C19.7887 20.79 19.9794 20.8139 20.1224 20.8139ZM19.0019 22.4947L18.978 22.0417H19.2165L19.5979 22.0894C19.8125 22.1132 19.9794 22.1371 20.1224 22.1371L20.6231 22.1609L21.1953 22.1848V22.6377L20.6231 22.6139L20.1224 22.5901C19.9555 22.5901 19.7648 22.5662 19.5502 22.5424L19.1688 22.4947H19.0019ZM20.1224 23.4722L21.1715 23.4961V23.949L20.1224 23.9252C19.9555 23.9252 19.7648 23.9014 19.5502 23.8775C19.5502 23.8775 19.1926 23.8298 19.1688 23.8298H18.978L18.9542 23.3768H19.1926L19.5741 23.4245C19.7887 23.4484 19.9794 23.4722 20.1224 23.4722ZM14.5435 19.9079V19.4549L15.5925 19.431C15.7594 19.431 15.9263 19.4072 16.1647 19.3833L16.4985 19.3357H16.7131V19.7887H16.5223L16.1886 19.8363C15.974 19.8602 15.7594 19.884 15.5925 19.884L14.5435 19.9079ZM16.4985 20.7185H16.7131V21.1715H16.5223L16.2124 21.2192C15.9978 21.243 15.7832 21.2668 15.6164 21.2668L14.5673 21.2907L14.5435 20.8615L15.5925 20.8377C15.7594 20.8377 15.9263 20.8139 16.1647 20.79C16.1409 20.7423 16.4985 20.7185 16.4985 20.7185ZM16.4985 22.0536H16.7131V22.5066H16.5223L16.1647 22.5543C15.9501 22.5781 15.7594 22.602 15.5925 22.602H15.4733L14.5196 22.6258V22.1728L15.4733 22.149H15.5925C15.7594 22.149 15.9263 22.1251 16.1409 22.1013L16.4985 22.0536ZM16.4985 23.4007H16.7131V23.8537H16.5223L16.1886 23.9014C15.974 23.9252 15.7594 23.949 15.5925 23.949H15.4971L14.5912 23.9729V23.5199L15.4971 23.4961H15.664C15.8309 23.4961 15.9978 23.4722 16.2362 23.4484C16.1647 23.4007 16.4985 23.4007 16.4985 23.4007ZM15.7356 3.21864L15.5925 1.69276L16.0693 1.64508L16.1886 3.05174C16.2362 3.45705 16.3793 3.71931 16.7369 3.67163C17.0945 3.64779 17.2137 3.36169 17.1661 2.95638L17.0469 1.54971L17.5237 1.50203L17.6667 3.0279C17.7144 3.67163 17.3806 3.98157 16.7608 4.02926C16.1647 4.10078 15.7832 3.83852 15.7356 3.21864ZM8.47575 7.54592L6.94987 5.68626L8.02275 4.80411L8.26117 5.09021L7.54592 5.68626L7.92738 6.16309L8.57111 5.61473L8.80953 5.90083L8.1658 6.44919L8.59495 6.97371L9.31021 6.37767L9.54862 6.66377L8.47575 7.54592ZM12.6004 4.97101L11.7897 2.70604L12.2427 2.53915L12.9342 4.44649L13.8163 4.13654L13.9593 4.49417L12.6004 4.97101ZM19.3118 4.00541L18.8588 3.93389L19.1688 1.54971L19.7648 1.62124L20.4085 3.52858L20.647 1.74045L21.1 1.81197L20.79 4.19615L20.194 4.12462L19.5502 2.21728L19.3118 4.00541ZM6.40151 9.83472L4.5657 8.30885L4.94716 7.85586L6.90219 8.30885L5.49553 7.16445L5.78163 6.80682L7.61744 8.33269L7.23597 8.78569L5.28095 8.33269L6.68761 9.4771L6.40151 9.83472ZM5.25711 11.7659L4.37496 11.2891L4.44649 11.146C4.54185 10.9553 4.63722 10.9314 4.82796 10.9553L5.61473 11.0745L5.85315 10.5977L4.82796 10.4785C4.70875 10.4785 4.5657 10.4785 4.49417 10.5977C4.61338 10.3116 4.47033 10.0255 4.23191 9.90625C3.63587 9.59631 3.37361 10.1208 3.13519 10.5738L2.89677 11.0268L5.01869 12.1474L5.25711 11.7659ZM4.12462 10.9791L4.0531 11.1222L3.4809 10.8122L3.55242 10.6692C3.67163 10.4546 3.79084 10.24 4.07694 10.3831C4.3392 10.5023 4.21999 10.7646 4.12462 10.9791ZM30.7201 12.3858L32.9612 11.456L33.152 11.909L30.9108 12.8149L30.7201 12.3858ZM22.3397 4.61338L21.8867 4.47033L22.602 2.18152L23.055 2.32457L22.3397 4.61338ZM33.3308 13.8521L33.1639 13.2083L33.5215 13.113L33.9745 14.9011L33.6169 14.9965L33.45 14.3527L31.4711 14.8534L31.3519 14.3766L33.3308 13.8521ZM32.7824 16.9515L34.2129 15.9978L34.2368 16.57L33.2354 17.1899L34.2606 17.7144L34.2844 18.2151L32.7824 17.4522L31.8287 17.4998L31.8049 17.023L32.7824 16.9515ZM30.5771 10.693C30.9824 10.4785 30.291 9.66783 30.9585 9.26252C31.4354 9.00026 31.793 9.23868 32.0076 9.59631C32.1268 9.78704 32.1983 9.95393 32.2221 10.1447L31.8645 10.3116C31.8407 10.1447 31.793 10.0016 31.6976 9.83472C31.6022 9.69167 31.4592 9.54862 31.2208 9.66783C30.8632 9.88241 31.5307 10.693 30.8393 11.0983C30.3863 11.3606 30.0049 11.1222 29.7664 10.693C29.6234 10.4785 29.5995 10.3592 29.5519 10.1208L29.9572 9.93009C29.9572 10.1208 30.0049 10.3116 30.1002 10.4785C30.1956 10.6215 30.3863 10.7884 30.5771 10.693ZM28.1452 8.40422L28.8843 7.76049L28.9797 7.8797C29.1227 8.04659 29.0989 8.11812 29.0035 8.28501L28.622 9.00026L28.9797 9.40557L29.4326 8.49959C29.4803 8.38038 29.528 8.26117 29.4565 8.14196C29.6711 8.35654 30.0048 8.33269 30.1956 8.14196C30.6963 7.68897 30.291 7.25981 29.9572 6.85451L29.6234 6.47304L27.7876 8.07043L28.1452 8.40422ZM29.6472 7.04524L29.7664 7.16445C29.9333 7.35518 30.0764 7.56976 29.8618 7.76049C29.6472 7.97507 29.4326 7.78433 29.2658 7.5936L29.1465 7.47439L29.6472 7.04524ZM24.4497 5.54321L23.9252 5.28095L24.2828 2.75372L24.7358 2.9683L24.4259 4.92332L25.8325 3.49282L26.2617 3.70739L24.4497 5.54321ZM25.9279 6.44919L27.4061 4.5657L28.5028 5.424L28.2882 5.7101L27.573 5.1379L27.2154 5.61473L27.8829 6.13925L27.6684 6.42535L27.0008 5.90083L26.5716 6.44919L27.3107 7.04524L27.0962 7.33134L25.9279 6.44919ZM10.5023 6.04388L9.33405 3.93389L9.7632 3.71931L10.7646 5.50745L11.5752 5.05445L11.7659 5.38824L10.5023 6.04388ZM23.3768 32.8778L23.5437 33.3308L23.0907 33.4977L22.9238 33.0447L23.3768 32.8778ZM20.4324 31.7334L20.0271 34.2844L20.5278 34.1652L20.6231 33.5692L21.5768 33.3546L21.8867 33.8553L22.4113 33.7361L20.9807 31.5665L20.4324 31.7334ZM20.647 33.2116L20.79 32.1864L21.3384 33.0924L20.647 33.2116ZM30.9585 26.6193C30.7439 26.4524 30.4817 26.4286 30.1717 26.6193C30.2433 26.3571 30.1241 26.071 29.9572 25.9756C29.6472 25.7372 29.2658 25.9279 29.0035 26.2617C28.7412 26.6193 28.7174 27.0008 29.075 27.2631C29.2896 27.4299 29.528 27.4061 29.7664 27.2631C29.6949 27.573 29.7664 27.8114 29.981 27.9545C30.3625 28.2406 30.7678 28.0737 31.03 27.6922C31.3161 27.3107 31.3638 26.9054 30.9585 26.6193ZM29.8856 26.7624C29.7188 26.8577 29.528 26.9769 29.3611 26.8577C29.1942 26.7385 29.2181 26.5478 29.3373 26.4047C29.4565 26.2379 29.5995 26.2379 29.7664 26.3332C29.8618 26.4524 29.9095 26.6432 29.8856 26.7624ZM30.7678 27.4776C30.6486 27.6445 30.434 27.6922 30.2671 27.573C30.1002 27.4538 30.0764 27.2869 30.1241 27.0962C30.3148 26.9769 30.5055 26.8816 30.7201 27.0246C30.8632 27.12 30.8632 27.3107 30.7678 27.4776ZM16.6654 31.9718L16.0217 31.9241L15.8786 34.3321L16.5223 34.3798C17.2614 34.4275 17.929 34.1891 17.9767 33.2593C18.0482 32.2817 17.3806 31.9956 16.6654 31.9718ZM17.476 33.2116C17.4522 33.7361 17.0469 34.0222 16.6415 33.9983L16.3793 33.9745L16.4747 32.3294L16.7369 32.3533C17.1422 32.3771 17.4998 32.687 17.476 33.2116ZM2.83717 14.9965C3.55242 15.211 4.14847 14.9488 4.36304 14.2097C4.57762 13.4944 4.17231 12.9461 3.4809 12.7553C2.78949 12.5408 2.1696 12.8269 1.97887 13.5421C1.74045 14.2574 2.14576 14.8057 2.83717 14.9965ZM2.33649 13.6375C2.47954 13.1845 2.95638 13.113 3.36169 13.2322C3.79084 13.3514 4.14847 13.6375 4.00542 14.1143C3.86237 14.5912 3.38553 14.6388 2.98022 14.5196C2.55107 14.4004 2.19344 14.0905 2.33649 13.6375ZM24.1159 30.4578L23.5199 30.7678L24.6643 32.8897L25.2603 32.5798C25.9041 32.2221 26.3571 31.6976 25.9041 30.8632C25.4511 30.0287 24.7597 30.1241 24.1159 30.4578ZM25.1411 32.2102L24.9027 32.3533L24.1159 30.9228L24.3544 30.7797C24.712 30.5651 25.1888 30.6605 25.4272 31.1135C25.7133 31.5665 25.4988 31.9956 25.1411 32.2102ZM13.5898 31.3638L14.9726 31.7215L14.8773 32.0791L13.9713 31.8407L13.8044 32.4367L14.6388 32.6513L14.5435 33.0089L13.709 32.7943L13.5183 33.4381L14.4481 33.6765L14.3527 34.0341L12.9699 33.6765L13.5898 31.3638ZM27.0008 30.9585L27.2631 31.3638L26.8577 31.6261L26.5955 31.2208L27.0008 30.9585ZM27.9068 27.6207L29.5995 29.3373L29.2658 29.6711L27.9545 28.3359L27.8829 28.8604L27.5015 28.8128L27.6207 27.9068L27.9068 27.6207ZM3.05175 21.9583L2.02655 22.2444L1.8835 21.7675L4.19615 21.1L4.55378 22.3874L4.19615 22.5066L3.95773 21.6722L3.38553 21.839L3.6001 22.6258L3.24248 22.745L3.05175 21.9583ZM33.6169 22.5901C33.5692 22.7808 33.4738 22.9715 33.4023 23.1146L32.997 22.9715C33.0924 22.8762 33.2116 22.757 33.2354 22.5424C33.3069 22.304 33.2831 22.0179 32.9731 21.9225C32.687 21.8271 32.4963 22.0655 32.4009 22.3278C32.3533 22.4709 32.3294 22.6139 32.3294 22.757L31.0896 22.3755L31.495 21.0403L31.8287 21.1596L31.5665 22.0655L32.0672 22.2324C32.0672 22.1609 32.091 22.0894 32.1148 22.0179C32.2102 21.7079 32.4963 21.3265 33.0924 21.4933C33.5215 21.6006 33.7599 22.0298 33.6169 22.5901ZM2.59875 17.929C1.76429 17.8813 1.33514 17.333 1.38282 16.5462C1.38282 16.3793 1.43051 16.1886 1.52587 15.9978L1.93118 16.0693C1.81197 16.2601 1.76429 16.4031 1.76429 16.57C1.74045 17.0707 2.09807 17.3806 2.59875 17.4283C3.09943 17.4522 3.4809 17.1899 3.50474 16.6892C3.52858 16.4985 3.4809 16.2839 3.43321 16.1647H3.83852C3.86236 16.3554 3.88621 16.5223 3.88621 16.7131C3.83852 17.476 3.40937 18.0005 2.59875 17.929ZM5.35247 24.0683C5.01869 23.4007 4.37496 23.2338 3.73124 23.5437C3.08751 23.8537 2.77757 24.4736 3.11135 25.1411C3.44513 25.8087 4.1127 25.9756 4.75643 25.6418C5.40016 25.3557 5.68626 24.7597 5.35247 24.0683ZM4.55378 25.2365C4.17231 25.4511 3.69547 25.4511 3.4809 25.0219C3.26632 24.5928 3.57626 24.2351 3.98157 24.0206C4.36304 23.8298 4.83988 23.806 5.03061 24.2351C5.20942 24.6643 4.92332 25.0458 4.55378 25.2365ZM32.1387 24.0921C31.7334 23.8775 31.3758 23.9729 31.1612 24.3782C31.0658 24.5689 31.0658 24.712 31.1612 24.9027C30.8512 24.712 30.5413 24.4259 30.7559 24.0683C30.8274 23.9014 30.9228 23.8298 31.0181 23.7345L30.7082 23.5199C30.5651 23.6391 30.4936 23.7583 30.4221 23.9252C30.0883 24.6166 30.6367 25.1411 31.2089 25.4034C31.7095 25.6418 32.2579 25.761 32.5917 25.1888C32.8063 24.6881 32.6155 24.3067 32.1387 24.0921ZM32.2341 25.0219C32.1148 25.2365 31.9003 25.2365 31.6857 25.1411C31.4711 25.0219 31.3281 24.855 31.4234 24.6405C31.5426 24.4259 31.7572 24.4259 31.9718 24.5451C32.1864 24.6405 32.3533 24.8312 32.2341 25.0219ZM7.5936 27.5015L6.37767 28.479C5.87699 28.8843 5.424 28.7651 5.04253 28.2644C4.66106 27.7876 4.63722 27.3107 5.16174 26.9293L6.37767 25.9756L6.66377 26.3571L5.59089 27.2154C5.28095 27.4538 5.1379 27.7399 5.37632 28.026C5.59089 28.3121 5.90084 28.2406 6.21078 28.0021L7.28366 27.12L7.5936 27.5015ZM11.3844 30.4102L10.7884 30.1241L9.71552 32.2937L10.3116 32.5798C10.9553 32.9135 11.6705 32.9851 12.0997 32.1268C12.505 31.2685 12.0282 30.7678 11.3844 30.4102ZM11.6229 31.9003C11.3844 32.3771 10.9076 32.4725 10.55 32.2817L10.3116 32.1625L11.0507 30.6843L11.2891 30.8035C11.6467 30.9824 11.8613 31.4234 11.6229 31.9003ZM9.88241 29.5519L8.35654 31.4115L7.90354 31.0539L8.33269 29.075L7.18829 30.4817L6.83066 30.1956L8.35654 28.3359L8.80953 28.7174L8.38038 30.6963L9.52478 29.2896L9.88241 29.5519Z" fill="#E5E1EA"/>
</svg>
