<svg xmlns="http://www.w3.org/2000/svg" xmlns:xlink="http://www.w3.org/1999/xlink" width="1000" height="1000" viewBox="0 0 1000 1000">
  <defs>
    <clipPath id="clip-FAVICON">
      <rect width="1000" height="1000"/>
    </clipPath>
  </defs>
  <g id="FAVICON" clip-path="url(#clip-FAVICON)">
    <rect id="Rectangle_1" data-name="Rectangle 1" width="1000" height="1000" rx="100" fill="#798ef5"/>
    <g id="Group_1" data-name="Group 1" transform="translate(82.206 132.78)">
      <path id="Path_11" data-name="Path 11" d="M1288.232,678.476,887.955,445.725a17.1,17.1,0,0,0-17.395,0L470.283,678.476a17.292,17.292,0,0,0,0,29.924l136.5,79.377v97.434a21.151,21.151,0,0,0,21.152,21.153h63.308A21.2,21.2,0,0,0,712.4,885.212V849.171L870.56,941.152a17.1,17.1,0,0,0,17.395,0L1288.232,708.4A17.29,17.29,0,0,0,1288.232,678.476ZM879.258,819.911,661.76,693.438l217.5-126.475,217.5,126.475Z" transform="translate(-461.661 -443.348)" fill="#fff"/>
      <path id="Path_12" data-name="Path 12" d="M1005.88,507.146l-74.734-1.621a17.411,17.411,0,0,0-17.615,15.624,170.892,170.892,0,0,1-325.617,50.046,17.46,17.46,0,0,0-21.448-9.655l-70.829,23.954A17.337,17.337,0,0,0,485.1,608.487a280.081,280.081,0,0,0,537.733-82.62A17.331,17.331,0,0,0,1005.88,507.146Z" transform="translate(-320.668 -47.298)" fill="#fff"/>
    </g>
  </g>
</svg>
