<svg width="68" height="68" viewBox="0 0 68 68" fill="none" xmlns="http://www.w3.org/2000/svg">
<rect x="8" y="8" width="52" height="52" rx="15" fill="#748FFD"/>
<rect x="1" y="1" width="66" height="66" rx="19" stroke="#748FFD" stroke-width="2"/>
<path d="M29.1765 49.2723C29.0887 49.2723 29.0009 49.2538 28.9201 49.2123C28.6522 49.083 28.5229 48.7758 28.6153 48.4941L33.086 35.0842H28.5853C28.3867 35.0842 28.2043 34.9849 28.0934 34.8209C27.9826 34.657 27.9641 34.4492 28.0403 34.2667L33.952 20.0786C34.0421 19.8569 34.2591 19.7137 34.497 19.7137H40.1131C40.314 19.7137 40.5011 19.8154 40.6096 19.9839C40.7181 20.1525 40.7343 20.3626 40.6535 20.5451L36.0003 30.946H40.4087C40.6258 30.946 40.8244 31.0661 40.9283 31.2554C41.0322 31.4471 41.023 31.678 40.9029 31.8605L29.6706 49.0044C29.5575 49.1776 29.3704 49.2723 29.1765 49.2723Z" fill="white"/>
</svg>
