<svg width="142" height="36" viewBox="0 0 142 36" fill="none" xmlns="http://www.w3.org/2000/svg">
<path fill-rule="evenodd" clip-rule="evenodd" d="M134.187 4.29688C132.755 4.29688 130.867 4.42709 130.183 4.42709C129.793 4.42709 128.263 4.36198 127.807 4.36198V4.72007C128.588 4.88284 129.044 5.14327 129.044 5.892V16.4394C129.044 17.1881 128.588 17.5136 127.774 17.6438V18.0345C128.23 18.0345 129.63 17.9694 130.053 17.9694C130.704 17.9694 132.495 18.0996 133.927 18.0996C138.94 18.0996 142 15.1372 142 11.1006C142 6.99882 139.07 4.29688 134.187 4.29688ZM74.8748 4.32943C74.1261 4.32943 72.238 4.42709 71.5544 4.42709C71.1312 4.42709 69.6988 4.36198 69.2431 4.36198V4.72007C70.122 4.85028 70.4475 5.27348 70.4475 5.92455V16.4068C70.4475 17.1555 69.9918 17.5136 69.2431 17.6438V18.0345C69.6988 18.0345 71.1637 17.9694 71.5218 17.9694C71.945 17.9694 73.4425 18.0345 73.8982 18.0345V17.6438C73.0844 17.4811 72.6286 17.0904 72.6286 16.4068V11.7516C72.8565 11.7842 73.0518 11.8168 73.2797 11.8493C74.3214 12.0121 74.9074 12.5004 75.3631 13.0863C76.1119 14.0304 77.4791 15.9511 78.1953 16.8626C79.0742 17.9043 79.9206 18.2949 81.06 18.2949C81.5809 18.2949 82.2645 18.2298 82.6877 18.1321V17.8392C81.8087 17.8066 80.9623 16.8951 80.3438 16.1138C79.6928 15.3325 78.0651 13.0538 77.4791 12.3702C76.9908 11.8167 76.5351 11.5563 76.5351 11.5563C78.6185 11.0355 79.9857 9.83098 79.9857 8.00798C79.9857 5.69668 78.1302 4.32943 74.8748 4.32943ZM117.976 4.32943C117.227 4.32943 115.339 4.42709 114.655 4.42709C114.232 4.42709 112.8 4.36198 112.344 4.36198V4.72007C113.223 4.85028 113.548 5.27348 113.548 5.92455V16.4068C113.548 17.1555 113.093 17.5136 112.344 17.6438V18.0345C112.8 18.0345 114.265 17.9694 114.623 17.9694C115.046 17.9694 116.543 18.0345 116.999 18.0345V17.6438C116.185 17.4811 115.73 17.0904 115.73 16.4068V11.7516C115.957 11.7842 116.153 11.8168 116.381 11.8493C117.422 12.0121 118.008 12.5004 118.464 13.0863C119.213 14.0304 120.515 15.9511 121.264 16.8626C122.11 17.9043 123.022 18.2949 124.128 18.2949C124.649 18.2949 125.333 18.2298 125.756 18.1321V17.8392C124.877 17.8066 124.063 16.8951 123.412 16.1138C122.761 15.3325 121.166 13.0538 120.58 12.3702C120.092 11.8167 119.636 11.5563 119.636 11.5563C121.719 11.0355 123.087 9.83098 123.087 8.00798C123.054 5.69668 121.231 4.32943 117.976 4.32943ZM59.3468 4.32943C59.3468 4.32943 59.1189 5.20837 58.9236 5.66412L54.5614 16.1789C54.2359 16.9277 53.7801 17.4811 52.9012 17.6764V18.0345L54.8869 18.0019C55.1799 18.0019 56.3518 18.0345 56.8076 18.0345V17.6764C56.0263 17.4811 55.831 17.1555 55.831 16.7974C55.831 16.537 55.9612 16.1789 56.0589 15.9185L56.9704 13.6723H62.0813L63.0579 15.9185C63.1881 16.244 63.3183 16.5696 63.3183 16.8626C63.3183 17.1881 63.123 17.5462 62.4394 17.7089V18.067C62.9602 18.067 64.4251 18.0345 64.7832 18.0345C65.1413 18.0345 66.6713 18.067 67.1922 18.067V17.7089C66.2807 17.4811 65.9226 16.9602 65.597 16.2115L60.9419 5.66412C60.7466 5.24093 60.5512 4.32943 60.5512 4.32943H59.3468ZM102.643 4.32943C102.643 4.32943 102.415 5.20837 102.252 5.66412L97.8902 16.1789C97.5647 16.9277 97.1089 17.4811 96.2625 17.6764V18.0345L98.2808 18.0019C98.5738 18.0019 99.7132 18.0345 100.169 18.0345V17.6764C99.4202 17.4811 99.2249 17.1555 99.2249 16.7974C99.2249 16.537 99.3226 16.1789 99.4528 15.9185L100.364 13.6723H105.475L106.452 15.9185C106.582 16.244 106.712 16.5696 106.712 16.8626C106.712 17.1881 106.517 17.5462 105.833 17.7089V18.067C106.322 18.067 107.819 18.0345 108.177 18.0345C108.535 18.0345 110.098 18.067 110.586 18.067V17.7089C109.675 17.4811 109.317 16.9602 108.991 16.2115L104.368 5.66412C104.173 5.24093 103.945 4.32943 103.945 4.32943H102.643ZM36.2012 4.39453V4.75262C36.8848 4.91539 37.308 5.20838 37.308 5.92455V16.537C37.308 17.2532 36.8522 17.5462 36.2012 17.7089V18.067L38.3172 18.0345C38.7404 18.0345 40.2704 18.067 40.5959 18.067V17.7089C39.9123 17.5462 39.4891 17.2857 39.4891 16.537V11.5238H47.3996V16.537C47.3996 17.2532 46.9439 17.5462 46.3253 17.7089V18.067C46.6509 18.067 48.1483 18.0345 48.5715 18.0345L50.7526 18.067V17.7089C50.069 17.5462 49.6132 17.2532 49.6132 16.537V5.92455C49.6132 5.20838 50.1015 4.91539 50.7526 4.75262V4.39453L48.5715 4.45964C48.1483 4.45964 46.6509 4.39453 46.3253 4.39453V4.75262C47.009 4.91539 47.3996 5.20838 47.3996 5.92455V10.3518H39.4891V5.92455C39.4891 5.20838 39.9774 4.91539 40.5959 4.75262V4.39453C40.2704 4.39453 38.7404 4.45964 38.3172 4.45964C37.9916 4.42709 36.5267 4.39453 36.2012 4.39453ZM82.297 4.42709V4.81773C83.0783 4.9805 83.5341 5.4688 83.8271 6.15243L89.1984 18.1647H90.2401L95.1557 6.57563C95.6115 5.50136 96.1323 5.0456 96.9461 4.81773V4.42709C96.4578 4.42709 95.1883 4.49219 94.8627 4.49219C94.5372 4.49219 93.4629 4.42709 93.0072 4.42709V4.81773C93.5606 4.91539 93.9512 5.20837 93.9512 5.63157C93.9512 6.02221 93.7559 6.51051 93.4955 7.16159L90.175 15.1698L86.6592 7.16159C86.2686 6.31519 86.0733 5.892 86.0733 5.56646C86.0733 5.11071 86.5941 4.88284 87.0173 4.78518V4.39453C86.529 4.39453 85.0641 4.45964 84.7386 4.45964C84.3805 4.4922 82.7853 4.42709 82.297 4.42709ZM74.2237 5.20837C76.4699 5.20837 77.707 6.34775 77.707 8.2033C77.707 9.50545 76.8931 10.9704 74.354 10.9704C73.7355 10.9704 73.0844 10.9378 72.6612 10.9052V5.37114C73.182 5.27348 73.7029 5.20837 74.2237 5.20837ZM117.325 5.20837C119.571 5.20837 120.808 6.34775 120.808 8.2033C120.808 9.50545 119.994 10.9704 117.455 10.9704C116.836 10.9704 116.185 10.9378 115.762 10.9052V5.37114C116.25 5.27348 116.804 5.20837 117.325 5.20837ZM133.536 5.20837C137.345 5.20837 139.591 7.715 139.591 11.2633C139.591 14.6815 137.475 17.1555 133.374 17.1555C132.657 17.1555 131.746 17.0904 131.258 17.0253V5.37114C131.778 5.27348 132.755 5.20837 133.536 5.20837ZM59.4444 7.51968L61.6255 12.598H57.4261L59.4444 7.51968ZM102.741 7.51968L104.889 12.598H100.69L102.741 7.51968Z" fill="#E5E1EA"/>
<path fill-rule="evenodd" clip-rule="evenodd" d="M14.8129 0.195435H0.13127L0.0661621 11.9473C0.0661621 26.3685 14.52 35.5486 14.6502 35.6137L14.6827 35.6463C14.7153 35.6463 14.8129 35.5812 14.8129 35.5812C17.287 33.986 29.5271 25.2942 29.5271 12.0124V0.195435H14.8129Z" fill="#E5E1EA"/>
<path fill-rule="evenodd" clip-rule="evenodd" d="M29.8516 0.683627C29.8516 4.65516 29.9167 8.56159 29.8516 12.5657C29.7865 15.3002 29.2006 18.0021 28.1914 20.5413C25.815 26.4986 21.2575 31.4793 16.114 35.0277C15.6908 35.3206 15.2351 35.6136 14.8119 35.874C11.7844 33.9208 9.08245 31.4142 6.73859 28.6797C2.89727 24.1222 0.130214 18.523 0 12.3053V12.2401V0H29.8516V0.683627ZM0.520858 12.1099C0.585965 19.3694 4.68771 26.3033 9.89629 31.2514C11.4263 32.7163 13.0214 34.051 14.7793 35.223H14.8119C17.6115 33.4976 20.1507 31.2189 22.3643 28.7774C26.4335 24.2199 29.2982 18.4253 29.3308 12.0774C29.3308 8.26861 29.3308 4.45984 29.3308 0.618521V0.455753H0.520858V11.6542V12.1099Z" fill="#E5E1EA"/>
<path fill-rule="evenodd" clip-rule="evenodd" d="M22.1674 14.0631C22.1674 14.0631 21.907 14.877 20.8001 14.0306L16.9588 13.9329C16.9588 13.9329 16.4705 14.0957 16.3729 13.5748C16.3729 13.5748 16.4705 12.5331 16.4054 12.4355C16.4054 12.4355 16.438 12.1425 15.9171 12.1425C15.9171 12.1425 15.1358 12.2401 15.1358 11.5565C15.1358 11.5565 15.0056 10.8403 16.0799 10.8403C16.0799 10.8403 16.438 11.0031 16.438 10.5799C16.438 10.5799 16.4054 7.61753 16.4054 7.38965C16.4054 7.38965 16.5031 7.12922 15.9822 7.06412C15.9822 7.06412 15.2335 7.22688 15.1358 6.73858C15.1358 6.73858 15.1033 5.98985 15.5916 5.92474C15.5916 5.92474 16.2101 5.95729 16.3077 5.82708C16.3077 5.82708 16.438 5.92474 16.438 5.37133L16.4705 4.42727C16.4705 4.42727 16.5356 4.16685 16.9263 4.1994C16.9263 4.1994 17.6424 4.23195 17.7401 4.16684C17.7401 4.16684 17.9029 3.97152 17.9354 3.87386C17.9354 3.87386 18.2935 3.84131 18.3586 3.93897C18.3586 3.93897 18.912 4.29706 20.9955 4.16684C20.9955 4.16684 21.321 4.16685 21.3861 4.26451C21.3861 4.26451 21.7767 4.55749 22.0046 4.23195C22.0046 4.23195 22.3627 4.16685 23.3719 4.1994C23.3719 4.1994 24.4787 4.49238 25.26 3.84131L25.5204 3.87386C25.5204 3.87386 25.8459 4.39472 26.0738 4.23195C26.0738 4.23195 26.7574 4.16685 26.8877 4.29706C26.8877 4.29706 27.1155 4.62259 26.9853 5.53409C26.9853 5.53409 26.8551 5.92474 27.5062 5.92474C27.5062 5.92474 28.2549 5.79453 28.1572 6.47815C28.1572 6.47815 28.3526 7.29199 27.1155 7.16177C27.1155 7.16177 26.9528 7.38965 26.9853 7.55242C26.9853 7.55242 26.9528 10.1567 26.9528 10.4497C26.9528 10.4497 26.9202 10.8729 27.4736 10.8403C27.4736 10.8403 28.1898 10.8078 28.2224 11.4588C28.2224 11.4588 28.32 12.3378 27.2783 12.175C27.2783 12.175 26.9528 12.2076 26.9202 12.4355L26.8877 13.5748C26.8877 13.5748 26.9202 14.1608 26.2691 13.998C26.1715 13.998 22.7208 14.0631 22.4278 13.9655C22.3627 13.998 22.1999 13.9655 22.1674 14.0631Z" fill="#E5E1EA"/>
<path fill-rule="evenodd" clip-rule="evenodd" d="M14.8129 17.872C14.8129 17.872 14.9756 17.8069 15.0082 17.6767C15.0082 17.6767 15.4965 17.6441 15.5616 17.5464L17.0591 17.6767C17.0591 17.6767 18.5565 17.7743 19.175 17.3186C19.175 17.3186 19.4029 17.3186 19.5657 17.3837C19.5657 17.3837 19.8912 17.4488 19.9889 17.579L20.8678 17.5464C20.8678 17.5464 21.3561 17.7092 21.3236 18.0348V18.458C21.3236 18.458 21.2259 19.2718 21.4538 19.3369H22.1049C22.1049 19.3369 22.6583 19.5973 22.5932 19.8903C22.5932 19.8903 22.6257 20.3461 22.1374 20.4437C22.1374 20.4437 21.6491 20.5739 21.4863 20.5739C21.4863 20.5739 21.3236 20.7693 21.291 21.0297L21.2259 24.0246C21.2259 24.0246 21.1934 24.3501 21.6491 24.285C21.6491 24.285 22.3653 24.2199 22.5606 24.6106C22.5606 24.6106 22.7559 25.2616 22.3653 25.3919L22.1049 25.5221L21.5189 25.6197C21.5189 25.6197 21.2585 25.6523 21.2585 26.0755V26.8568C21.2585 26.8568 21.291 27.4102 20.8353 27.4102L20.1842 27.4427C20.1842 27.4427 20.0214 27.573 19.6959 27.4753C19.6959 27.4753 15.822 27.5404 15.6918 27.5078L15.2361 27.6055C15.2361 27.6055 14.7478 28.0613 14.3246 27.7032L13.999 27.4427C13.999 27.4427 13.7711 27.4753 13.6735 27.4753C13.5758 27.4427 9.37641 27.5078 9.37641 27.5078C9.37641 27.5078 8.49746 27.6055 8.43236 27.3125C8.43236 27.3125 8.3347 26.1406 8.36725 26.0104C8.36725 26.0104 8.36725 25.6848 8.17193 25.6523C8.17193 25.6523 7.29298 25.6197 7.26043 25.5221C7.26043 25.5221 6.77212 25.1965 6.90234 24.8384C6.90234 24.8384 7.06511 24.3827 7.55341 24.3501C7.55341 24.3501 8.26959 24.4804 8.26959 24.2525C8.26959 24.2525 8.30214 24.1223 8.30214 23.8944C8.30214 23.8944 8.3347 21.1924 8.3347 20.9971C8.3347 20.9971 8.3998 20.639 8.10682 20.639C8.10682 20.639 7.78128 20.7367 7.58596 20.6065C7.58596 20.6065 7.03255 20.639 6.93489 20.1833C6.93489 20.1833 6.83723 19.9229 6.96744 19.695C6.96744 19.695 7.22787 19.2067 7.94405 19.3694C7.94405 19.3694 8.36725 19.4997 8.3998 19.1741L8.36725 18.0673C8.36725 18.0673 8.26959 17.7743 8.85555 17.6116C8.85555 17.6116 9.57173 17.8069 9.79961 17.4488C9.79961 17.4488 10.06 16.9605 10.2554 17.286C10.2554 17.286 10.6786 17.7092 11.883 17.6441C11.883 17.6441 13.9339 17.4813 13.9665 17.579C13.9665 17.579 14.4548 17.6441 14.6175 17.8069L14.8129 17.872ZM8.59512 14.0632C8.59512 14.0632 8.3347 14.8771 7.22787 14.0307L3.38655 13.933C3.38655 13.933 2.89825 14.0958 2.80059 13.5749C2.80059 13.5749 2.89825 12.5332 2.83314 12.4355C2.83314 12.4355 2.86569 12.1426 2.34484 12.1426C2.34484 12.1426 1.56355 12.2402 1.56355 11.5566C1.56355 11.5566 1.43334 10.8079 2.50761 10.8404C2.50761 10.8404 2.83314 11.0032 2.86569 10.58C2.86569 10.58 2.83314 7.61761 2.83314 7.38973C2.83314 7.38973 2.9308 7.1293 2.40994 7.0642C2.40994 7.0642 1.66121 7.22696 1.56355 6.70611C1.56355 6.70611 1.531 5.95737 2.0193 5.89227C2.0193 5.89227 2.63782 5.92482 2.73548 5.79461C2.73548 5.79461 2.86569 5.89227 2.83314 5.33886L2.86569 4.3948C2.86569 4.3948 2.9308 4.13437 3.32145 4.16693C3.32145 4.16693 4.03762 4.19948 4.13528 4.13438C4.13528 4.13438 4.29805 3.93905 4.33061 3.84139C4.33061 3.84139 4.6887 3.80884 4.7538 3.9065C4.7538 3.9065 5.30721 4.26459 7.39064 4.13438C7.39064 4.13438 7.71618 4.13437 7.78128 4.23203C7.78128 4.23203 8.17193 4.52502 8.3998 4.19948C8.3998 4.19948 8.75789 4.13437 9.76705 4.16693C9.76705 4.16693 10.8739 4.45991 11.6552 3.84139L11.9156 3.87395C11.9156 3.87395 12.2411 4.3948 12.469 4.23203C12.469 4.23203 13.1526 4.16693 13.2828 4.29714C13.2828 4.29714 13.5107 4.65523 13.3805 5.53418C13.3805 5.53418 13.2503 5.92482 13.9014 5.92482C13.9014 5.92482 14.6501 5.79461 14.5524 6.47823C14.5524 6.47823 14.7478 7.29207 13.5107 7.16185C13.5107 7.16185 13.3479 7.38973 13.3805 7.5525C13.3805 7.5525 13.3479 10.1568 13.3479 10.4498C13.3479 10.4498 13.3154 10.873 13.8688 10.8404C13.8688 10.8404 14.585 10.8079 14.6175 11.4589C14.6175 11.4589 14.7152 12.3379 13.6735 12.1751C13.6735 12.1751 13.3479 12.2077 13.3154 12.4355L13.2828 13.5749C13.2828 13.5749 13.3154 14.1609 12.6643 13.9981C12.5667 13.9981 9.11598 14.0632 8.823 13.9656C8.79045 13.9981 8.66023 13.9656 8.59512 14.0632Z" fill="#E5E1EA"/>
<path fill-rule="evenodd" clip-rule="evenodd" d="M22.1674 14.0631C22.1674 14.0631 21.907 14.877 20.8001 14.0306L16.9588 13.9329C16.9588 13.9329 16.4705 14.0957 16.3729 13.5748C16.3729 13.5748 16.4705 12.5331 16.4054 12.4355C16.4054 12.4355 16.438 12.1425 15.9171 12.1425C15.9171 12.1425 15.1358 12.2401 15.1358 11.5565C15.1358 11.5565 15.0056 10.8403 16.0799 10.8403C16.0799 10.8403 16.438 11.0031 16.438 10.5799C16.438 10.5799 16.4054 7.61753 16.4054 7.38965C16.4054 7.38965 16.5031 7.12922 15.9822 7.06412C15.9822 7.06412 15.2335 7.22688 15.1358 6.73858C15.1358 6.73858 15.1033 5.98985 15.5916 5.92474C15.5916 5.92474 16.2101 5.95729 16.3077 5.82708C16.3077 5.82708 16.438 5.92474 16.438 5.37133L16.4705 4.42727C16.4705 4.42727 16.5356 4.16685 16.9263 4.1994C16.9263 4.1994 17.6424 4.23195 17.7401 4.16684C17.7401 4.16684 17.9029 3.97152 17.9354 3.87386C17.9354 3.87386 18.2935 3.84131 18.3586 3.93897C18.3586 3.93897 18.912 4.29706 20.9955 4.16684C20.9955 4.16684 21.321 4.16685 21.3861 4.26451C21.3861 4.26451 21.7767 4.55749 22.0046 4.23195C22.0046 4.23195 22.3627 4.16685 23.3719 4.1994C23.3719 4.1994 24.4787 4.49238 25.26 3.84131L25.5204 3.87386C25.5204 3.87386 25.8459 4.39472 26.0738 4.23195C26.0738 4.23195 26.7574 4.16685 26.8877 4.29706C26.8877 4.29706 27.1155 4.62259 26.9853 5.53409C26.9853 5.53409 26.8551 5.92474 27.5062 5.92474C27.5062 5.92474 28.2549 5.79453 28.1572 6.47815C28.1572 6.47815 28.3526 7.29199 27.1155 7.16177C27.1155 7.16177 26.9528 7.38965 26.9853 7.55242C26.9853 7.55242 26.9528 10.1567 26.9528 10.4497C26.9528 10.4497 26.9202 10.8729 27.4736 10.8403C27.4736 10.8403 28.1898 10.8078 28.2224 11.4588C28.2224 11.4588 28.32 12.3378 27.2783 12.175C27.2783 12.175 26.9528 12.2076 26.9202 12.4355L26.8877 13.5748C26.8877 13.5748 26.9202 14.1608 26.2691 13.998C26.1715 13.998 22.7208 14.0631 22.4278 13.9655C22.3627 13.998 22.1999 13.9655 22.1674 14.0631Z" fill="#E5E1EA"/>
<path fill-rule="evenodd" clip-rule="evenodd" d="M21.6808 12.9565C21.6808 12.9565 21.2576 12.9565 21.2576 13.5424C21.2576 13.5424 21.2901 13.9656 21.7459 13.9656C21.7459 13.9656 22.1691 13.9005 22.104 13.4448C22.1365 13.4448 21.9086 12.8588 21.6808 12.9565ZM26.8568 6.86893C26.8568 6.86893 26.6289 6.99915 26.694 7.29213L26.6289 10.6126C26.6289 10.6126 26.5964 11.166 27.1172 11.166C27.1172 11.166 27.6706 11.1335 27.8008 11.3288C27.8008 11.3288 28.1915 11.9147 27.3451 11.8496C27.3451 11.8496 26.8242 11.8171 26.694 11.9147C26.694 11.9147 26.5964 12.0124 26.5313 13.0867C26.5313 13.0867 26.5638 13.7377 26.1081 13.6401C26.1081 13.6401 22.9504 13.6726 22.6248 13.6075C22.6248 13.6075 22.2993 13.7052 22.2667 13.4448C22.2667 13.4448 22.2667 13.2494 22.5923 13.2494L25.7825 13.2169C25.7825 13.2169 26.0755 13.3797 26.0755 12.8262C26.0755 12.8262 26.2057 10.3522 26.2057 7.61767C26.2057 6.80383 26.2383 5.95743 26.2057 5.14359C26.2057 5.14359 26.1406 4.7855 26.043 4.7204C26.043 4.7204 26.043 4.36231 26.4336 4.49252C26.4336 4.49252 26.7917 4.52508 26.694 5.04593L26.7266 5.82722C26.7266 5.82722 26.6615 6.18531 27.28 6.08765C27.28 6.08765 27.8985 6.18531 27.9311 6.41319C27.9311 6.41319 28.1264 6.86893 27.3776 6.83638H26.8568V6.86893ZM17.1558 13.6401C16.7001 13.6075 16.7326 13.282 16.7326 13.282V12.403C16.7652 11.9473 16.2769 11.8496 16.2769 11.8496C15.6258 11.9798 15.463 11.5892 15.463 11.5892C15.4305 11.1009 16.2118 11.166 16.2118 11.166C16.8628 11.166 16.6675 10.58 16.6675 10.58L16.7001 7.12936C16.6675 6.80383 15.8211 6.80383 15.8211 6.80383C15.3003 6.90149 15.4305 6.38063 15.4305 6.38063C15.6909 6.1202 16.2443 6.15276 16.2443 6.15276C16.7326 6.18531 16.7326 5.66445 16.7326 5.66445L16.7652 4.7204C17.286 4.23209 17.3837 4.62274 17.3837 4.62274C17.0907 5.07849 17.1558 6.18531 17.1558 6.18531L17.1233 6.08765C17.1558 6.18531 17.0907 12.6309 17.0907 12.6309C17.1233 13.3471 17.6116 13.1843 17.6116 13.1843L20.5739 13.2169C20.8344 13.2169 20.8669 13.4122 20.8669 13.4122C20.8669 13.6401 20.6716 13.6075 20.6716 13.6075H17.1558V13.6401ZM17.7743 12.6309C17.7743 12.6309 17.6767 12.9565 18.0348 12.8913H20.3786L21.0297 13.0216C21.0297 13.0216 21.6808 12.8588 21.0297 12.5007C21.0297 12.5007 18.9463 12.5333 18.7509 12.4682L18.2301 12.3379C18.2301 12.3379 18.0022 12.2728 17.7743 12.6309ZM22.0063 12.7286C22.0063 12.7286 22.2016 12.5007 22.3644 12.5007C22.3644 12.5007 24.6431 12.696 25.0338 12.4356C25.0338 12.4356 25.3919 12.3705 25.457 12.4356C25.457 12.4356 25.7825 12.696 25.7825 12.8588C25.7825 12.8588 25.75 13.0541 25.3593 12.9565C25.3593 12.9565 22.7876 12.989 22.6574 12.989C22.6574 12.989 21.9412 13.1518 22.0063 12.7286ZM17.4488 12.5984C17.4163 12.5984 17.3511 12.5984 17.3186 12.3379L17.3511 5.50169C17.3511 5.50169 17.3837 4.65529 17.8394 4.68785C17.8394 4.68785 17.872 5.1436 17.872 5.27381C17.872 5.37147 17.8069 11.8822 17.8069 11.8822C17.8069 11.8822 17.9046 12.3379 17.4488 12.5984ZM26.043 5.89233L25.9453 12.1426C25.9127 12.3705 25.8802 12.5007 25.8802 12.5007C25.5872 12.5658 25.3919 11.9147 25.3919 11.9147L25.4244 4.7204C25.8151 4.16699 26.043 5.27381 26.043 5.27381V5.89233ZM21.811 4.81806C21.811 4.81806 21.7459 8.26874 21.7784 8.3664L21.7459 11.2637L21.6482 12.2728C21.6482 12.2728 21.7784 12.4682 21.9086 12.3379C21.9086 12.3379 22.6248 12.1426 23.0806 12.2403C23.0806 12.2403 24.5455 12.3705 24.8385 12.1426C24.8385 12.1426 25.0663 12.2728 25.1315 11.8822C25.1315 11.8822 25.2291 5.50168 25.164 5.37147C25.164 5.37147 25.2617 4.45997 25.1966 4.36231C25.1966 4.36231 25.164 4.16699 24.7734 4.32975C24.7734 4.32975 24.8059 4.52508 22.6574 4.42742C22.6574 4.49252 21.8435 4.45997 21.811 4.81806ZM18.1975 4.45997L18.1324 11.7845C18.1324 11.7845 18.0999 12.1101 18.6858 12.2077C18.6858 12.2077 19.3369 12.2728 19.4997 12.2077C19.4997 12.2077 19.9229 12.1752 21.0623 12.2403C21.0623 12.2403 21.3227 12.5007 21.3552 12.1752C21.3552 12.1752 21.5506 6.25042 21.4529 5.01338C21.4529 5.01338 21.4203 4.49253 21.0297 4.45997C21.0297 4.45997 19.3044 4.59019 19.1416 4.45997L18.458 4.26465C18.458 4.26465 18.165 4.26465 18.1975 4.45997Z" fill="#0B0717"/>
<path fill-rule="evenodd" clip-rule="evenodd" d="M20.1828 6.73853C21.0943 7.03151 20.9641 7.68258 20.9641 7.68258C21.0292 8.33365 20.3131 8.62663 20.3131 8.62663L20.2805 8.98472L20.9316 10.0264C21.0292 10.1241 21.0292 10.2218 21.0292 10.2218C20.9316 10.4822 20.5735 10.2218 20.5735 10.2218L19.7596 8.95217C19.6945 8.85451 19.5643 9.01728 19.5643 9.01728L19.5318 9.73346L19.7271 10.059C19.8573 10.2543 19.6294 10.3845 19.6294 10.3845L18.9133 10.3194C18.783 10.2543 18.9133 10.0264 18.9133 10.0264C19.1086 9.92878 19.1086 9.60324 19.1086 9.60324L19.076 8.26855L19.1086 7.32449C19.1086 7.19427 18.9133 6.99895 18.9133 6.99895C18.7505 6.9664 18.8156 6.77108 18.8156 6.77108C18.8481 6.64087 19.2388 6.73853 19.2388 6.73853H20.1828ZM22.6244 6.9013C22.5593 6.70598 23.015 6.70597 23.015 6.70597L23.2429 6.73853C23.4056 6.70598 23.5684 6.77108 23.5684 6.77108C23.7312 7.03151 23.4382 7.16172 23.4382 7.16172L23.3405 7.45471C23.308 7.71514 23.3405 9.86367 23.3405 9.86367C23.3731 9.96133 23.5684 10.1892 23.5684 10.1892C23.5684 10.3845 23.308 10.352 23.308 10.352L22.6569 10.3845C22.4616 10.352 22.5267 10.1241 22.5267 10.1241C22.7546 10.0264 22.8197 9.60324 22.8197 9.60324V7.35704L22.6244 6.9013ZM19.5643 7.22683C19.5969 7.71514 19.5969 8.39876 19.5969 8.39876C20.0201 8.75685 20.2805 8.26855 20.2805 8.26855C20.8339 7.71514 20.2805 7.22683 20.1828 7.09662C20.0852 6.9664 19.6294 7.06406 19.6294 7.06406L19.5643 7.22683ZM14.8115 17.8719C14.8115 17.8719 14.9743 17.8067 15.0068 17.6765C15.0068 17.6765 15.4951 17.644 15.5602 17.5463L17.0577 17.6765C17.0577 17.6765 18.5552 17.7742 19.1737 17.3184C19.1737 17.3184 19.4016 17.3184 19.5643 17.3835C19.5643 17.3835 19.8899 17.4487 19.9875 17.5789L20.8665 17.5463C20.8665 17.5463 21.3548 17.7091 21.3222 18.0346V18.4578C21.3222 18.4578 21.2246 19.2717 21.4524 19.3368H22.1035C22.1035 19.3368 22.6569 19.5972 22.5918 19.8902C22.5918 19.8902 22.6244 20.3459 22.1361 20.4436C22.1361 20.4436 21.6478 20.5738 21.485 20.5738C21.485 20.5738 21.3222 20.7691 21.2897 21.0295L21.2246 24.0245C21.2246 24.0245 21.192 24.35 21.6478 24.2849C21.6478 24.2849 22.3639 24.2198 22.5593 24.6104C22.5593 24.6104 22.7546 25.2615 22.3639 25.3917L22.1035 25.5219L21.5175 25.6196C21.5175 25.6196 21.2571 25.6522 21.2571 26.0753V26.8566C21.2571 26.8566 21.2897 27.41 20.8339 27.41L20.1828 27.4426C20.1828 27.4426 20.0201 27.5728 19.6945 27.4752C19.6945 27.4752 15.8207 27.5403 15.6905 27.5077L15.2347 27.6054C15.2347 27.6054 14.7464 28.0611 14.3232 27.703L13.9977 27.4426C13.9977 27.4426 13.7698 27.4752 13.6721 27.4752C13.5745 27.4426 9.37506 27.5077 9.37506 27.5077C9.37506 27.5077 8.49611 27.6054 8.431 27.3124C8.431 27.3124 8.33334 26.1405 8.3659 26.0102C8.3659 26.0102 8.3659 25.6847 8.17057 25.6522C8.17057 25.6522 7.29163 25.6196 7.25907 25.5219C7.25907 25.5219 6.77077 25.1964 6.90098 24.8383C6.90098 24.8383 7.06375 24.3826 7.55206 24.35C7.55206 24.35 8.26823 24.4802 8.26823 24.2523C8.26823 24.2523 8.30079 24.1221 8.30079 23.8943C8.30079 23.8943 8.33334 21.1923 8.33334 20.997C8.33334 20.997 8.39845 20.6389 8.10547 20.6389C8.10547 20.6389 7.77993 20.7366 7.58461 20.6063C7.58461 20.6063 7.0312 20.6389 6.93354 20.1832C6.93354 20.1832 6.83588 19.9227 6.96609 19.6948C6.96609 19.6948 7.22652 19.2065 7.9427 19.3693C7.9427 19.3693 8.36589 19.4995 8.39845 19.174L8.3659 18.0672C8.3659 18.0672 8.26823 17.7742 8.8542 17.6114C8.8542 17.6114 9.57038 17.8067 9.79825 17.4487C9.79825 17.4487 10.0587 16.9603 10.254 17.2859C10.254 17.2859 10.6772 17.7091 11.8817 17.644C11.8817 17.644 13.9326 17.4812 13.9651 17.5789C13.9651 17.5789 14.4534 17.644 14.6162 17.8067L14.8115 17.8719Z" fill="#E5E1EA"/>
<path fill-rule="evenodd" clip-rule="evenodd" d="M14.6825 26.401C14.6825 26.401 15.0732 26.4661 15.0732 26.8242C15.0732 27.1822 15.1057 27.4101 14.8778 27.4427C14.65 27.4752 14.3895 27.4101 14.3244 27.1171C14.2593 26.8567 14.357 26.4661 14.6825 26.401ZM9.37628 18.1649C9.37628 18.1649 9.11585 18.6532 9.11585 18.7834L9.0833 20.3134C9.0833 20.3134 9.05074 21.29 9.0833 21.4203C9.11585 21.5179 9.05074 24.4152 9.05074 24.4152C9.05074 24.4152 9.01819 24.9686 9.05074 25.1314V26.3684C9.05074 26.3684 9.01819 26.9218 9.40883 26.7916C9.40883 26.7916 13.4129 26.6939 13.6734 26.759C13.6734 26.759 14.0314 26.8241 13.9012 27.0195C13.9012 27.0195 13.9012 27.1822 13.6408 27.1497C13.6408 27.1497 11.7527 27.345 10.0274 27.2473C10.0274 27.2473 8.88798 27.3125 8.82287 27.1822C8.82287 27.1822 8.62755 27.1497 8.62755 26.4986C8.62755 26.4986 8.62755 25.8801 8.59499 25.7824C8.59499 25.7824 8.62755 25.4569 8.07414 25.3918C8.07414 25.3918 7.2603 25.522 7.2603 25.0663C7.2603 25.0663 7.35796 24.7082 8.13925 24.7733C8.13925 24.7733 8.72521 24.8709 8.59499 24.4152L8.6601 21.0296C8.6601 21.0296 8.72521 20.4437 8.33457 20.4111C8.33457 20.4111 7.97648 20.3785 7.84626 20.4436C7.84626 20.4436 7.19519 20.4436 7.22774 20.053C7.22774 20.053 7.45562 19.6298 8.10669 19.7275C8.10669 19.7275 8.595 19.8251 8.62755 19.2392C8.62755 19.2392 8.59499 18.0672 8.88798 18.0347C8.95308 18.0021 9.53905 18.0021 9.37628 18.1649ZM20.477 18.0021C20.5422 17.9696 20.8677 17.9045 20.9328 18.0347C20.9328 18.0347 21.1281 18.5881 20.9654 18.9136C20.9654 18.9136 20.9328 19.5647 21.2583 19.5647C21.2583 19.5647 21.3885 19.6949 21.6815 19.6298C21.6815 19.6298 22.2675 19.6949 22.2675 19.8902C22.2675 19.8902 22.2675 20.3134 21.8443 20.2483L21.2909 20.2809C21.2909 20.2809 20.9328 20.346 20.9654 20.7692C20.9979 21.1924 20.9328 24.3175 20.9328 24.3175C20.9328 24.3175 20.9328 24.6756 21.5188 24.6756C21.5188 24.6756 22.2349 24.6431 22.2349 24.8709C22.2349 24.8709 22.4303 25.3267 21.9094 25.3592C21.9094 25.3592 20.9654 25.3267 21.0305 25.6197C21.0305 25.6197 20.9654 26.2707 20.9002 26.3684C20.9002 26.3684 20.9979 26.8893 20.8677 26.9869C20.8677 26.9869 20.8026 27.2799 20.1841 27.2473C20.1841 27.2473 16.2451 27.2148 15.6591 27.2799C15.6591 27.2799 15.301 27.2473 15.3987 26.9218C15.3987 26.9218 15.6591 26.7916 15.8544 26.8242C16.0498 26.8567 18.7192 26.7916 18.7192 26.7916C18.7192 26.7916 19.8911 26.8893 20.0539 26.7265L20.3143 26.6288C20.3143 26.6288 20.4445 26.4986 20.4445 26.3033C20.4445 26.108 20.477 25.4895 20.477 25.4895L20.5422 25.2616C20.5422 25.2616 20.5096 25.0337 20.5422 18.9462C20.5422 18.9462 20.6398 18.4579 20.3468 18.1649C20.3468 18.1649 20.3468 17.9696 20.4445 18.0021H20.477ZM18.6866 26.0103C18.7192 26.0103 19.24 26.0103 19.4028 25.815C19.4028 25.815 19.5655 25.7824 19.6632 25.9452L19.9887 26.3033C19.9887 26.3033 20.0213 26.5312 19.6307 26.4986C19.5655 26.4986 15.9196 26.4986 15.7893 26.5312C15.7893 26.5312 15.0732 26.6288 15.1383 26.2707C15.1383 26.2707 15.5615 26.0103 15.7242 26.0429C15.7242 26.0429 17.8077 26.1731 18.4262 26.0754C18.7192 26.0103 18.7843 26.0103 18.7843 26.0103H18.6866ZM10.0599 25.7173C10.0599 25.7173 10.125 25.7824 10.2227 25.8475C10.3529 25.9452 10.6133 26.0429 10.9063 26.0429L13.9989 26.0754H14.0314C14.0314 26.0754 14.3895 26.108 14.357 26.2707C14.357 26.2707 14.3244 26.5312 13.9012 26.4661L10.1576 26.4335L9.76692 26.4661C9.76692 26.4661 9.5065 26.4335 9.92969 25.8801L10.0599 25.7173ZM9.83203 25.3918C9.83203 25.5546 9.79948 25.8475 9.50649 26.0429C9.50649 26.0429 9.31117 26.3033 9.31117 25.9127L9.40883 18.8811C9.40883 18.8811 9.44139 18.3602 9.76692 18.1323C9.76692 18.1323 9.92969 18.1323 9.89714 18.3928L9.83203 25.2941V25.3918ZM20.0539 26.0429C19.9236 25.9778 19.6307 25.4569 19.6307 25.4569L19.6632 25.2941L19.6958 18.2951C19.6958 17.937 19.9887 18.1649 19.9887 18.1649L20.2492 18.6532C20.1841 19.0113 20.2492 19.2392 20.2492 19.2392L20.2166 25.815C20.2817 26.2707 20.0864 26.0754 20.0539 26.0429ZM14.5849 22.2992C14.5849 22.2992 14.6174 22.8526 14.5523 23.3735C14.5197 23.6665 14.65 25.0012 14.5197 25.6848C14.5197 25.6848 14.4872 25.9126 14.0314 25.7173C14.0314 25.7173 11.1016 25.7824 11.0365 25.6848C11.0365 25.6848 10.2227 25.7173 10.1576 25.2941C10.1576 25.2941 10.2552 22.169 10.1901 22.0388C10.1901 22.0388 10.1576 20.3134 10.1901 20.1832C10.1901 20.1832 10.2552 18.6206 10.2227 18.4253C10.2227 18.4253 10.2552 18.0672 10.1901 17.8719C10.1901 17.8719 10.1901 17.644 10.5808 17.7743C10.5808 17.7743 10.711 18.0347 11.4597 17.9045C11.4597 17.9045 12.0131 18.0021 12.534 17.937C12.534 17.937 13.7059 17.8394 13.9989 17.937C13.9989 17.937 14.4546 17.8394 14.5849 18.3602L14.5523 19.76L14.6825 20.2158L14.8453 20.1181L14.9104 19.76L14.9429 18.2626C14.9429 18.2626 15.0406 18.0021 15.3987 17.937C15.3987 17.937 15.9847 17.8719 16.0498 17.9045C16.1474 17.937 17.3845 18.0021 17.71 17.937C18.0355 17.8719 18.1332 18.1649 19.1424 17.644C19.1424 17.644 19.4028 17.6766 19.4028 17.8394C19.4028 17.8394 19.3051 19.7926 19.4028 20.1507C19.4028 20.1507 19.4028 23.699 19.3377 23.9594L19.3702 25.0988C19.3702 25.0988 19.4028 25.5871 18.6215 25.6522C18.6215 25.6522 19.1098 25.7173 15.9847 25.6197C15.9847 25.6197 15.4964 25.5871 14.9429 25.8475C14.9429 25.8475 14.8453 25.815 14.8453 25.522C14.8453 25.522 14.9429 24.4477 14.8453 23.406L14.8127 22.2341L14.5849 22.2992Z" fill="#0B0717"/>
<path fill-rule="evenodd" clip-rule="evenodd" d="M12.5341 20.6716C12.5341 20.6716 12.5992 22.3644 12.5341 22.5923L12.5016 22.9503C12.5016 22.9503 12.5992 23.2108 12.7294 23.2759C12.7294 23.2759 12.8596 23.6014 12.5667 23.5689C12.5667 23.5689 12.0132 23.5363 11.8505 23.5363C11.8505 23.5363 11.5249 23.5363 11.8505 23.1131C11.8505 23.1131 11.9481 22.9503 11.9481 22.5271C11.9481 22.5271 11.9481 20.6065 11.9807 20.5088C11.9807 20.5088 12.0132 20.2484 11.8505 20.1833L11.5901 20.2158L11.2645 20.5414C11.2645 20.5414 11.1994 20.8995 11.0366 20.5088V20.3135L11.232 19.7601L11.3622 19.7275C11.3622 19.7275 11.5575 19.8578 11.7528 19.9229H12.8271L13.2177 19.7275C13.2177 19.7275 13.3805 19.7601 13.3479 19.9554C13.3479 19.9554 13.4131 20.4763 13.1201 20.5414C13.1201 20.5414 12.9248 20.4763 12.8596 20.2158C12.8271 20.3135 12.5341 20.1507 12.5341 20.6716ZM17.5474 20.0856C17.5474 20.0856 16.6684 20.0205 16.6684 20.9646C16.6684 20.9646 16.5707 21.6156 17.5474 22.0063C17.5474 22.0063 18.2635 22.3318 18.1984 22.7876C18.1984 22.7876 18.1008 23.5689 17.352 23.1782C17.352 23.1782 16.9939 22.9829 17.0265 22.7876C17.0265 22.7876 16.8963 22.5271 16.7661 22.5923C16.7661 22.5923 16.6033 22.6248 16.6684 23.4061C16.6684 23.4061 16.6684 23.6991 16.9939 23.4061L17.1893 23.4386C17.1893 23.4386 17.8078 23.9269 18.3286 23.3084C18.3286 23.3084 18.9146 22.7876 18.4914 22.1365C18.4914 22.1365 18.1984 21.6808 17.6776 21.4529C17.6776 21.4529 17.1893 21.225 17.0591 20.8344C17.0591 20.8344 17.2218 20.1507 17.8403 20.5088C17.8403 20.5088 18.0682 20.7693 18.1984 20.8344C18.1984 20.8344 18.3937 20.8344 18.3286 20.4112L18.2961 20.0856C18.2961 20.0856 18.2635 19.8252 17.938 20.0856C17.938 20.0856 17.645 20.1833 17.5474 20.0856ZM14.7803 19.5973C14.9431 19.7275 14.9756 19.9554 14.9756 19.9554C15.4314 21.1599 15.822 22.9178 15.822 22.9178C15.9197 23.1457 16.1476 23.341 16.1476 23.341C16.5382 23.4712 16.1476 23.6014 16.1476 23.6014C15.9848 23.6665 15.4639 23.5689 15.4639 23.5689C15.2035 23.5038 15.3012 23.4386 15.3012 23.4386C15.4314 23.341 15.3337 22.8527 15.3337 22.8527C15.3012 22.6574 15.1058 22.3644 15.1058 22.3644C15.0082 22.3318 14.8454 22.5271 14.8454 22.5271C14.8454 22.5271 14.585 22.6248 14.585 22.5271C14.5524 22.4295 14.3897 22.3644 14.3897 22.3644C14.1292 22.3644 13.999 23.048 13.999 23.048C14.1618 23.634 13.999 23.5363 13.999 23.5363C13.8688 23.7316 13.4131 23.6014 13.4131 23.6014C13.2177 23.5363 13.3479 23.4061 13.3479 23.4061C13.6084 23.3735 13.6735 23.0806 13.6735 23.0806C13.8037 22.9178 14.5199 19.9554 14.5199 19.9554C14.585 19.7601 14.6175 19.4671 14.7803 19.5973ZM14.4222 21.0948C14.3897 21.225 14.2269 21.8435 14.2269 21.8435L14.3571 22.0714C14.3571 22.0714 14.7152 22.104 14.8454 22.104C14.9756 22.104 15.0082 22.0063 15.0082 21.8761C15.0082 21.7784 14.7477 21.0948 14.7477 21.0948L14.6175 20.9646L14.4222 21.0948ZM8.59512 14.0632C8.59512 14.0632 8.3347 14.8771 7.22787 14.0307L3.38655 13.933C3.38655 13.933 2.89825 14.0958 2.80059 13.5749C2.80059 13.5749 2.89825 12.5332 2.83314 12.4355C2.83314 12.4355 2.86569 12.1426 2.34484 12.1426C2.34484 12.1426 1.56355 12.2402 1.56355 11.5566C1.56355 11.5566 1.43334 10.8079 2.50761 10.8404C2.50761 10.8404 2.83314 11.0032 2.86569 10.58C2.86569 10.58 2.83314 7.61761 2.83314 7.38973C2.83314 7.38973 2.9308 7.1293 2.40994 7.0642C2.40994 7.0642 1.66121 7.22696 1.56355 6.70611C1.56355 6.70611 1.531 5.95737 2.0193 5.89227C2.0193 5.89227 2.63782 5.92482 2.73548 5.79461C2.73548 5.79461 2.86569 5.89227 2.83314 5.33886L2.86569 4.3948C2.86569 4.3948 2.9308 4.13437 3.32144 4.16693C3.32144 4.16693 4.03762 4.19948 4.13528 4.13438C4.13528 4.13438 4.29805 3.93905 4.33061 3.84139C4.33061 3.84139 4.6887 3.80884 4.7538 3.9065C4.7538 3.9065 5.30721 4.26459 7.39064 4.13438C7.39064 4.13438 7.71618 4.13437 7.78128 4.23203C7.78128 4.23203 8.17193 4.52502 8.3998 4.19948C8.3998 4.19948 8.75789 4.13437 9.76705 4.16693C9.76705 4.16693 10.8739 4.45991 11.6552 3.84139L11.9156 3.87395C11.9156 3.87395 12.2411 4.3948 12.469 4.23203C12.469 4.23203 13.1526 4.16693 13.2828 4.29714C13.2828 4.29714 13.5107 4.65523 13.3805 5.53418C13.3805 5.53418 13.2503 5.92482 13.9014 5.92482C13.9014 5.92482 14.6501 5.79461 14.5524 6.47823C14.5524 6.47823 14.7478 7.29207 13.5107 7.16185C13.5107 7.16185 13.3479 7.38973 13.3805 7.5525C13.3805 7.5525 13.3479 10.1568 13.3479 10.4498C13.3479 10.4498 13.3154 10.873 13.8688 10.8404C13.8688 10.8404 14.585 10.8079 14.6175 11.4589C14.6175 11.4589 14.7152 12.3379 13.6735 12.1751C13.6735 12.1751 13.3479 12.2077 13.3154 12.4355L13.2828 13.5749C13.2828 13.5749 13.3154 14.1609 12.6643 13.9981C12.5667 13.9981 9.11598 14.0632 8.823 13.9656C8.79045 13.9981 8.66023 13.9656 8.59512 14.0632Z" fill="#E5E1EA"/>
<path fill-rule="evenodd" clip-rule="evenodd" d="M4.2982 4.65508C4.2982 4.65508 4.33075 5.11083 4.33075 5.20849C4.33075 5.30615 4.26565 11.8169 4.26565 11.8169C4.26565 11.8169 4.33076 12.3052 3.90756 12.5656C3.90756 12.5656 3.8099 12.5982 3.77734 12.3052L3.8099 5.46892C3.8099 5.46892 3.84245 4.62253 4.2982 4.65508ZM11.8506 4.75274L11.8181 11.9471C11.8181 11.9471 12.0134 12.5982 12.3064 12.533C12.3064 12.533 12.3389 12.4028 12.3715 12.175L12.4691 5.30615C12.4691 5.2736 12.2413 4.19933 11.8506 4.75274Z" fill="#231F20" stroke="#0B0717" stroke-width="0.0605494"/>
<path fill-rule="evenodd" clip-rule="evenodd" d="M8.03949 13.0215C8.03949 13.0215 7.61629 13.0216 7.61629 13.575C7.61629 13.575 7.64885 13.9982 8.1046 13.9982C8.1046 13.9982 8.5278 13.9331 8.46269 13.4773C8.49524 13.5099 8.26737 12.9239 8.03949 13.0215ZM13.2806 6.86892C13.2806 6.86892 13.0527 6.99914 13.1179 7.29212L13.0527 10.6126C13.0527 10.6126 13.0202 11.1985 13.541 11.166C13.541 11.166 14.127 11.1334 14.2247 11.3288C14.2247 11.3288 14.6153 11.9147 13.7689 11.8496C13.7689 11.8496 13.2481 11.8171 13.1179 11.9147C13.1179 11.9147 13.0202 12.0449 12.9551 13.0867C12.9551 13.0867 12.9876 13.7377 12.5319 13.6726C12.5319 13.6726 9.37419 13.7052 9.08121 13.6401C9.08121 13.6401 8.75567 13.7377 8.72312 13.4773C8.72312 13.4773 8.72312 13.282 9.04865 13.282L12.2389 13.2494C12.2389 13.2494 12.5319 13.4122 12.5319 12.8588C12.5319 12.8588 12.6621 10.3847 12.6621 7.61766C12.6621 6.80382 12.6947 5.95742 12.6621 5.14358C12.6621 5.14358 12.597 4.81805 12.4993 4.72038C12.4993 4.72038 12.4993 4.3623 12.89 4.49251C12.89 4.49251 13.2155 4.52506 13.1504 5.04592L13.183 5.85976C13.183 5.85976 13.1179 6.1853 13.7364 6.12019C13.7364 6.12019 14.3549 6.21785 14.3874 6.44572C14.3874 6.44572 14.5828 6.90148 13.834 6.86892H13.2806ZM3.57965 13.6401C3.1239 13.6075 3.15646 13.282 3.15646 13.282V12.403C3.18901 11.9473 2.7007 11.8496 2.7007 11.8496C2.04963 11.9798 1.88687 11.5892 1.88687 11.5892C1.85431 11.1009 2.6356 11.166 2.6356 11.166C3.28667 11.166 3.09135 10.58 3.09135 10.58L3.1239 7.12935C3.09135 6.80382 2.24495 6.80382 2.24495 6.80382C1.7241 6.90148 1.85431 6.38062 1.85431 6.38062C2.11474 6.12019 2.66815 6.15274 2.66815 6.15274C3.15646 6.1853 3.15646 5.66444 3.15646 5.66444L3.18901 4.72038C3.70987 4.23208 3.80753 4.62273 3.80753 4.62273C3.51454 5.07848 3.57965 6.1853 3.57965 6.1853L3.5471 6.08764C3.57965 6.21785 3.51454 12.6309 3.51454 12.6309C3.5471 13.3471 4.0354 13.1843 4.0354 13.1843L6.99778 13.2169C7.25821 13.2169 7.29076 13.4122 7.29076 13.4122C7.29076 13.6401 7.09544 13.6075 7.09544 13.6075L3.57965 13.6401ZM4.39349 12.9564C4.06796 13.0215 4.13306 12.696 4.13306 12.696C4.32838 12.3054 4.55626 12.403 4.55626 12.403C4.65392 12.4356 5.07712 12.5332 5.07712 12.5332C5.27244 12.5658 7.35587 12.5658 7.35587 12.5658C8.00694 12.9239 7.35587 13.0867 7.35587 13.0867L6.7048 12.9564H4.39349ZM8.36503 12.7937C8.36503 12.7937 8.56035 12.5658 8.72312 12.5658C8.72312 12.5658 11.0019 12.7611 11.3925 12.5007C11.3925 12.5007 11.7506 12.4356 11.8157 12.5007C11.8157 12.5007 12.1738 12.7611 12.1738 12.9239C12.1738 12.9239 12.1412 13.1192 11.7506 13.0215C11.7506 13.0215 9.17887 13.0541 9.04865 13.0541C9.0161 13.0541 8.29992 13.2169 8.36503 12.7937ZM4.29583 4.65528C4.29583 4.65528 4.32838 5.11103 4.32838 5.20869C4.32838 5.30635 4.26328 11.8171 4.26328 11.8171C4.26328 11.8171 4.32839 12.3054 3.90519 12.5658C3.90519 12.5658 3.80753 12.5984 3.77497 12.3054L3.80753 5.46912C3.80753 5.46912 3.84008 4.62272 4.29583 4.65528ZM11.8483 4.75294L11.8157 11.9473C11.8157 11.9473 12.011 12.5984 12.304 12.5332C12.304 12.5332 12.3366 12.403 12.3691 12.1752L12.4668 5.30635C12.4668 5.2738 12.2389 4.19953 11.8483 4.75294ZM8.23481 4.7855C8.23481 4.7855 8.16971 8.23617 8.20226 8.33383L8.16971 11.2311L8.07205 12.2403C8.07205 12.2403 8.20226 12.4356 8.33248 12.3054C8.33248 12.3054 9.04865 12.11 9.5044 12.2077C9.5044 12.2077 10.9693 12.3379 11.2623 12.1101C11.2623 12.1101 11.4902 12.2077 11.5553 11.8496C11.5553 11.8496 11.6529 5.46912 11.5878 5.33891C11.5878 5.33891 11.6855 4.4274 11.6204 4.32974C11.6204 4.32974 11.5878 4.13442 11.1972 4.29719C11.1972 4.29719 11.2297 4.49251 9.08121 4.4274C9.11376 4.45996 8.26737 4.42741 8.23481 4.7855ZM4.62137 4.45996L4.55626 11.7845C4.55626 11.7845 4.52371 12.11 5.10967 12.2077C5.10967 12.2077 5.76074 12.2728 5.92351 12.2077C5.92351 12.2077 6.34671 12.1752 7.48608 12.2403C7.48608 12.2403 7.74651 12.5007 7.77906 12.1752C7.77906 12.1752 7.97439 6.25041 7.87672 5.01337C7.87672 5.01337 7.84417 4.49251 7.45353 4.45996C7.45353 4.45996 5.72819 4.59017 5.56542 4.45996L4.8818 4.26464C4.8818 4.26464 4.58881 4.26464 4.62137 4.45996Z" fill="#0B0717"/>
<path fill-rule="evenodd" clip-rule="evenodd" d="M8.85387 7.25937L8.82131 9.66834L8.75621 9.86366C8.75621 9.86366 8.52833 10.1566 8.6911 10.1892C8.6911 10.1892 8.49578 10.3194 10.156 10.352C10.156 10.352 10.8071 10.4496 10.6443 9.63579C10.6443 9.63579 10.5792 9.3428 10.3513 9.766C10.3513 9.766 10.2862 10.1241 9.47239 10.0264C9.47239 10.0264 9.27707 9.86366 9.27707 9.70089V8.69174C9.27707 8.69174 9.24451 8.4313 9.63515 8.46386C9.63515 8.46386 10.0584 8.72428 10.1235 8.62662C10.1235 8.62662 10.2862 8.26854 10.1235 8.04066C10.1235 8.04066 9.92813 8.00811 9.89558 8.10577C9.89558 8.10577 9.76537 8.3662 9.37472 8.20343C9.37472 8.20343 9.1794 7.84534 9.30962 7.55236C9.30962 7.55236 9.27706 6.96639 9.66771 7.0315C9.66771 7.0315 10.1235 7.12916 10.156 7.25937C10.156 7.25937 10.2537 7.51981 10.3839 7.22682L10.2537 6.83618C10.2537 6.83618 10.1886 6.67341 10.0583 6.70596C10.0583 6.70596 9.27706 6.83618 9.1794 6.73852L8.56088 6.80363C8.56088 6.80363 8.46322 7.0315 8.75621 7.12916C8.78876 7.12916 8.85387 7.19427 8.85387 7.25937ZM7.51917 6.90129L7.32385 7.32448C7.32385 7.32448 6.83555 9.53813 6.54256 9.99388C6.54256 9.99388 6.51001 10.4496 6.11937 10.0915C6.11937 10.0915 5.24042 7.29193 5.17531 7.19427L4.88233 6.99895C4.88233 6.99895 4.68701 6.73852 5.01254 6.73852L5.85894 6.77107C5.85894 6.77107 6.11937 6.99895 5.76128 7.25937C5.76128 7.25937 5.79383 7.61747 6.28213 9.01727C6.28213 9.01727 6.41235 9.53813 6.57512 9.14748L7.03087 7.5198L6.90065 7.0315C6.90065 7.0315 6.77044 6.80362 6.96576 6.77107C6.99831 6.77107 7.45406 6.73852 7.51917 6.90129Z" fill="#E5E1EA"/>
<path fill-rule="evenodd" clip-rule="evenodd" d="M54.8531 25.229C54.8531 24.936 54.6578 24.7081 54.2346 24.6104V24.4151L55.4391 24.4477C55.6344 24.4477 56.3506 24.4151 56.5785 24.4151V24.6104C56.1878 24.6756 55.9925 24.9034 55.9925 25.229V29.1028C55.9925 30.3399 56.6761 31.0235 58.0759 31.0235C59.2804 31.0235 60.257 30.4701 60.257 29.2005V25.1964C60.257 24.9034 60.0617 24.6756 59.606 24.5779V24.3826C59.7687 24.3826 60.3872 24.4151 60.6151 24.4151L61.6243 24.3826V24.5779C61.1685 24.6756 60.9732 24.8709 60.9732 25.1964V28.9726C60.9732 30.6654 59.9966 31.642 57.8481 31.642C55.8623 31.642 54.8531 30.7305 54.8531 29.1354V25.229ZM63.3496 31.349C63.8054 31.2514 64.0007 31.0235 64.0007 30.7305V25.3592C64.0007 24.9034 63.7728 24.7081 63.3496 24.5779V24.3826C63.5775 24.4151 63.9681 24.4151 64.1635 24.4151C64.3588 24.4151 64.6192 24.4151 64.8145 24.3826L69.4697 29.8516V25.1639C69.4697 24.8709 69.2744 24.643 68.8186 24.5453V24.35C68.9814 24.35 69.5999 24.3826 69.7952 24.3826L70.8044 24.35V24.5453C70.3486 24.643 70.1533 24.8383 70.1533 25.1639V31.6095H69.8603C69.6976 31.5769 69.3395 31.3816 68.8512 30.8282L64.6843 25.9777V30.698C64.6843 30.9909 64.8471 31.2188 65.3028 31.3165V31.5118C65.1401 31.5118 64.5215 31.4793 64.3262 31.4793L63.3496 31.5118V31.349ZM100.103 29.8841H100.298C100.396 30.2748 100.623 30.6654 100.949 30.8607C101.275 31.0886 101.795 31.2188 102.219 31.2188C103.163 31.2188 103.749 30.7631 103.749 30.0143C103.749 29.2656 103 28.875 102.088 28.4192C101.405 28.0937 100.07 27.5077 100.07 26.2381C100.07 25.0336 100.982 24.2849 102.446 24.2849C103.423 24.2849 103.879 24.5128 104.53 24.4802V25.9451H104.335C104.074 25.0988 103.293 24.7732 102.446 24.7732C101.502 24.7732 101.144 25.3266 101.144 25.88C101.144 26.6613 101.926 27.0845 102.805 27.4752C103.781 27.9309 104.855 28.4843 104.855 29.7214C104.855 30.8933 103.944 31.7397 102.251 31.7397C101.242 31.7397 100.656 31.4467 100.135 31.3816L100.103 29.8841ZM120.123 28.582L118.235 25.5545C117.909 25.0336 117.649 24.7407 117.291 24.6104V24.4151C117.551 24.4151 118.268 24.4477 118.463 24.4477C118.658 24.4477 119.407 24.4151 119.667 24.4151V24.6104C119.439 24.643 119.309 24.7732 119.309 24.9685C119.309 25.1313 119.407 25.3266 119.537 25.5219C119.635 25.6847 120.937 27.8333 120.937 27.8333L122.272 25.5219C122.402 25.2941 122.499 25.0662 122.499 24.9034C122.499 24.7732 122.402 24.643 122.174 24.6104V24.4151C122.402 24.4151 122.89 24.4477 123.02 24.4477C123.183 24.4477 123.737 24.4151 123.964 24.4151V24.6104C123.444 24.8383 123.118 25.2615 122.825 25.8149L121.1 28.7122M121.197 28.289V30.7305C121.197 30.9584 121.393 31.2839 121.783 31.349V31.5444L120.579 31.5118C120.383 31.5118 119.667 31.5444 119.407 31.5444V31.349C119.83 31.2839 120.025 30.9584 120.025 30.7305V28.4192" fill="#E5E1EA"/>
<path fill-rule="evenodd" clip-rule="evenodd" d="M84.8677 24.3825H89.3276C89.4578 24.3825 89.7182 24.3825 89.8484 24.3174H90.0438L90.0112 25.7497H89.8159C89.6531 25.294 89.4578 24.9359 88.6114 24.9359H86.6907V27.4425H88.1882C88.4161 27.4425 88.6765 27.41 88.7742 27.41C89.0997 27.3449 89.2625 27.1495 89.3276 26.8566H89.5229C89.5229 27.0844 89.5229 27.5727 89.5229 27.703C89.5229 27.8657 89.5229 28.3866 89.5229 28.6145H89.3276C89.2299 28.3215 89.0997 28.1261 88.7742 28.0285C88.6765 27.9959 88.3835 27.9634 88.1882 27.9634H86.6907V30.9258H88.7742C89.6857 30.9258 89.9461 30.5351 90.174 30.0143L90.3693 30.0468L90.174 31.5443C89.4903 31.4792 89.0672 31.4792 88.3184 31.4792H86.1048L84.8677 31.5117V31.3164C85.2584 31.2513 85.4863 31.056 85.4863 30.6653V25.1963C85.4863 24.8708 85.2909 24.6429 84.8677 24.5778V24.3825ZM73.5065 25.2614C73.5065 24.9033 73.2787 24.708 72.8555 24.6104V24.415L74.0925 24.4476C74.2878 24.4476 75.0691 24.415 75.3295 24.415V24.6104C74.9063 24.708 74.6785 24.8708 74.6785 25.2614V30.6979C74.6785 31.056 74.9063 31.2513 75.3295 31.349V31.5443L74.0925 31.5117C73.8972 31.5117 73.0833 31.5443 72.8555 31.5443V31.349C73.2787 31.2513 73.5065 31.0885 73.5065 30.6979V25.2614ZM107.265 25.2614C107.265 24.9033 107.037 24.708 106.614 24.6104V24.415L107.851 24.4476C108.046 24.4476 108.827 24.415 109.088 24.415V24.6104C108.664 24.708 108.437 24.8708 108.437 25.2614V30.6979C108.437 31.056 108.664 31.2513 109.088 31.349V31.5443L107.851 31.5117C107.655 31.5117 106.841 31.5443 106.614 31.5443V31.349C107.037 31.2513 107.265 31.0885 107.265 30.6979V25.2614ZM113.45 24.415C111.008 24.415 110.618 24.3825 110.129 24.3499V25.8148H110.325C110.52 25.1638 110.878 25.001 111.334 25.001H112.864V30.6653C112.864 31.056 112.668 31.2513 112.213 31.3164V31.5117C112.441 31.5117 113.254 31.4792 113.45 31.4792L114.687 31.5117V31.3164C114.264 31.2187 114.036 31.0234 114.036 30.6653V25.001H115.566C116.054 25.001 116.412 25.1638 116.575 25.8148H116.77V24.3499C116.249 24.3825 115.859 24.415 113.45 24.415Z" fill="#E5E1EA"/>
<path fill-rule="evenodd" clip-rule="evenodd" d="M93.98 30.698C93.98 31.0561 94.2079 31.2514 94.6311 31.349V31.5444L93.394 31.5118C93.1987 31.5118 92.45 31.5444 92.1895 31.5444V31.349C92.5802 31.2839 92.8081 31.0886 92.8081 30.698V25.229C92.8081 24.9034 92.6127 24.6755 92.1895 24.6104V24.4151L93.394 24.4477C93.7521 24.4477 94.7287 24.3826 95.1194 24.3826C96.8121 24.3826 97.7888 25.0987 97.7888 26.3032C97.7888 27.2473 97.0726 27.8984 95.9983 28.1588C95.9983 28.1588 96.2587 28.289 96.4866 28.582C96.7796 28.9401 97.5934 30.112 97.9515 30.5026C98.2771 30.9258 98.7328 31.3816 99.1886 31.3816V31.5444C98.9607 31.5769 98.6026 31.642 98.3422 31.642C97.7562 31.642 97.3004 31.4467 96.8447 30.8933C96.4541 30.405 95.803 29.4284 95.4123 28.9401C95.1519 28.6145 94.8589 28.3867 94.3055 28.289C94.2079 28.2564 94.1102 28.2564 93.98 28.2564V30.698ZM93.98 27.7681C94.2079 27.8007 94.5334 27.8007 94.8589 27.8007C96.1936 27.8007 96.6168 27.0194 96.6168 26.3358C96.6168 25.3592 95.9658 24.7732 94.7938 24.7732C94.5659 24.7732 94.2079 24.8058 93.9474 24.8383V27.7681H93.98ZM77.0521 25.2941C76.8894 24.936 76.6615 24.7081 76.2383 24.6104V24.4151C76.4987 24.4151 77.3777 24.4477 77.573 24.4477C77.7357 24.4477 78.517 24.4151 78.7775 24.4151V24.6104C78.5496 24.643 78.2892 24.7732 78.2892 25.0336C78.2892 25.1964 78.3868 25.4243 78.5821 25.88L80.4377 30.0794L82.1956 25.88C82.3258 25.5545 82.4235 25.2941 82.4235 25.0662C82.4235 24.8383 82.2281 24.6756 81.9352 24.643V24.4477C82.163 24.4477 82.749 24.4802 82.9118 24.4802C83.0745 24.4802 83.7256 24.4477 83.986 24.4477V24.643C83.5628 24.7732 83.3024 25.0011 83.042 25.5545L80.4702 31.6095H79.8843L77.0521 25.2941Z" fill="#E5E1EA"/>
</svg>
