<svg width="207" height="41" viewBox="0 0 207 41" fill="none" xmlns="http://www.w3.org/2000/svg">
<path d="M57.0043 28.5114C54.5712 28.5114 52.8183 27.9149 51.745 26.7208C50.6716 25.5273 50.1352 23.636 50.1352 21.0471C50.1352 18.4582 50.7005 16.7324 51.831 15.6112C52.9615 14.4893 54.6431 13.9286 56.8759 13.9286C57.9345 13.9286 58.9508 14.0515 59.924 14.2954C60.8966 14.5399 61.8698 14.8776 62.8437 15.3092V11.2539C61.8698 10.8223 60.8112 10.4987 59.6665 10.2833C58.5213 10.0678 57.3766 9.95972 56.232 9.95972C54.8864 9.95972 53.5771 10.1468 52.3035 10.5204C51.0298 10.8945 49.8919 11.52 48.8904 12.3974C47.8883 13.2754 47.1012 14.4467 46.5292 15.9137C45.956 17.3807 45.6709 19.2078 45.6709 21.3929C45.6709 23.578 45.9713 25.2976 46.5722 26.7214C47.1731 28.1452 47.9817 29.2819 48.9979 30.1297C50.0135 30.9786 51.1514 31.5899 52.411 31.9635C53.6699 32.337 54.9577 32.5241 56.275 32.5241C57.5057 32.5241 58.6644 32.4086 59.7526 32.179C60.8401 31.9493 61.8846 31.6041 62.8867 31.1435V27.0882C62.0283 27.4913 61.0981 27.8291 60.096 28.102C59.0939 28.3755 58.0635 28.512 57.0049 28.512L57.0043 28.5114Z" fill="white"/>
<path d="M89.7484 12.2677C89.1905 11.7071 88.5527 11.2613 87.8382 10.9303C87.1224 10.6 86.3568 10.3555 85.5409 10.1968C84.7255 10.0387 83.9164 9.95972 83.1152 9.95972C81.4839 9.95972 79.9018 10.1258 78.3713 10.4561C76.8402 10.7871 75.6734 11.2261 74.8723 11.7719V16.0001C75.7023 15.3098 76.761 14.7708 78.0494 14.3824C79.3372 13.9941 80.582 13.8002 81.7844 13.8002C83.4728 13.8002 84.7747 14.1528 85.6914 14.8573C86.6069 15.5624 87.0652 16.6769 87.0652 18.2007V20.245C86.7341 20.0487 86.3722 19.8622 85.9703 19.6894C85.2687 19.3874 84.4816 19.1503 83.6092 18.9774C82.7355 18.8052 81.7561 18.7187 80.668 18.7187C79.0367 18.7187 77.634 18.9774 76.4605 19.4955C75.2864 20.0135 74.385 20.7896 73.7559 21.8251C73.1261 22.8605 72.8115 24.1837 72.8115 25.7946C72.8115 27.1468 73.0616 28.2755 73.563 29.1813C74.0631 30.0871 74.7359 30.799 75.5807 31.317C76.4243 31.835 77.3625 32.2018 78.3928 32.4173C79.4232 32.6328 80.4966 32.7408 81.6123 32.7408C83.5016 32.7408 85.19 32.6037 86.6788 32.3308C88.1669 32.0579 89.3471 31.5399 90.2208 30.7774C91.0939 30.0154 91.5301 28.93 91.5301 27.5204V17.1659C91.5301 16.073 91.3722 15.124 91.0577 14.3182C90.7425 13.5131 90.3062 12.8296 89.7484 12.2689V12.2677ZM85.8628 28.8565C85.061 29.0874 83.8156 29.2016 82.1272 29.2016C81.326 29.2016 80.5605 29.0794 79.8305 28.8349C79.1006 28.591 78.4924 28.2026 78.0057 27.6698C77.5185 27.1382 77.2758 26.4405 77.2758 25.5773C77.2758 24.4276 77.6979 23.5644 78.5427 22.989C79.3863 22.4141 80.625 22.1258 82.2562 22.1258C83.4869 22.1258 84.6315 22.277 85.6908 22.579C86.1983 22.7235 86.6554 22.884 87.0646 23.0587V27.2604C87.0646 28.0952 86.6634 28.6268 85.8628 28.8565Z" fill="white"/>
<path d="M107.78 21.1772C107.121 20.7179 106.406 20.3647 105.633 20.1202C104.86 19.8763 104.116 19.6386 103.401 19.4083C102.628 19.1786 101.905 18.9489 101.233 18.718C100.56 18.4883 100.016 18.1722 99.6015 17.769C99.1862 17.3664 98.9791 16.82 98.9791 16.1297C98.9791 15.3245 99.3508 14.7133 100.095 14.2959C100.839 13.8791 101.769 13.6704 102.886 13.6704C104.087 13.6704 105.146 13.8717 106.063 14.2743C106.978 14.6774 107.951 15.1523 108.982 15.6981L108.939 11.815C108.023 11.3266 107.086 10.9092 106.127 10.5641C105.168 10.2189 103.93 10.0324 102.414 10.0034C101.498 10.0034 100.56 10.1263 99.6015 10.3702C98.6424 10.6147 97.77 11.0031 96.9829 11.5353C96.1952 12.0681 95.5587 12.7584 95.0727 13.6062C94.5855 14.4552 94.3428 15.4832 94.3428 16.6909C94.3428 17.7844 94.5363 18.7044 94.9222 19.4521C95.3086 20.2005 95.8235 20.8111 96.468 21.2859C97.1119 21.7607 97.8203 22.1349 98.5933 22.4078C99.3662 22.6813 100.139 22.919 100.912 23.1197C101.656 23.3784 102.372 23.6378 103.058 23.8965C103.745 24.1552 104.31 24.4719 104.754 24.8455C105.198 25.2196 105.419 25.7377 105.419 26.3989C105.419 27.1757 105.069 27.8228 104.367 28.3402C103.666 28.8582 102.699 29.1169 101.469 29.1169C100.495 29.1169 99.6156 29.0163 98.8286 28.815C98.0409 28.6143 97.2895 28.334 96.5749 27.974C95.8591 27.6147 95.1292 27.2047 94.3852 26.7447V31.0162C95.4155 31.5058 96.4674 31.9158 97.5408 32.2455C98.6135 32.5758 99.9235 32.7419 101.469 32.7419C102.871 32.7419 104.231 32.5116 105.548 32.0516C106.864 31.5922 107.93 30.8587 108.746 29.8511C109.562 28.8446 109.984 27.5363 110.013 25.9248C110.013 24.7164 109.805 23.739 109.39 22.9907C108.975 22.243 108.439 21.6391 107.781 21.1785L107.78 21.1772Z" fill="white"/>
<path d="M125.321 21.1772C124.662 20.7179 123.947 20.3647 123.175 20.1202C122.402 19.8763 121.657 19.6386 120.942 19.4083C120.169 19.1786 119.446 18.9489 118.774 18.718C118.102 18.4883 117.557 18.1722 117.143 17.769C116.728 17.3664 116.521 16.82 116.521 16.1297C116.521 15.3245 116.892 14.7133 117.637 14.2959C118.381 13.8791 119.311 13.6704 120.428 13.6704C121.63 13.6704 122.689 13.8717 123.605 14.2743C124.52 14.6774 125.494 15.1523 126.525 15.6981L126.482 11.815C125.565 11.3266 124.628 10.9092 123.669 10.5641C122.71 10.2189 121.472 10.0324 119.955 10.0034C119.039 10.0034 118.102 10.1263 117.143 10.3702C116.184 10.6147 115.311 11.0031 114.524 11.5353C113.736 12.0681 113.1 12.7584 112.614 13.6062C112.126 14.4552 111.884 15.4832 111.884 16.6909C111.884 17.7844 112.077 18.7044 112.463 19.4521C112.85 20.2005 113.365 20.8111 114.009 21.2859C114.653 21.7607 115.361 22.1349 116.134 22.4078C116.907 22.6813 117.68 22.919 118.452 23.1197C119.196 23.3784 119.912 23.6378 120.599 23.8965C121.286 24.1552 121.851 24.4719 122.295 24.8455C122.739 25.2196 122.96 25.7377 122.96 26.3989C122.96 27.1757 122.61 27.8228 121.909 28.3402C121.207 28.8582 120.241 29.1169 119.01 29.1169C118.037 29.1169 117.157 29.0163 116.37 28.815C115.582 28.6143 114.831 28.334 114.116 27.974C113.4 27.6147 112.67 27.2047 111.927 26.7447V31.0162C112.957 31.5058 114.009 31.9158 115.082 32.2455C116.156 32.5758 117.465 32.7419 119.011 32.7419C120.413 32.7419 121.773 32.5116 123.089 32.0516C124.405 31.5922 125.472 30.8587 126.288 29.8511C127.104 28.8446 127.525 27.5363 127.555 25.9248C127.555 24.7164 127.347 23.739 126.933 22.9907C126.517 22.243 125.981 21.6391 125.323 21.1785L125.321 21.1772Z" fill="white"/>
<path d="M144.791 10.9957C143.216 10.277 141.471 9.91699 139.553 9.91699C138.465 9.91699 137.37 9.99664 136.269 10.1541C135.167 10.3128 134.158 10.5715 133.242 10.9308C132.326 11.2908 131.59 11.7718 131.032 12.3763C130.474 12.9801 130.194 13.7285 130.194 14.62V40.7656H134.659V31.5058C134.958 31.6522 135.27 31.7855 135.604 31.8991C136.405 32.172 137.207 32.3739 138.008 32.503C138.809 32.6327 139.482 32.6975 140.026 32.6975C142.143 32.6975 143.947 32.2443 145.435 31.3385C146.923 30.4327 148.054 29.1528 148.826 27.4986C149.599 25.8451 149.986 23.8959 149.986 21.6527C149.986 18.6908 149.513 16.3532 148.569 14.6417C147.625 12.9307 146.364 11.715 144.791 10.9963V10.9957ZM144.705 25.5352C144.247 26.6287 143.56 27.4628 142.644 28.0377C141.728 28.6137 140.583 28.9008 139.21 28.9008C138.465 28.9008 137.707 28.7928 136.934 28.5773C136.161 28.3618 135.403 28.0531 134.659 27.6499V15.6129C134.659 15.038 135.095 14.599 135.969 14.2971C136.841 13.9952 137.993 13.8439 139.425 13.8439C141.028 13.8439 142.258 14.1823 143.117 14.8578C143.976 15.5339 144.57 16.4612 144.899 17.6406C145.228 18.8199 145.393 20.1288 145.393 21.5669C145.393 23.1197 145.164 24.4435 144.706 25.5364L144.705 25.5352Z" fill="white"/>
<path d="M168.643 12.2677C168.085 11.7071 167.447 11.2613 166.733 10.9303C166.017 10.6 165.251 10.3555 164.435 10.1968C163.62 10.0387 162.811 9.95972 162.01 9.95972C160.378 9.95972 158.796 10.1258 157.266 10.4561C155.735 10.7871 154.568 11.2261 153.767 11.7719V16.0001C154.597 15.3098 155.655 14.7708 156.944 14.3824C158.232 13.9941 159.476 13.8002 160.679 13.8002C162.367 13.8002 163.669 14.1528 164.586 14.8573C165.501 15.5624 165.96 16.6769 165.96 18.2007V20.245C165.629 20.0487 165.267 19.8622 164.865 19.6894C164.163 19.3874 163.376 19.1503 162.504 18.9774C161.63 18.8052 160.651 18.7187 159.563 18.7187C157.931 18.7187 156.529 18.9774 155.355 19.4955C154.181 20.0135 153.28 20.7896 152.65 21.8251C152.021 22.8605 151.706 24.1837 151.706 25.7946C151.706 27.1468 151.956 28.2755 152.457 29.1813C152.958 30.0871 153.63 30.799 154.475 31.317C155.319 31.835 156.257 32.2018 157.287 32.4173C158.318 32.6328 159.391 32.7408 160.507 32.7408C162.396 32.7408 164.085 32.6037 165.573 32.3308C167.061 32.0579 168.242 31.5399 169.115 30.7774C169.988 30.0154 170.425 28.93 170.425 27.5204V17.1659C170.425 16.073 170.267 15.124 169.952 14.3182C169.637 13.5131 169.201 12.8296 168.643 12.2689V12.2677ZM164.757 28.8565C163.956 29.0874 162.71 29.2016 161.022 29.2016C160.221 29.2016 159.455 29.0794 158.725 28.8349C157.995 28.591 157.387 28.2026 156.9 27.6698C156.413 27.1382 156.17 26.4405 156.17 25.5773C156.17 24.4276 156.592 23.5644 157.437 22.989C158.281 22.4141 159.52 22.1258 161.151 22.1258C162.381 22.1258 163.526 22.277 164.585 22.579C165.093 22.7235 165.55 22.884 165.959 23.0587V27.2604C165.959 28.0952 165.558 28.6268 164.757 28.8565Z" fill="white"/>
<path d="M186.676 21.1772C186.018 20.7179 185.303 20.3647 184.53 20.1202C183.757 19.8763 183.012 19.6386 182.298 19.4083C181.525 19.1786 180.801 18.9489 180.129 18.718C179.456 18.4883 178.913 18.1722 178.498 17.769C178.083 17.3664 177.876 16.82 177.876 16.1297C177.876 15.3245 178.247 14.7133 178.991 14.2959C179.735 13.8791 180.666 13.6704 181.782 13.6704C182.984 13.6704 184.042 13.8717 184.959 14.2743C185.875 14.6774 186.848 15.1523 187.879 15.6981L187.836 11.815C186.92 11.3266 185.983 10.9092 185.024 10.5641C184.065 10.2189 182.827 10.0324 181.31 10.0034C180.394 10.0034 179.456 10.1263 178.498 10.3702C177.539 10.6147 176.666 11.0031 175.879 11.5353C175.092 12.0681 174.455 12.7584 173.969 13.6062C173.482 14.4552 173.239 15.4832 173.239 16.6909C173.239 17.7844 173.433 18.7044 173.819 19.4521C174.205 20.2005 174.72 20.8111 175.364 21.2859C176.008 21.7607 176.717 22.1349 177.49 22.4078C178.263 22.6813 179.036 22.919 179.809 23.1197C180.553 23.3784 181.268 23.6378 181.955 23.8965C182.642 24.1552 183.206 24.4719 183.65 24.8455C184.094 25.2196 184.316 25.7377 184.316 26.3989C184.316 27.1757 183.965 27.8228 183.264 28.3402C182.562 28.8582 181.596 29.1169 180.366 29.1169C179.392 29.1169 178.512 29.0163 177.725 28.815C176.937 28.6143 176.186 28.334 175.471 27.974C174.756 27.6147 174.026 27.2047 173.282 26.7447V31.0162C174.312 31.5058 175.364 31.9158 176.437 32.2455C177.51 32.5758 178.82 32.7419 180.366 32.7419C181.768 32.7419 183.128 32.5116 184.444 32.0516C185.76 31.5922 186.827 30.8587 187.643 29.8511C188.458 28.8446 188.88 27.5363 188.909 25.9248C188.909 24.7164 188.701 23.739 188.287 22.9907C187.871 22.243 187.335 21.6391 186.677 21.1785L186.676 21.1772Z" fill="white"/>
<path d="M204.217 21.1772C203.559 20.7179 202.844 20.3647 202.071 20.1202C201.298 19.8763 200.553 19.6386 199.839 19.4083C199.066 19.1786 198.342 18.9489 197.67 18.718C196.997 18.4883 196.454 18.1722 196.039 17.769C195.624 17.3664 195.417 16.82 195.417 16.1297C195.417 15.3245 195.788 14.7133 196.532 14.2959C197.276 13.8791 198.207 13.6704 199.323 13.6704C200.525 13.6704 201.583 13.8717 202.5 14.2743C203.416 14.6774 204.389 15.1523 205.42 15.6981L205.377 11.815C204.461 11.3266 203.524 10.9092 202.565 10.5641C201.606 10.2189 200.368 10.0324 198.851 10.0034C197.935 10.0034 196.997 10.1263 196.039 10.3702C195.08 10.6147 194.207 11.0031 193.42 11.5353C192.633 12.0681 191.996 12.7584 191.51 13.6062C191.023 14.4552 190.78 15.4832 190.78 16.6909C190.78 17.7844 190.974 18.7044 191.36 19.4521C191.746 20.2005 192.261 20.8111 192.906 21.2859C193.549 21.7607 194.258 22.1349 195.031 22.4078C195.804 22.6813 196.577 22.919 197.35 23.1197C198.094 23.3784 198.809 23.6378 199.496 23.8965C200.183 24.1552 200.747 24.4719 201.191 24.8455C201.635 25.2196 201.857 25.7377 201.857 26.3989C201.857 27.1757 201.506 27.8228 200.805 28.3402C200.103 28.8582 199.137 29.1169 197.907 29.1169C196.933 29.1169 196.053 29.0163 195.266 28.815C194.478 28.6143 193.727 28.334 193.012 27.974C192.297 27.6147 191.567 27.2047 190.823 26.7447V31.0162C191.853 31.5058 192.905 31.9158 193.978 32.2455C195.051 32.5758 196.361 32.7419 197.907 32.7419C199.309 32.7419 200.669 32.5116 201.985 32.0516C203.301 31.5922 204.368 30.8587 205.184 29.8511C205.999 28.8446 206.421 27.5363 206.45 25.9248C206.45 24.7164 206.243 23.739 205.828 22.9907C205.412 22.243 204.876 21.6391 204.218 21.1785L204.217 21.1772Z" fill="white"/>
<path d="M69.0987 2.23682H66.7535C66.1679 2.23682 65.6924 2.71472 65.6924 3.30314V30.7743C66.3271 30.3353 67.0957 30.0778 67.9245 30.0778C68.7534 30.0778 69.5214 30.3359 70.1561 30.7743V3.30314C70.1561 2.71472 69.6836 2.23682 69.0981 2.23682H69.0987Z" fill="white"/>
<path d="M66.5732 32.2697L67.9256 34.0437L69.2779 32.2697C68.9019 31.9746 68.4343 31.8042 67.9256 31.8042C67.4168 31.8042 66.9493 31.9746 66.5732 32.2697Z" fill="white"/>
<path d="M40.1487 11.4778L20.7057 0.116233C20.4446 -0.0387444 20.122 -0.0387444 19.8609 0.116233L0.417897 11.4778C-0.140601 11.8013 -0.140601 12.6145 0.417897 12.9386L7.04799 16.8131V21.5692C7.04799 22.1379 7.50634 22.6016 8.07529 22.6016H11.1504C11.7163 22.6016 12.1777 22.1373 12.1777 21.5692V19.8101L19.8603 24.3002C20.1214 24.4551 20.444 24.4551 20.7051 24.3002L40.1481 12.9386C40.7066 12.6151 40.7066 11.8019 40.1481 11.4778H40.1487ZM20.2836 18.3814L9.71883 12.2076L20.2836 6.03379L30.8484 12.2076L20.2836 18.3814Z" fill="#748FFD"/>
<path d="M33.2814 22.4464L29.6514 22.3674C29.2115 22.3575 28.8472 22.6916 28.7968 23.1306C28.3735 26.8278 25.5441 29.8261 21.8134 30.4022C18.0827 30.9782 14.4884 28.9722 12.98 25.5732C12.8006 25.1693 12.3533 24.9613 11.9368 25.1033L8.49791 26.274C8.03895 26.4302 7.80117 26.9451 7.98549 27.3952C10.3633 33.185 16.3746 36.6358 22.6189 35.6714C28.8625 34.7076 33.5664 29.602 34.1041 23.3621C34.1458 22.8768 33.7655 22.4575 33.2807 22.4471L33.2814 22.4464Z" fill="#748FFD"/>
</svg>
