<svg width="187" height="36" viewBox="0 0 187 36" fill="none" xmlns="http://www.w3.org/2000/svg">
<path d="M25.0244 29.744L14.8171 15.6951V25.9025H18.878V36H0V25.9025H3.84146V10.0976H0V6.10352e-05H14.8171L25.0244 14.2683L35.2317 6.10352e-05H50.1585V10.0976H46.317V25.9025H50.1585V36H31.2805V25.9025H35.3414V15.6951L25.0244 29.744Z" fill="#E5E1EA"/>
<path d="M126.001 0.439217C124.025 0.439217 122.269 1.6465 122.269 3.84163C122.269 6.03674 124.025 6.80504 125.013 7.1343C125.452 7.35382 126 7.46357 126.44 7.68308C126.988 7.9026 128.305 8.4514 128.305 9.76847C128.305 10.9758 127.208 11.5245 126.001 11.5245C124.244 11.5245 123.147 10.5368 122.598 8.67091L122.049 8.78064L122.269 11.0856L123.257 11.7441C123.696 12.0733 124.683 12.6221 126.22 12.6221C128.635 12.6221 130.281 10.9758 130.281 9.00017C130.281 7.57334 129.513 6.58552 128.635 6.03674C128.196 5.70748 127.647 5.59775 126.988 5.37823C125.671 4.93921 124.354 4.50015 124.354 3.07332C124.354 2.19527 125.122 1.53678 126.33 1.53678C127.208 1.53678 128.086 1.86604 128.635 2.63433C129.074 3.29287 129.293 3.62211 129.403 4.3904L129.952 4.28068L129.622 0.878201L128.964 1.42698C127.647 0.658688 126.769 0.439217 126.001 0.439217ZM171.11 0.548946C167.379 0.548946 165.293 3.4026 165.293 6.58552C165.293 10.3172 167.927 12.7319 171.33 12.7319C174.403 12.7319 177.147 10.6465 177.147 6.69532C177.037 3.07337 174.622 0.548946 171.11 0.548946ZM148.391 0.658741V1.31725C149.488 1.42701 149.488 1.42702 150.366 2.63433L153.439 7.35383V9.32942C153.439 10.6465 153.439 10.866 153.11 11.1953C152.891 11.4148 152.561 11.4148 151.683 11.5245V12.2928H157.391V11.6343C155.635 11.5246 155.635 11.4148 155.635 9.32942V6.91478L157.391 3.95142C158.708 1.7563 159.037 1.42698 160.244 1.42698V0.768471H155.744V1.31725C156.513 1.31725 157.061 1.42698 157.061 1.97576C157.061 2.19527 156.952 2.63433 156.622 3.18312L154.976 6.03674L153.22 3.18312C152.891 2.74409 152.671 2.30503 152.671 1.97576C152.671 1.42698 153.22 1.42701 154.427 1.31725V0.658741H148.391ZM111.074 0.768471V1.31725C112.061 1.42701 112.281 1.53675 112.391 2.19529C112.391 2.52455 112.5 3.07337 112.5 4.5002V8.67091C112.5 9.10994 112.5 9.65868 112.5 10.2075C112.5 11.4148 112.391 11.6343 111.074 11.7441V12.2928H115.903V11.6343C114.476 11.6343 114.476 11.1953 114.476 8.56112V7.02457C115.574 7.02457 115.793 6.9148 116.452 8.45139L117.11 9.76847C117.988 11.7441 118.976 12.5124 121.061 12.5124C121.281 12.5124 121.61 12.5124 121.83 12.5124V12.0733C120.842 11.9636 120.513 11.6343 119.744 10.3173L117.659 6.80505C119.196 6.36603 119.964 4.82945 119.964 3.7319C119.964 2.08556 119.086 0.768471 116.232 0.768471H111.074ZM100.976 0.768471V1.31725C101.854 1.42701 102.183 1.42698 102.293 1.97576C102.403 2.30503 102.403 3.62213 102.403 4.06115V8.12213C102.403 8.4514 102.403 9.87822 102.403 10.0977C102.403 11.305 102.183 11.5246 100.976 11.6343V12.2928H109.757C109.757 11.4148 109.866 10.0977 109.976 9.32942H109.427C108.988 11.4148 107.891 11.305 106.244 11.305C104.708 11.305 104.379 10.866 104.379 10.0977V6.91478H105.586C107.013 6.91478 107.452 7.02459 107.452 8.34166H108.001V4.5002H107.452C107.342 5.488 107.122 5.81722 105.586 5.81722H104.379V1.7563H105.805C107.781 1.7563 108.44 1.86603 108.769 3.51237H109.318L109.208 0.768471H100.976ZM136.976 0.768471L136.866 4.06115H137.525C137.635 1.97579 138.513 2.08556 139.83 2.08556H141.257V10.6465C141.257 11.5246 140.927 11.9636 139.939 11.9636V12.2928H144.769V11.8538C143.671 11.8538 143.452 11.4148 143.452 10.5368V1.97576H144.879C146.196 1.97576 147.074 1.97581 147.183 3.95142H147.842L147.732 0.658741H136.976V0.768471ZM56.0859 0.768471V1.31725C56.964 1.31725 57.2933 1.53675 57.403 2.19529C57.403 2.52455 57.403 3.07336 57.403 4.28068V6.91478C57.403 8.78063 57.403 10.5368 59.1591 11.6343C60.2567 12.4026 61.5737 12.4026 62.2323 12.4026C63.0006 12.4026 66.0738 12.2928 66.842 9.1099C67.0616 8.23185 67.0615 7.35384 67.1713 6.47579C67.1713 6.03677 67.2811 2.74405 67.3908 2.52454C67.5006 1.42698 67.7201 1.09772 68.8176 1.09772V0.439217H64.4274V1.31725C65.4152 1.42701 65.964 1.42698 66.0737 2.52454C66.0737 2.85381 66.0737 4.28064 66.0737 4.71966C66.0737 6.03673 66.0738 8.12213 65.7445 9.21969C65.3055 10.5368 64.4274 11.4148 62.7811 11.4148C62.2323 11.4148 61.2445 11.305 60.6957 10.427C59.9274 9.32942 59.9274 8.12215 59.9274 6.69532V3.95142C59.9274 1.53679 59.9274 1.42701 61.464 1.31725V0.658741H56.0859V0.768471ZM69.4762 0.768471V1.31725C70.2445 1.42701 70.464 1.53678 71.1225 2.08556C71.1225 3.29287 71.0127 10.0977 70.903 10.866C70.7932 11.5246 70.464 11.5246 69.4762 11.6343V12.2928H74.1957V11.6343C72.4396 11.4148 72.3298 11.4148 72.3298 9.54895V3.51237L76.9396 9.1099C77.4884 9.76843 78.0371 10.427 78.4761 11.0856L79.464 12.4026H80.1225L80.2323 3.51237C80.2323 1.64652 80.342 1.31725 81.6591 1.31725V0.658741H77.1591V1.31725C79.0249 1.42701 79.0249 1.53675 79.0249 3.29284V8.45139L75.842 4.5002C74.0859 2.41484 73.9762 2.08557 72.9883 0.658741H69.4762V0.768471ZM82.9762 0.768471V1.31725C84.2932 1.53676 84.2932 1.53679 84.403 3.95142V10.0977C84.403 11.305 84.1835 11.4148 82.9762 11.6343V12.2928H87.8054V11.6343C86.9274 11.5246 86.5981 11.4148 86.4884 10.6465C86.4884 10.3172 86.4884 9.00014 86.4884 8.56112V3.95142C86.4884 1.42703 86.4883 1.42701 87.8054 1.31725V0.658741H82.9762V0.768471ZM88.903 0.768471V1.31725C90.1103 1.53676 90.1103 1.7563 90.9884 3.95142L94.1713 12.5124H94.8298L98.342 4.06115C99.3298 1.75628 99.4395 1.42701 100.537 1.31725V0.658741H96.4762V1.31725C97.2444 1.31725 98.0127 1.31724 98.0127 2.19529C98.0127 2.52455 97.7932 2.96362 97.6834 3.40264L95.3786 9.43922L93.403 3.51237C93.0737 2.52457 92.964 2.30503 92.964 1.97576C92.964 1.31722 93.6225 1.31728 94.5005 1.20752V0.548946H88.903V0.768471ZM130.94 0.768471V1.31725C132.257 1.53676 132.257 1.53679 132.366 3.95142V10.0977C132.366 11.305 132.147 11.4148 130.94 11.6343V12.2928H135.769V11.6343C134.891 11.5246 134.561 11.4148 134.452 10.6465C134.452 10.3172 134.452 9.00014 134.452 8.56112V3.95142C134.452 1.42703 134.452 1.42701 135.769 1.31725V0.658741H130.94V0.768471ZM177.586 0.768471V1.42698C178.464 1.53674 178.793 1.53678 178.903 2.08556C179.013 2.41483 179.013 3.73185 179.013 4.17088V8.23186C179.013 8.56113 179.013 9.98795 179.013 10.2075C179.013 11.4148 178.793 11.6343 177.586 11.7441V12.4026H182.415V11.7441C181.208 11.6343 181.098 11.5245 180.988 10.2075V6.91478H182.305C183.622 6.91478 184.281 7.02459 184.391 8.34166H184.939V4.5002H184.391C184.281 5.70752 183.952 5.81722 182.525 5.81722H180.988V1.86603C181.427 1.86603 181.647 1.7563 182.415 1.7563C184.72 1.7563 185.378 1.75628 185.708 3.51237H186.257L186.037 0.658741H177.586V0.768471ZM171.11 1.6465C172.098 1.6465 172.757 2.19531 173.196 2.63433C174.074 3.51238 174.513 4.82941 174.513 6.366C174.513 7.90258 174.403 9.00018 173.525 10.3173C172.757 11.4148 171.878 11.7441 171.22 11.7441C170.561 11.7441 169.683 11.4148 168.915 10.427C168.037 9.21967 167.818 8.01235 167.818 6.58552C167.818 5.04894 168.147 3.84166 169.025 2.85386C169.464 2.19532 170.122 1.6465 171.11 1.6465ZM115.244 1.7563C117.33 1.7563 118.098 2.9636 117.988 4.28068C117.988 5.15872 116.891 6.25627 115.683 6.25627C115.354 6.25627 114.915 6.2563 114.586 6.14654V1.86603C114.805 1.75628 114.915 1.7563 115.244 1.7563ZM160.903 17.1221C160.025 17.7807 159.476 18.1099 157.391 18.7685L157.61 19.2075L152.891 32.1587C152.232 34.0245 151.574 34.3538 149.818 34.4636V35.3416H157.061V34.3538C155.964 34.3538 154.647 34.2441 154.647 33.0368C154.647 32.7075 154.757 32.2685 154.866 31.9392L155.415 30.4026H161.561L162.11 32.1587C162.22 32.4879 162.33 32.8172 162.33 33.1465C162.33 34.1343 161.452 34.244 160.244 34.244V35.3416H175.061V34.3538C172.427 34.1343 172.208 34.0245 172.208 31.1709V22.0612L179.122 30.6221C179.891 31.6099 180.659 32.5977 181.537 33.5855L183.074 35.5611H184.061L184.281 22.0612C184.281 19.2075 184.5 18.7685 186.366 18.7685V17.7806H179.452V18.7685C182.196 18.8782 182.305 18.988 182.305 21.8416V29.6343L177.476 23.5977C174.952 20.4148 174.622 19.9757 173.086 17.8904H167.818V18.8782C169.025 18.988 169.354 19.0977 170.342 20.0855C170.342 21.8416 170.232 32.2684 170.013 33.4757C169.793 34.3538 169.354 34.4635 168.147 34.5733C166.391 34.3538 166.061 33.805 165.403 31.7197L161.561 19.866C161.232 18.4392 161.232 18.3295 160.903 17.1221ZM141.915 17.4514C137.196 17.4514 133.354 21.0733 133.354 26.6709C133.354 31.2806 136.208 35.7807 142.244 35.7807C145.647 35.7807 147.622 34.5733 148.939 33.6953V32.3782C148.939 29.0855 148.939 28.6465 150.586 28.5367V27.549H143.561V28.5367C145.537 28.7562 145.757 28.7562 145.866 31.0611C145.866 31.8294 145.866 32.2684 145.537 32.7074C145.427 32.8172 144.44 34.1343 142.464 34.1343C139.061 34.1343 137.086 30.7318 137.086 26.6709C137.086 21.6221 139.61 19.0977 142.683 19.0977C144.439 19.0977 145.537 19.866 146.086 20.4148C147.403 21.7319 147.952 22.9391 148.281 23.927L149.049 23.8172L148.939 18.3294L148.061 19.3173C146.635 18.549 144.879 17.4514 141.915 17.4514ZM97.0249 17.4514C91.0981 17.4514 88.2445 22.0611 88.2445 26.8904C88.2445 31.9392 91.6469 35.8904 96.9152 35.8904C101.744 35.8904 103.61 32.8172 104.379 31.5001L103.391 30.7318C102.513 32.0489 101.305 33.805 98.2322 33.805C94.1713 33.805 92.0859 30.1831 92.0859 26.3416C92.0859 21.8416 94.6103 19.2075 97.6834 19.2075C99.5493 19.2075 100.866 20.3051 101.305 20.9636C102.403 22.1709 102.842 23.0489 103.171 24.0367L103.94 23.927L103.83 18.6587L102.622 19.7562C101.744 18.7684 100.098 17.4514 97.0249 17.4514ZM56.7445 17.8904V18.8782C58.2811 18.8782 58.6103 18.988 58.6103 20.7441C58.6103 21.4026 58.6103 22.1709 58.6103 22.8294L58.3908 30.1831C58.3908 31.1709 58.2811 32.5977 58.2811 33.0368C58.1713 34.2441 57.6225 34.4636 56.1957 34.4636V35.3416H62.2323V34.3538C60.3664 34.244 60.1469 33.9147 60.1469 32.1587L60.2567 21.8416L65.8542 35.4513H67.3908L73.5371 21.9514V30.7318C73.5371 34.0245 73.5371 34.0245 71.342 34.244V35.3416H79.0249V34.3538C77.5981 34.244 77.1591 34.0245 77.0493 32.7074C76.9396 31.8294 76.9396 30.2928 76.9396 29.0855V21.8416C76.9396 19.0977 76.9396 18.8782 79.0249 18.7685V17.7806H73.6469L67.6103 31.0611L62.1225 17.7806H56.7445V17.8904ZM80.6713 17.8904V18.8782C82.7566 19.2075 82.7567 19.3172 82.7567 22.9392V32.2684C82.7567 34.1343 82.4274 34.3538 80.6713 34.5733V35.3416H87.9152V34.3538C86.5981 34.244 86.0493 34.0245 85.9396 32.927C85.9396 32.3782 85.8298 30.4026 85.8298 29.8538V22.8294C85.8298 19.0977 85.8298 18.988 87.9152 18.7685V17.7806H80.6713V17.8904ZM105.696 17.8904V18.8782C107.013 18.988 107.561 19.0977 107.671 20.1953C107.781 20.7441 107.781 21.8416 107.781 23.0489V30.4026C107.781 31.0611 107.781 31.6099 107.781 32.2684C107.781 33.9148 107.781 34.3538 105.805 34.5733V35.3416H113.269V34.3538C110.964 34.1343 110.964 34.1343 110.964 30.5123V27.3294C112.501 27.2197 113.708 27.2196 115.135 27.2196C116.561 27.2196 117.769 27.3294 119.086 27.3294V30.5123C119.086 31.8294 119.086 32.4879 119.086 32.927C118.976 34.1343 118.427 34.1343 116.671 34.3538V35.3416H124.244V34.3538C122.927 34.244 122.488 34.0245 122.269 33.1465C122.159 32.5977 122.159 30.4026 122.159 29.7441V22.3904C122.159 19.0977 122.159 19.0977 124.244 18.7685V17.7806H116.671V18.7685C119.086 18.988 119.086 19.0977 119.086 22.2806V25.244C117.549 25.3538 116.452 25.3538 114.915 25.3538C113.488 25.3538 112.391 25.3538 110.854 25.244V22.8294C110.854 21.8416 110.854 20.5245 110.964 19.9758C111.183 18.988 111.732 18.988 113.159 18.7685V17.7806L105.696 17.8904ZM125.561 17.8904V18.8782C127.647 19.2075 127.647 19.3172 127.647 22.9392V32.2684C127.647 34.1343 127.318 34.3538 125.561 34.5733V35.3416H132.805V34.3538C131.488 34.244 130.94 34.0245 130.83 32.927C130.83 32.3782 130.72 30.4026 130.72 29.8538V22.8294C130.72 19.0977 130.72 18.988 132.805 18.7685V17.7806H125.561V17.8904ZM158.708 21.2929L161.122 28.5367H156.074L158.708 21.2929Z" fill="#E5E1EA"/>
</svg>
