<svg width="153" height="36" viewBox="0 0 153 36" fill="none" xmlns="http://www.w3.org/2000/svg">
<mask id="mask0_110_942" style="mask-type:luminance" maskUnits="userSpaceOnUse" x="0" y="0" width="153" height="36">
<path d="M152.262 0H0V36H152.262V0Z" fill="white"/>
</mask>
<g mask="url(#mask0_110_942)">
<path d="M60.7019 1.51746H43.8401V8.26219H60.7019V1.51746Z" fill="#E5E1EA"/>
<path d="M17.7074 1.51758H10.9626V23.438H17.7074V1.51758Z" fill="#E5E1EA"/>
<path d="M28.6627 1.51758H21.918V33.555H28.6627V1.51758Z" fill="#E5E1EA"/>
<path d="M6.74473 1.51758H0V33.555H6.74473V1.51758Z" fill="#E5E1EA"/>
<path d="M50.5848 12.4777H43.8401V33.5549H50.5848V12.4777Z" fill="#E5E1EA"/>
<path d="M39.6256 1.51758H32.8809V8.26231H39.6256V1.51758Z" fill="#E5E1EA"/>
<path d="M39.6256 12.4778H32.8809V33.5551H39.6256V12.4778Z" fill="#E5E1EA"/>
<path d="M75.0352 1.51758H77.8174L79.1663 7.08198L80.5152 1.51758H83.2131V9.02109H81.4426V3.20376L79.9251 9.02109H78.2389L76.7213 3.20376V9.02109H75.0352V1.51758Z" fill="#E5E1EA"/>
<path d="M89.3688 7.84062C89.3688 8.26216 89.3688 8.68371 89.5374 9.02094H88.0198C87.9355 8.85233 87.9355 8.5994 87.9355 8.43078C87.6826 8.85233 86.8395 9.18956 86.2493 9.18956C85.1533 9.18956 84.3945 8.5994 84.3945 7.50338C84.3945 6.15443 85.4906 5.64858 87.261 5.39565L87.8512 5.31134V4.80549C87.8512 4.38394 87.514 4.21532 87.0924 4.21532C86.5866 4.21532 86.3336 4.38394 86.2493 4.97411H84.6475C84.7318 3.37223 86.165 3.20361 86.9238 3.20361C88.4414 3.20361 89.3688 3.54085 89.4531 4.80549V7.84062H89.3688ZM87.7669 6.23874L86.6709 6.57598C86.2493 6.66029 85.9121 6.82891 85.9121 7.33476C85.9121 7.75631 86.2493 8.00924 86.6709 8.00924C87.3453 8.00924 87.7669 7.58769 87.7669 6.7446V6.23874Z" fill="#E5E1EA"/>
<path d="M94.512 5.05841C94.1748 4.63687 93.5003 4.46825 92.9944 4.46825C92.5729 4.46825 92.32 4.63687 92.32 4.8898C92.32 5.8172 95.608 5.05841 95.608 7.16614C95.608 8.68371 94.2591 9.18956 93.0788 9.18956C91.8984 9.18956 91.1396 8.85233 90.3809 8.09354L91.3926 7.16614C91.8984 7.672 92.4043 7.92492 93.1631 7.92492C93.416 7.92492 94.0905 7.84062 94.0905 7.33476C94.0905 6.49167 90.8024 7.16614 90.8024 5.14273C90.8024 3.70947 92.067 3.20361 93.1631 3.20361C94.0061 3.20361 94.8492 3.54085 95.608 4.0467L94.512 5.05841Z" fill="#E5E1EA"/>
<path d="M100.412 5.05841C100.075 4.63687 99.4007 4.46825 98.8948 4.46825C98.4733 4.46825 98.2203 4.63687 98.2203 4.8898C98.2203 5.8172 101.508 5.05841 101.508 7.16614C101.508 8.68371 100.244 9.18956 98.9791 9.18956C97.7145 9.18956 97.04 8.85233 96.2812 8.09354L97.293 7.16614C97.7988 7.672 98.3047 7.92492 99.0634 7.92492C99.3164 7.92492 99.9908 7.84062 99.9908 7.33476C99.9908 6.49167 96.7028 7.16614 96.7028 5.14273C96.7028 3.70947 97.9674 3.20361 99.0634 3.20361C99.9065 3.20361 100.75 3.54085 101.508 4.0467L100.412 5.05841Z" fill="#E5E1EA"/>
<path d="M107.322 7.84062C107.322 8.26216 107.322 8.68371 107.491 9.02094H105.973C105.889 8.85233 105.889 8.5994 105.889 8.43078C105.636 8.85233 104.793 9.18956 104.202 9.18956C103.106 9.18956 102.348 8.5994 102.348 7.50338C102.348 6.15443 103.444 5.64858 105.214 5.39565L105.804 5.31134V4.80549C105.804 4.38394 105.467 4.21532 105.046 4.21532C104.54 4.21532 104.287 4.38394 104.202 4.97411H102.516C102.601 3.37223 104.034 3.20361 104.793 3.20361C106.31 3.20361 107.322 3.54085 107.322 4.80549V7.84062ZM105.804 6.23874L104.708 6.57598C104.287 6.66029 103.95 6.82891 103.95 7.33476C103.95 7.75631 104.287 8.00924 104.708 8.00924C105.383 8.00924 105.804 7.58769 105.804 6.7446V6.23874Z" fill="#E5E1EA"/>
<path d="M112.469 5.31126C112.131 4.63679 111.71 4.55248 111.457 4.55248C110.53 4.55248 110.192 5.31126 110.192 6.23866C110.192 7.16606 110.614 7.92484 111.457 7.92484C111.963 7.92484 112.384 7.75623 112.637 7.08175L113.818 7.67192C113.312 8.59932 112.384 9.18948 111.288 9.18948C109.602 9.18948 108.422 8.09346 108.422 6.23866C108.422 4.38386 109.687 3.28784 111.204 3.28784C112.3 3.28784 113.143 3.70939 113.733 4.63679L112.469 5.31126Z" fill="#E5E1EA"/>
<path d="M114.746 1.51758H116.348V3.96254C116.685 3.541 117.36 3.28807 117.866 3.28807C119.046 3.28807 119.636 3.96254 119.636 5.05856V9.02109H118.034V5.64873C118.034 4.80564 117.528 4.55271 117.191 4.55271C116.854 4.55271 116.348 4.80564 116.348 5.81735V9.02109H114.746V1.51758Z" fill="#E5E1EA"/>
<path d="M126.126 9.02107H124.524V8.51521C124.103 9.02107 123.428 9.18968 122.923 9.18968C121.574 9.18968 121.236 8.4309 121.236 7.58781V3.45667H122.838V7.08196C122.838 7.58781 123.007 7.84074 123.597 7.84074C124.103 7.84074 124.44 7.58781 124.44 6.99765V3.45667H126.042L126.126 9.02107Z" fill="#E5E1EA"/>
<path d="M131.27 5.05841C130.933 4.63687 130.258 4.46825 129.752 4.46825C129.331 4.46825 129.078 4.63687 129.078 4.8898C129.078 5.8172 132.366 5.05841 132.366 7.16614C132.366 8.68371 131.017 9.18956 129.837 9.18956C128.656 9.18956 127.897 8.85233 127.139 8.09354L128.15 7.16614C128.656 7.672 129.162 7.92492 129.921 7.92492C130.174 7.92492 130.848 7.84062 130.848 7.33476C130.848 6.49167 127.56 7.16614 127.56 5.14273C127.56 3.70947 128.825 3.20361 129.921 3.20361C130.764 3.20361 131.607 3.54085 132.366 4.0467L131.27 5.05841Z" fill="#E5E1EA"/>
<path d="M134.727 6.57602C134.727 7.67204 135.402 8.00928 135.908 8.00928C136.498 8.00928 136.835 7.67204 137.257 6.99756L138.521 7.67204C137.931 8.76806 137.088 9.1896 135.823 9.1896C134.053 9.1896 133.041 8.00928 133.041 6.4074C133.041 4.46829 134.053 3.28796 135.823 3.28796C137.847 3.28796 138.521 4.80553 138.606 6.57602H134.727ZM136.919 5.56431C136.835 4.72122 136.245 4.46829 135.823 4.46829C135.402 4.46829 134.812 4.80553 134.727 5.56431H136.919Z" fill="#E5E1EA"/>
<path d="M142.484 4.55247H141.472V7.33467C141.472 7.75621 141.725 7.92483 141.978 7.92483C142.146 7.92483 142.399 7.92483 142.484 7.92483V9.18947C142.315 9.18947 141.809 9.27378 141.472 9.27378C140.039 9.27378 139.87 8.43069 139.87 7.5876V4.63678H139.111V3.62506H139.87V2.02319H141.472V3.62506H142.484V4.55247Z" fill="#E5E1EA"/>
<path d="M146.191 4.55247H145.179V7.33467C145.179 7.75621 145.432 7.92483 145.685 7.92483C145.853 7.92483 146.106 7.92483 146.191 7.92483V9.18947C146.022 9.18947 145.516 9.27378 145.179 9.27378C143.746 9.27378 143.577 8.43069 143.577 7.5876V4.63678H142.818V3.62506H143.577V2.02319H145.179V3.62506H146.191V4.55247Z" fill="#E5E1EA"/>
<path d="M150.744 5.05841C150.407 4.63687 149.733 4.46825 149.227 4.46825C148.805 4.46825 148.552 4.63687 148.552 4.8898C148.552 5.8172 151.84 5.05841 151.84 7.16614C151.84 8.68371 150.491 9.18956 149.311 9.18956C148.131 9.18956 147.372 8.85233 146.613 8.09354L147.625 7.16614C148.131 7.672 148.637 7.92492 149.395 7.92492C149.648 7.92492 150.323 7.84062 150.323 7.33476C150.323 6.49167 147.035 7.16614 147.035 5.14273C147.035 3.70947 148.299 3.20361 149.395 3.20361C150.239 3.20361 151.082 3.54085 151.84 4.0467L150.744 5.05841Z" fill="#E5E1EA"/>
<path d="M75.1191 13.7423H76.9739V21.2458H75.1191V13.7423Z" fill="#E5E1EA"/>
<path d="M78.4082 15.6813H80.0944V16.1872C80.5159 15.6813 81.1904 15.5127 81.6963 15.5127C83.0452 15.5127 83.3824 16.2715 83.3824 17.1146V21.2457H81.7806V17.7047C81.7806 17.1989 81.6119 16.7773 81.0218 16.7773C80.3473 16.7773 80.1787 17.1989 80.1787 17.7047V21.1614H78.4925V15.6813H78.4082Z" fill="#E5E1EA"/>
<path d="M88.5257 17.2833C88.1884 16.8617 87.514 16.6931 87.0081 16.6931C86.5866 16.6931 86.3336 16.8617 86.3336 17.1146C86.3336 18.042 89.6217 17.2833 89.6217 19.391C89.6217 20.8243 88.3571 21.4144 87.0924 21.4144C85.9121 21.4144 85.1533 21.0772 84.3945 20.3184L85.4062 19.391C85.9121 19.8969 86.418 20.1498 87.1767 20.1498C87.4297 20.1498 88.1041 20.0655 88.1041 19.5596C88.1041 18.7165 84.8161 19.391 84.8161 17.3676C84.8161 15.9343 86.0807 15.4285 87.1767 15.4285C88.0198 15.4285 88.8629 15.7657 89.6217 16.2716L88.5257 17.2833Z" fill="#E5E1EA"/>
<path d="M93.4974 16.7774H92.4857V19.5596C92.4857 19.9811 92.7386 20.1498 92.9915 20.1498C93.1601 20.1498 93.4131 20.1498 93.4974 20.1498V21.4144C93.3287 21.4144 92.8229 21.4987 92.4857 21.4987C91.0524 21.4987 90.8838 20.6556 90.8838 19.8125V16.8617H90.125V15.7657H90.8838V14.1638H92.4857V15.7657H93.4974V16.7774Z" fill="#E5E1EA"/>
<path d="M94.428 15.0069V13.7423H96.0299V15.0069H94.428ZM96.1142 15.6814V21.2458H94.5123V15.6814H96.1142Z" fill="#E5E1EA"/>
<path d="M100.327 16.7774H99.3157V19.5596C99.3157 19.9811 99.5687 20.1498 99.8216 20.1498C99.9902 20.1498 100.243 20.1498 100.327 20.1498V21.4144C100.159 21.4144 99.653 21.4987 99.3157 21.4987C97.8825 21.4987 97.7139 20.6556 97.7139 19.8125V16.8617H96.9551V15.7657H97.7139V14.1638H99.3157V15.7657H100.327V16.7774Z" fill="#E5E1EA"/>
<path d="M106.23 21.2459H104.628V20.7401C104.206 21.2459 103.532 21.4145 103.026 21.4145C101.677 21.4145 101.34 20.6558 101.34 19.8127V15.6815H102.942V19.3068C102.942 19.8127 103.11 20.0656 103.7 20.0656C104.206 20.0656 104.544 19.8127 104.544 19.2225V15.6815H106.145L106.23 21.2459Z" fill="#E5E1EA"/>
<path d="M110.445 16.7774H109.433V19.5596C109.433 19.9811 109.686 20.1498 109.939 20.1498C110.107 20.1498 110.36 20.1498 110.445 20.1498V21.4144C110.276 21.4144 109.77 21.4987 109.433 21.4987C108 21.4987 107.831 20.6556 107.831 19.8125V16.8617H107.072V15.7657H107.831V14.1638H109.433V15.7657H110.445V16.7774Z" fill="#E5E1EA"/>
<path d="M112.635 18.8008C112.635 19.8968 113.31 20.234 113.815 20.234C114.406 20.234 114.743 19.8968 115.164 19.2223L116.429 19.8968C115.839 20.9085 114.996 21.4143 113.731 21.4143C111.961 21.4143 110.949 20.234 110.949 18.6321C110.949 16.693 111.961 15.5127 113.731 15.5127C115.755 15.5127 116.429 17.0303 116.513 18.8008H112.635ZM114.827 17.789C114.743 16.946 114.153 16.693 113.731 16.693C113.225 16.693 112.719 17.0303 112.635 17.789H114.827Z" fill="#E5E1EA"/>
<path d="M126.128 18.4635C126.128 20.3183 124.864 21.4143 123.177 21.4143C121.407 21.4143 120.227 20.3183 120.227 18.4635C120.227 16.6087 121.491 15.5127 123.177 15.5127C124.948 15.5127 126.128 16.6087 126.128 18.4635ZM121.828 18.4635C121.828 19.3909 122.25 20.1497 123.177 20.1497C124.105 20.1497 124.526 19.3909 124.526 18.3792C124.526 17.4518 124.105 16.7773 123.177 16.7773C122.25 16.7773 121.828 17.5361 121.828 18.4635Z" fill="#E5E1EA"/>
<path d="M127.474 16.7774H126.631V15.7657H127.474V15.1755C127.474 14.5011 127.643 13.658 129.076 13.658C129.413 13.658 129.919 13.7423 130.172 13.8266V15.0069H129.666C129.413 15.0069 129.076 15.0912 129.076 15.4284V15.7657H130.088V16.7774H129.076V21.2458H127.474V16.7774Z" fill="#E5E1EA"/>
<path d="M73.1777 26.0514H78.9951V27.4847H77.056V33.5549H75.2012V27.4847H73.262V26.0514H73.1777Z" fill="#E5E1EA"/>
<path d="M80.2606 31.1098C80.2606 32.2058 80.9351 32.5431 81.441 32.5431C82.0311 32.5431 82.3684 32.2058 82.7899 31.5314L84.0546 32.2059C83.4644 33.2176 82.6213 33.7234 81.3567 33.7234C79.5862 33.7234 78.5745 32.5431 78.5745 30.9412C78.5745 29.0021 79.5862 27.8218 81.3567 27.8218C83.3801 27.8218 84.0546 29.4236 84.1389 31.1098H80.2606ZM82.4527 30.0981C82.3684 29.255 81.7782 29.0021 81.3567 29.0021C80.8508 29.0021 80.345 29.3393 80.2606 30.0981H82.4527Z" fill="#E5E1EA"/>
<path d="M88.8613 29.8452C88.5241 29.1707 88.0182 29.0864 87.8496 29.0864C86.9222 29.0864 86.5849 29.8452 86.5849 30.7726C86.5849 31.7 87.0065 32.4588 87.8496 32.4588C88.3554 32.4588 88.777 32.2902 89.0299 31.6157L90.2102 32.2059C89.7044 33.1333 88.777 33.7234 87.681 33.7234C85.9948 33.7234 84.8145 32.6274 84.8145 30.7726C84.8145 28.9178 86.0791 27.8218 87.5967 27.8218C88.6927 27.8218 89.5358 28.2433 90.1259 29.1707L88.8613 29.8452Z" fill="#E5E1EA"/>
<path d="M91.1367 26.0514H92.7386V28.4964C93.0758 28.0748 93.7503 27.8219 94.2562 27.8219C95.4365 27.8219 96.0267 28.4964 96.0267 29.5924V33.5549H94.4248V30.1825C94.4248 29.3394 93.9189 29.0865 93.5817 29.0865C93.2444 29.0865 92.7386 29.3395 92.7386 30.3512V33.4706H91.1367V26.0514Z" fill="#E5E1EA"/>
<path d="M97.5449 27.9062H99.1468V28.412C99.5683 27.9062 100.243 27.7375 100.749 27.7375C102.098 27.7375 102.435 28.4963 102.435 29.3394V33.4706H100.833V29.9296C100.833 29.3394 100.664 29.0022 100.074 29.0022C99.3997 29.0022 99.2311 29.4237 99.2311 29.9296V33.3863H97.6292L97.5449 27.9062Z" fill="#E5E1EA"/>
<path d="M109.603 30.7726C109.603 32.6274 108.338 33.7234 106.652 33.7234C104.881 33.7234 103.701 32.6274 103.701 30.7726C103.701 28.9178 104.966 27.8218 106.652 27.8218C108.338 27.8218 109.603 28.8335 109.603 30.7726ZM105.219 30.7726C105.219 31.7 105.64 32.4588 106.568 32.4588C107.495 32.4588 107.917 31.7 107.917 30.6883C107.917 29.7609 107.495 29.0864 106.568 29.0864C105.64 29.0864 105.219 29.7609 105.219 30.7726Z" fill="#E5E1EA"/>
<path d="M110.613 33.5549V26.0514H112.215V33.5549H110.613Z" fill="#E5E1EA"/>
<path d="M119.298 30.7726C119.298 32.6274 118.033 33.7234 116.347 33.7234C114.577 33.7234 113.396 32.6274 113.396 30.7726C113.396 28.9178 114.661 27.8218 116.347 27.8218C118.118 27.8218 119.298 28.8335 119.298 30.7726ZM114.998 30.7726C114.998 31.7 115.42 32.4588 116.347 32.4588C117.275 32.4588 117.696 31.7 117.696 30.6883C117.696 29.7609 117.275 29.0864 116.347 29.0864C115.42 29.0864 114.998 29.7609 114.998 30.7726Z" fill="#E5E1EA"/>
<path d="M125.281 27.9062V33.5549C125.281 35.3254 123.426 35.4097 122.583 35.4097C120.896 35.4097 120.053 34.8195 119.969 33.4706H121.655C121.655 34.0607 121.992 34.3137 122.583 34.3137C123.173 34.3137 123.594 34.145 123.594 33.3863V32.7118C123.257 33.049 122.583 33.1333 122.077 33.1333C120.475 33.1333 119.885 31.8687 119.885 30.4354C119.885 29.0865 120.644 27.7375 122.077 27.7375C122.667 27.7375 123.257 27.9062 123.679 28.3277V27.9062H125.281ZM122.667 29.0022C122.161 29.0022 121.655 29.3394 121.655 30.5198C121.655 31.1942 121.824 32.0373 122.667 32.0373C123.679 32.0373 123.763 31.1099 123.763 30.5198C123.763 29.3394 123.173 29.0022 122.667 29.0022Z" fill="#E5E1EA"/>
<path d="M126.548 34.1453C126.717 34.1453 126.886 34.1453 127.139 34.1453C127.645 34.1453 127.897 34.061 127.897 33.7237C127.897 33.6394 127.897 33.5551 127.729 33.1336L126.127 27.9907H127.813L128.741 32.2905L129.668 27.9907H131.438L129.499 33.9767C129.246 34.8198 128.825 35.4942 127.897 35.4942H126.633L126.548 34.1453Z" fill="#E5E1EA"/>
</g>
</svg>
