<svg width="14" height="14" viewBox="0 0 14 14" fill="none" xmlns="http://www.w3.org/2000/svg">
<path d="M1.54583 7.5625H6.14125V12.1579C6.14125 12.625 6.52546 13.0167 7.00007 13.0167C7.47468 13.0167 7.85889 12.625 7.85889 12.1579V7.5625H12.4543C12.9214 7.5625 13.3131 7.17829 13.3131 6.70368C13.3131 6.22907 12.9214 5.84487 12.4543 5.84487H7.85889V1.24944C7.85889 0.782366 7.47468 0.390625 7.00007 0.390625C6.52546 0.390625 6.14125 0.782366 6.14125 1.24944V5.84487H1.54583C1.07875 5.84487 0.687012 6.22907 0.687012 6.70368C0.687012 7.17829 1.07875 7.5625 1.54583 7.5625Z" fill="#76718D"/>
</svg>
