<svg width="39" height="39" viewBox="0 0 39 39" fill="none" xmlns="http://www.w3.org/2000/svg">
<rect width="38.1367" height="38.1367" rx="5" fill="#748FFD"/>
<path d="M19 8C15.1777 8 12.1 10.9311 12.1 14.5714V15.6667C10.835 15.6667 9.80005 16.6524 9.80005 17.8571V28.8095C9.80005 30.0143 10.835 31 12.1 31H25.9C27.165 31 28.2 30.0143 28.2 28.8095V17.8571C28.2 16.6524 27.165 15.6667 25.9 15.6667V14.5714C25.9 10.9311 22.8224 8 19 8ZM19 10.1905C21.6177 10.1905 23.6 12.0785 23.6 14.5714V15.6667H14.4V14.5714C14.4 12.0785 16.3824 10.1905 19 10.1905ZM19 21.1429C20.265 21.1429 21.3 22.1286 21.3 23.3333C21.3 24.5381 20.265 25.5238 19 25.5238C17.735 25.5238 16.7 24.5381 16.7 23.3333C16.7 22.1286 17.735 21.1429 19 21.1429Z" fill="white"/>
</svg>
