<svg width="39" height="39" viewBox="0 0 39 39" fill="none" xmlns="http://www.w3.org/2000/svg">
<rect width="38.1367" height="38.1367" rx="5" fill="#748FFD"/>
<path d="M19.0002 7.00001C18.9585 7 18.9167 7.00261 18.8752 7.00782C15.5819 7.01901 13.032 7.41363 11.2717 7.90437C10.3791 8.15322 9.68806 8.42114 9.16821 8.69934C8.90829 8.83844 8.69116 8.97511 8.49048 9.1564C8.2898 9.33769 8.00024 9.5606 8.00024 10.1487V19.286C8.00024 20.9043 8.85876 23.215 10.6038 25.552C12.3488 27.8891 15.0487 30.1436 18.7834 30.9762C18.9262 31.0079 19.0742 31.0079 19.217 30.9762C22.9518 30.1436 25.6517 27.8893 27.3967 25.552C29.1417 23.2147 30.0002 20.9024 30.0002 19.284V10.1487C30.0002 9.5606 29.7107 9.33769 29.51 9.1564C29.3093 8.97511 29.0922 8.83844 28.8323 8.69934C28.3124 8.42114 27.6214 8.15322 26.7288 7.90437C24.9692 7.41385 22.4204 7.01935 19.1292 7.00782C19.0864 7.00244 19.0433 6.99983 19.0002 7.00001ZM19.0002 9.00014C22.2001 9.00014 24.6175 9.39143 26.1917 9.83028C26.9787 10.0497 27.5591 10.2866 27.8889 10.4631C27.9542 10.4981 27.9562 10.5052 28.0002 10.5334V19.284C28.0002 20.0369 27.3197 22.3127 25.7952 24.3547C24.4779 26.1191 22.5533 27.7568 20.0002 28.6304V25.9661H18.0002V28.6304C15.4472 27.7567 13.5226 26.1189 12.2053 24.3547C10.6808 22.3129 10.0002 20.0388 10.0002 19.286V10.5334C10.0443 10.5052 10.0463 10.4981 10.1116 10.4631C10.4414 10.2866 11.0218 10.0497 11.8088 9.83028C13.383 9.39143 15.8004 9.00014 19.0002 9.00014ZM14.7288 12.0003C12.0008 12.0003 11.0002 14.0005 11.0002 14.0005C11.0002 14.0005 12.3542 13.0004 14.0002 13.0004C15.3422 13.0004 16.1007 14.4386 16.1077 14.4536H16.1096C16.1932 14.6181 16.3206 14.7562 16.4778 14.8527C16.635 14.9492 16.8158 15.0004 17.0002 15.0005C17.2655 15.0005 17.5198 14.8952 17.7074 14.7076C17.8949 14.5201 18.0002 14.2657 18.0002 14.0005C18.0003 13.8452 17.9642 13.6921 17.8948 13.5532C17.8945 13.5526 17.8912 13.548 17.8909 13.5473C17.835 13.4295 17.3028 12.0003 14.7288 12.0003ZM23.2717 12.0003C20.6837 12.0003 20.1567 13.4492 20.1057 13.5532H20.1077C20.0376 13.6919 20.0008 13.8451 20.0002 14.0005C20.0002 14.2657 20.1056 14.5201 20.2931 14.7076C20.4807 14.8952 20.735 15.0005 21.0002 15.0005C21.1849 15.0002 21.3658 14.9487 21.5231 14.8519C21.6803 14.755 21.8076 14.6165 21.8909 14.4517L21.8928 14.4536C21.8998 14.4386 22.6582 13.0004 24.0002 13.0004C25.6462 13.0004 27.0002 14.0005 27.0002 14.0005C27.0002 14.0005 25.9997 12.0003 23.2717 12.0003ZM14.5002 15.0005C13.4752 15.0005 12.5742 15.3966 12.0002 16.0006C12.5742 16.6046 13.4752 17.0007 14.5002 17.0007C15.5252 17.0007 16.4262 16.6046 17.0002 16.0006C16.4262 15.3966 15.5252 15.0005 14.5002 15.0005ZM23.5002 15.0005C22.4752 15.0005 21.5742 15.3966 21.0002 16.0006C21.5742 16.6046 22.4752 17.0007 23.5002 17.0007C24.5252 17.0007 25.4262 16.6046 26.0002 16.0006C25.4262 15.3966 24.5252 15.0005 23.5002 15.0005ZM19.0061 19.3543L16.969 22.001H15.4631L13.7639 19.9911L12.2366 21.2842L14.5374 24.0011H17.9514L18.9944 22.6475L20.0198 24.0011H23.4631L25.7639 21.2842L24.2366 19.9911L22.5374 22.001H21.0139L19.0061 19.3543Z" fill="white"/>
</svg>
