<svg width="39" height="39" viewBox="0 0 39 39" fill="none" xmlns="http://www.w3.org/2000/svg">
<rect width="38.1367" height="38.1367" rx="5" fill="#748FFD"/>
<path d="M14.1501 31.5614C14.0759 31.5614 14.0017 31.5458 13.9334 31.5107C13.7069 31.4014 13.5976 31.1418 13.6757 30.9036L17.4549 19.5681H13.6503C13.4825 19.5681 13.3282 19.4842 13.2345 19.3456C13.1408 19.207 13.1252 19.0313 13.1896 18.8771L18.1869 6.88374C18.263 6.69634 18.4465 6.57532 18.6476 6.57532H23.3949C23.5647 6.57532 23.7229 6.66121 23.8146 6.80371C23.9064 6.94621 23.92 7.12384 23.8517 7.27805L19.9183 16.07H23.6448C23.8283 16.07 23.9961 16.1716 24.084 16.3316C24.1718 16.4936 24.164 16.6888 24.0625 16.8431L14.5678 31.335C14.4721 31.4814 14.314 31.5614 14.1501 31.5614Z" fill="white"/>
</svg>
