<svg width="39" height="39" viewBox="0 0 39 39" fill="none" xmlns="http://www.w3.org/2000/svg">
<rect width="38.1367" height="38.1367" rx="5" fill="#748FFD"/>
<path d="M19.0002 7C14.0179 7 9.73616 10.052 7.92422 14.3846H7.92332V14.3882C7.32973 15.8088 7.00024 17.3666 7.00024 19C7.00024 20.6334 7.32973 22.1912 7.92332 23.6118V23.6154H7.92422C9.73616 27.948 14.0179 31 19.0002 31C23.9826 31 28.2643 27.948 30.0763 23.6154H30.0772V23.6118C30.6708 22.1912 31.0002 20.6334 31.0002 19C31.0002 17.3666 30.6708 15.8088 30.0772 14.3882V14.3846H30.0763C28.2643 10.052 23.9826 7 19.0002 7ZM19.0002 8.84615C20.4046 8.84615 21.9196 10.984 22.6718 14.3846H15.3287C16.0809 10.984 17.5958 8.84615 19.0002 8.84615ZM15.1944 9.58894C14.4145 10.8341 13.8072 12.4729 13.4311 14.3846H9.95968C11.068 12.2226 12.9286 10.5086 15.1944 9.58894ZM22.8061 9.58894C25.0719 10.5086 26.9325 12.2226 28.0408 14.3846H24.5694C24.1933 12.4729 23.586 10.8341 22.8061 9.58894ZM9.23312 16.2308H13.1526C13.0556 17.1158 13.0002 18.039 13.0002 19C13.0002 19.961 13.0556 20.8843 13.1526 21.7692H9.23312C8.98298 20.8883 8.8464 19.96 8.8464 19C8.8464 18.04 8.98298 17.1117 9.23312 16.2308ZM15.0159 16.2308H22.9846C23.0908 17.1008 23.1541 18.0231 23.1541 19C23.1541 19.9769 23.0908 20.8992 22.9846 21.7692H15.0159C14.9097 20.8992 14.8464 19.9769 14.8464 19C14.8464 18.0231 14.9097 17.1008 15.0159 16.2308ZM24.8479 16.2308H28.7674C29.0175 17.1117 29.1541 18.04 29.1541 19C29.1541 19.96 29.0175 20.8883 28.7674 21.7692H24.8479C24.9449 20.8843 25.0002 19.961 25.0002 19C25.0002 18.039 24.9449 17.1158 24.8479 16.2308ZM9.95968 23.6154H13.4311C13.8072 25.5271 14.4145 27.1659 15.1944 28.4111C12.9286 27.4914 11.068 25.7774 9.95968 23.6154ZM15.3287 23.6154H22.6718C21.9196 27.016 20.4046 29.1538 19.0002 29.1538C17.5958 29.1538 16.0809 27.016 15.3287 23.6154ZM24.5694 23.6154H28.0408C26.9325 25.7774 25.0719 27.4914 22.8061 28.4111C23.586 27.1659 24.1933 25.5271 24.5694 23.6154Z" fill="white"/>
</svg>
