<svg width="39" height="39" viewBox="0 0 39 39" fill="none" xmlns="http://www.w3.org/2000/svg">
<rect width="38.1367" height="38.1367" rx="5" fill="#748FFD"/>
<path d="M15.5717 8C15.2715 7.99992 14.9742 8.05791 14.6969 8.17064C14.4195 8.28338 14.1675 8.44866 13.9552 8.65704C13.743 8.86543 13.5746 9.11282 13.4598 9.3851C13.3449 9.65738 13.2859 9.94921 13.2859 10.2439V13.0488H22.4121C23.3211 13.0495 24.1928 13.4043 24.8356 14.0354C25.4785 14.6665 25.8399 15.5222 25.8406 16.4146V22.6138C25.9675 22.6612 26.0852 22.7293 26.1888 22.8154L28.1721 24.4819C28.4794 24.7446 28.8729 24.8896 29.2803 24.8906C29.5289 24.8888 29.7742 24.8355 30.0002 24.7339C30.3 24.601 30.554 24.3855 30.7315 24.1136C30.909 23.8417 31.0023 23.5251 31.0002 23.2022V10.2439C31.0003 9.94921 30.9412 9.65738 30.8264 9.3851C30.7115 9.11282 30.5432 8.86543 30.3309 8.65704C30.1187 8.44866 29.8667 8.28338 29.5893 8.17064C29.3119 8.05791 29.0147 7.99992 28.7145 8H15.5717ZM9.28596 14.1707C8.67995 14.1714 8.09894 14.408 7.67043 14.8287C7.24191 15.2493 7.00089 15.8197 7.00024 16.4146V25.6444C7.00089 26.2394 7.24191 26.8097 7.67043 27.2304C8.09894 27.6511 8.67995 27.8877 9.28596 27.8883H12.363C12.4652 27.8887 12.5661 27.9119 12.6579 27.9561C12.7498 28.0003 12.8302 28.0644 12.8931 28.1436L14.7201 30.4653C14.85 30.6321 15.0174 30.7672 15.2093 30.8599C15.4011 30.9527 15.6123 31.0006 15.8261 31H15.8496C16.0674 30.9973 16.2815 30.9444 16.4747 30.8454C16.6678 30.7464 16.8344 30.6042 16.9612 30.4303L18.6308 28.1611C18.693 28.0768 18.7747 28.008 18.8692 27.9606C18.9636 27.9132 19.0682 27.8884 19.1743 27.8883H22.4132C23.0192 27.8877 23.6002 27.6511 24.0287 27.2305C24.4573 26.8098 24.6983 26.2394 24.6989 25.6444V16.4146C24.6983 15.8197 24.4573 15.2493 24.0287 14.8286C23.6002 14.4079 23.0192 14.1713 22.4132 14.1707H9.28596ZM15.575 16.9745C16.11 16.975 16.6279 17.1597 17.0384 17.4964C17.4489 17.8332 17.7261 18.3006 17.8217 18.8174C17.9162 19.3226 17.8309 19.8443 17.5802 20.2952C17.3294 20.746 16.9284 21.0985 16.4444 21.2936C16.3506 21.3385 16.2722 21.4092 16.2187 21.4972C16.1652 21.5851 16.1389 21.6865 16.1431 21.7888V22.5854C16.1431 22.7341 16.0829 22.8768 15.9757 22.982C15.8686 23.0872 15.7232 23.1463 15.5717 23.1463C15.4201 23.1463 15.2748 23.0872 15.1676 22.982C15.0604 22.8768 15.0002 22.7341 15.0002 22.5854V21.7888C14.9945 21.4642 15.0873 21.1452 15.2667 20.8724C15.4462 20.5997 15.7042 20.3855 16.008 20.2571C16.1995 20.1796 16.3658 20.0524 16.4894 19.8893C16.6129 19.7262 16.689 19.5331 16.7095 19.3308C16.73 19.1286 16.6942 18.9246 16.6058 18.7408C16.5175 18.5569 16.3799 18.4001 16.2078 18.287C16.0357 18.174 15.8356 18.1089 15.6288 18.0988C15.4219 18.0887 15.2162 18.1339 15.0335 18.2297C14.8509 18.3254 14.6981 18.4681 14.5916 18.6424C14.4851 18.8168 14.4288 19.0162 14.4288 19.2195C14.4288 19.3683 14.3686 19.511 14.2614 19.6162C14.1543 19.7214 14.0089 19.7805 13.8574 19.7805C13.7058 19.7805 13.5605 19.7214 13.4533 19.6162C13.3462 19.511 13.2859 19.3683 13.2859 19.2195C13.2857 18.8917 13.3588 18.5679 13.4999 18.2709C13.6411 17.9739 13.8469 17.7109 14.1029 17.5004C14.5152 17.1603 15.0365 16.9741 15.575 16.9745ZM15.5359 23.7084C15.6514 23.7037 15.7666 23.7219 15.8747 23.762C15.9828 23.8021 16.0815 23.8632 16.1649 23.9417C16.2483 24.0202 16.3146 24.1145 16.36 24.2188C16.4053 24.3231 16.4288 24.4354 16.4288 24.5488C16.4288 24.7719 16.3385 24.986 16.1778 25.1438C16.017 25.3016 15.799 25.3902 15.5717 25.3902C15.3487 25.3884 15.1353 25.3013 14.9767 25.1474C14.8181 24.9936 14.7267 24.7852 14.7221 24.5663C14.7174 24.3475 14.7998 24.1355 14.9518 23.9753C15.1037 23.8152 15.3133 23.7194 15.5359 23.7084Z" fill="white"/>
</svg>
