<svg width="39" height="39" viewBox="0 0 39 39" fill="none" xmlns="http://www.w3.org/2000/svg">
<rect width="38.1367" height="38.1367" rx="5" fill="#748FFD"/>
<path d="M19.0002 7C12.3835 7 7.00024 12.3833 7.00024 19C7.00024 25.6167 12.3835 31 19.0002 31C25.6169 31 31.0002 25.6167 31.0002 19C31.0002 16.6016 30.2905 14.3667 29.0733 12.4895L28.6076 12.9552L28.3019 13.2609H27.8698H26.9527L25.5271 14.6865C26.3467 15.9235 26.8263 17.405 26.8263 19C26.8263 23.3221 23.3223 26.8261 19.0002 26.8261C14.6782 26.8261 11.1742 23.3221 11.1742 19C11.1742 14.6779 14.6782 11.1739 19.0002 11.1739C20.5952 11.1739 22.0767 11.6535 23.3138 12.4732L24.7394 11.0476V10.1304V9.69837L25.0451 9.39266L25.5087 8.92901C23.6326 7.71127 21.3987 7 19.0002 7ZM28.3915 7.52174L25.7829 10.1304V11.4796L18.6314 18.6311C18.5813 18.6792 18.5413 18.7368 18.5138 18.8005C18.4862 18.8642 18.4717 18.9328 18.471 19.0022C18.4703 19.0716 18.4834 19.1405 18.5097 19.2047C18.5359 19.269 18.5747 19.3274 18.6238 19.3765C18.6729 19.4256 18.7312 19.4644 18.7955 19.4906C18.8598 19.5168 18.9286 19.53 18.998 19.5293C19.0675 19.5286 19.136 19.514 19.1998 19.4865C19.2635 19.4589 19.3211 19.419 19.3691 19.3689L26.5206 12.2174H27.8698L30.4785 9.6087H28.3915V7.52174ZM19.0002 14.3043C16.4114 14.3043 14.3046 16.4111 14.3046 19C14.3046 21.5889 16.4114 23.6957 19.0002 23.6957C21.5891 23.6957 23.6959 21.5889 23.6959 19C23.6959 18.2763 23.5265 17.5938 23.2333 16.9813L20.1069 20.1067C19.8116 20.4025 19.4182 20.5652 19.0002 20.5652C18.5823 20.5652 18.1889 20.4025 17.8936 20.1067C17.5978 19.8114 17.435 19.4179 17.435 19C17.435 18.5821 17.5978 18.1886 17.8936 17.8933L21.0199 14.767C20.4079 14.4722 19.7239 14.3043 19.0002 14.3043Z" fill="white"/>
</svg>
