<svg width="988" height="16" viewBox="0 0 988 16" fill="none" xmlns="http://www.w3.org/2000/svg">
<line x1="0.5" y1="-0.5" x2="409.5" y2="-0.5" transform="matrix(1 0 0 -1 578 7.5)" stroke="url(#paint0_linear_110_617)" stroke-linecap="round" stroke-dasharray="10.5 10"/>
<path d="M576 12L574.88 9.12L572 8L574.88 6.88L576 4L577.12 6.88L580 8L577.12 9.12L576 12Z" fill="#7C7698"/>
<path d="M493.812 0L491.625 5.625L486 7.8125L491.625 10L493.812 15.625L496 10L501.625 7.8125L496 5.625L493.812 0Z" fill="#7C7698"/>
<line x1="0.5" y1="-0.5" x2="409.5" y2="-0.5" transform="matrix(-1 0 0 1 410 8.5)" stroke="url(#paint1_linear_110_617)" stroke-linecap="round" stroke-dasharray="10.5 10"/>
<path d="M412 4L413.12 6.88L416 8L413.12 9.12L412 12L410.88 9.12L408 8L410.88 6.88L412 4Z" fill="#7C7698"/>
<defs>
<linearGradient id="paint0_linear_110_617" x1="0" y1="0.5" x2="410" y2="0.5" gradientUnits="userSpaceOnUse">
<stop stop-color="#252443"/>
<stop offset="1" stop-color="#0C0818"/>
</linearGradient>
<linearGradient id="paint1_linear_110_617" x1="0" y1="0.5" x2="410" y2="0.5" gradientUnits="userSpaceOnUse">
<stop stop-color="#252443"/>
<stop offset="1" stop-color="#0C0818"/>
</linearGradient>
</defs>
</svg>
