<svg width="500" height="8" viewBox="0 0 500 8" fill="none" xmlns="http://www.w3.org/2000/svg">
<line x1="0.5" y1="-0.5" x2="206.99" y2="-0.5" transform="matrix(1 0 0 -1 292.509 3.79541)" stroke="url(#paint0_linear_110_16449)" stroke-linecap="round" stroke-dasharray="10.5 10"/>
<path d="M291.497 6.07275L290.93 4.61526L289.473 4.04846L290.93 3.48166L291.497 2.02417L292.064 3.48166L293.521 4.04846L292.064 4.61526L291.497 6.07275Z" fill="#7C7698"/>
<path d="M249.906 0L248.799 2.84666L245.952 3.95369L248.799 5.06073L249.906 7.90739L251.013 5.06073L253.86 3.95369L251.013 2.84666L249.906 0Z" fill="#7C7698"/>
<line x1="0.5" y1="-0.5" x2="206.99" y2="-0.5" transform="matrix(-1 0 0 1 207.49 4.30176)" stroke="url(#paint1_linear_110_16449)" stroke-linecap="round" stroke-dasharray="10.5 10"/>
<path d="M208.502 2.02441L209.069 3.4819L210.526 4.04871L209.069 4.61551L208.502 6.073L207.935 4.61551L206.478 4.04871L207.935 3.4819L208.502 2.02441Z" fill="#7C7698"/>
<defs>
<linearGradient id="paint0_linear_110_16449" x1="0" y1="0.5" x2="207.49" y2="0.5" gradientUnits="userSpaceOnUse">
<stop stop-color="#252443"/>
<stop offset="1" stop-color="#0C0818"/>
</linearGradient>
<linearGradient id="paint1_linear_110_16449" x1="0" y1="0.5" x2="207.49" y2="0.5" gradientUnits="userSpaceOnUse">
<stop stop-color="#252443"/>
<stop offset="1" stop-color="#0C0818"/>
</linearGradient>
</defs>
</svg>
