<svg width="16" height="89" viewBox="0 0 16 89" fill="none" xmlns="http://www.w3.org/2000/svg">
<path d="M7.83594 15.9353L11.4444 9.6853H4.2275L7.83594 15.9353ZM8.46094 1.23597C8.46094 0.890795 8.18112 0.610973 7.83594 0.610973C7.49076 0.610973 7.21094 0.890795 7.21094 1.23597H8.46094ZM8.46094 13.1792C8.46094 12.834 8.18112 12.5542 7.83594 12.5542C7.49076 12.5542 7.21094 12.834 7.21094 13.1792H8.46094ZM7.21094 3.9921C7.21094 4.33728 7.49076 4.6171 7.83594 4.6171C8.18112 4.6171 8.46094 4.33728 8.46094 3.9921H7.21094ZM8.46094 3.9921V1.23597H7.21094V3.9921H8.46094Z" fill="#242341"/>
<path d="M7.83594 88.586L11.4444 84.9775L7.83594 81.3691L4.2275 84.9775L7.83594 88.586ZM8.46094 33.7526C8.46094 33.4074 8.18112 33.1276 7.83594 33.1276C7.49076 33.1276 7.21094 33.4074 7.21094 33.7526H8.46094ZM8.46094 81.776C8.46094 81.4308 8.18112 81.151 7.83594 81.151C7.49076 81.151 7.21094 81.4308 7.21094 81.776H8.46094ZM7.21094 71.1041C7.21094 71.4493 7.49076 71.7291 7.83594 71.7291C8.18112 71.7291 8.46094 71.4493 8.46094 71.1041H7.21094ZM8.46094 64.701C8.46094 64.3558 8.18112 64.076 7.83594 64.076C7.49076 64.076 7.21094 64.3558 7.21094 64.701H8.46094ZM7.21094 54.0291C7.21094 54.3743 7.49076 54.6541 7.83594 54.6541C8.18112 54.6541 8.46094 54.3743 8.46094 54.0291H7.21094ZM8.46094 47.626C8.46094 47.2808 8.18112 47.001 7.83594 47.001C7.49076 47.001 7.21094 47.2808 7.21094 47.626H8.46094ZM7.21094 36.9542C7.21094 37.2993 7.49076 37.5792 7.83594 37.5792C8.18112 37.5792 8.46094 37.2993 8.46094 36.9542H7.21094ZM8.46094 84.9775V81.776H7.21094V84.9775H8.46094ZM8.46094 71.1041V64.701H7.21094L7.21094 71.1041H8.46094ZM8.46094 54.0291L8.46094 47.626H7.21094L7.21094 54.0291H8.46094ZM8.46094 36.9542L8.46094 33.7526H7.21094V36.9542H8.46094Z" fill="#242341"/>
<rect x="0.261719" y="18.6689" width="15.0839" height="15.0839" rx="7.54193" fill="#748FFD"/>
<path d="M7.9042 30.4222C7.41651 30.4222 6.98091 30.3381 6.59738 30.1701C6.21623 30.002 5.91438 29.7688 5.69184 29.4705C5.47167 29.1698 5.3533 28.8218 5.33673 28.4264H6.45179C6.46599 28.6419 6.5382 28.8289 6.66841 28.9875C6.80098 29.1438 6.9738 29.2645 7.18687 29.3497C7.39994 29.435 7.63668 29.4776 7.8971 29.4776C8.18356 29.4776 8.43687 29.4279 8.65704 29.3284C8.87958 29.229 9.05359 29.0905 9.17906 28.913C9.30453 28.733 9.36727 28.5259 9.36727 28.2915C9.36727 28.0477 9.30453 27.8334 9.17906 27.6487C9.05595 27.4617 8.87484 27.3149 8.63573 27.2084C8.39899 27.1019 8.11253 27.0486 7.77636 27.0486H7.16201V26.1537H7.77636C8.04625 26.1537 8.28299 26.1052 8.48659 26.0081C8.69255 25.9111 8.85354 25.7761 8.96954 25.6033C9.08555 25.4281 9.14355 25.2233 9.14355 24.9889C9.14355 24.764 9.09265 24.5687 8.99085 24.403C8.89142 24.2349 8.74937 24.1035 8.56471 24.0088C8.38242 23.9141 8.16698 23.8668 7.91841 23.8668C7.68166 23.8668 7.46031 23.9106 7.25434 23.9982C7.05074 24.0834 6.88502 24.2065 6.75718 24.3675C6.62934 24.5261 6.56069 24.7167 6.55122 24.9392H5.48943C5.50127 24.5462 5.61727 24.2006 5.83744 23.9023C6.05998 23.604 6.35354 23.3708 6.71812 23.2027C7.0827 23.0346 7.48753 22.9506 7.93261 22.9506C8.39899 22.9506 8.80145 23.0417 9.14 23.224C9.48091 23.404 9.74369 23.6442 9.92835 23.9449C10.1154 24.2456 10.2077 24.5746 10.2053 24.9321C10.2077 25.3393 10.0941 25.685 9.86443 25.9691C9.63716 26.2532 9.33413 26.4437 8.95534 26.5408V26.5976C9.43829 26.671 9.81234 26.8628 10.0775 27.1729C10.345 27.483 10.4776 27.8677 10.4752 28.327C10.4776 28.7271 10.3663 29.0858 10.1414 29.403C9.91888 29.7202 9.61466 29.97 9.22877 30.1523C8.84288 30.3322 8.40136 30.4222 7.9042 30.4222Z" fill="white"/>
</svg>
