<svg width="16" height="91" viewBox="0 0 16 91" fill="none" xmlns="http://www.w3.org/2000/svg">
<path d="M7.83594 16.0403L11.4444 9.79028H4.2275L7.83594 16.0403ZM8.46094 1.34095C8.46094 0.995775 8.18112 0.715954 7.83594 0.715954C7.49076 0.715954 7.21094 0.995775 7.21094 1.34095H8.46094ZM8.46094 13.2842C8.46094 12.939 8.18112 12.6592 7.83594 12.6592C7.49076 12.6592 7.21094 12.939 7.21094 13.2842H8.46094ZM7.21094 4.09708C7.21094 4.44226 7.49076 4.72208 7.83594 4.72208C8.18112 4.72208 8.46094 4.44226 8.46094 4.09708H7.21094ZM8.46094 4.09708V1.34095H7.21094V4.09708H8.46094Z" fill="#242341"/>
<path d="M7.83594 33.8577V89.9824" stroke="#242341" stroke-width="1.25" stroke-linecap="round" stroke-linejoin="round" stroke-dasharray="6 10"/>
<rect x="0.261719" y="18.7739" width="15.0839" height="15.0839" rx="7.54193" fill="#748FFD"/>
<path d="M5.52849 30.3232V29.5278L7.98943 26.9781C8.25221 26.7011 8.46883 26.4584 8.63929 26.2501C8.81211 26.0394 8.94113 25.8393 9.02636 25.6499C9.11159 25.4606 9.1542 25.2593 9.1542 25.0463C9.1542 24.8048 9.09738 24.5964 8.98375 24.4213C8.87011 24.2437 8.71504 24.1076 8.51855 24.0129C8.32205 23.9158 8.1007 23.8673 7.85448 23.8673C7.59407 23.8673 7.3668 23.9205 7.17267 24.0271C6.97854 24.1336 6.82939 24.2839 6.72522 24.4781C6.62106 24.6722 6.56897 24.8995 6.56897 25.1599H5.52139C5.52139 24.7172 5.62319 24.3301 5.82679 23.9987C6.03038 23.6672 6.30974 23.4104 6.66485 23.2281C7.01997 23.0434 7.42361 22.9511 7.87579 22.9511C8.3327 22.9511 8.73517 23.0422 9.08318 23.2245C9.43356 23.4044 9.70699 23.6507 9.90349 23.9632C10.1 24.2733 10.1982 24.6237 10.1982 25.0143C10.1982 25.2842 10.1473 25.5481 10.0455 25.8062C9.9461 26.0642 9.7721 26.3519 9.52352 26.6691C9.27494 26.984 8.9293 27.3663 8.48659 27.8161L7.04127 29.3289V29.3822H10.3154V30.3232H5.52849Z" fill="white"/>
</svg>
