<svg width="481" height="372" viewBox="0 0 481 372" fill="none" xmlns="http://www.w3.org/2000/svg">
<path d="M235.168 4.76222L475.103 267.349L475.084 267.343L476.341 268.711C483.019 275.977 479.326 287.847 469.708 290.032L469.706 290.033L121.352 370.578L121.349 370.579C116.837 371.654 112.133 370.191 109.028 366.746L109.026 366.743L13.7303 262.437L13.1426 261.794L12.8837 262.626L4.58699 289.294C1.98909 297.645 -6.91766 302.358 -15.2305 299.772L-61.8512 285.268C-70.21 282.667 -74.8287 273.758 -72.2276 265.397L-49.7953 193.291L-49.7101 193.017L-49.9036 192.805L-132.146 102.796L-132.147 102.795C-138.826 95.5285 -135.132 83.6587 -125.514 81.473L-125.513 81.4726L222.842 0.92754L222.845 0.926755C227.357 -0.148788 232.06 1.31444 235.165 4.75971L235.168 4.76222ZM142.621 279.682L142.818 279.898L143.103 279.832L332.39 236.062L333.224 235.869L332.646 235.238L201.597 91.8106L201.4 91.5948L201.115 91.6607L11.8279 135.431L10.9943 135.623L11.5714 136.255L142.621 279.682Z" stroke="url(#paint0_linear_110_1030)"/>
<defs>
<linearGradient id="paint0_linear_110_1030" x1="-92.6567" y1="62.3595" x2="489.779" y2="280.297" gradientUnits="userSpaceOnUse">
<stop stop-color="#748FFD"/>
<stop offset="0.5" stop-color="#0B0717"/>
<stop offset="1" stop-color="#748FFD"/>
</linearGradient>
</defs>
</svg>
