<svg width="14" height="12" viewBox="0 0 14 12" fill="none" xmlns="http://www.w3.org/2000/svg">
<path d="M1 5.25C0.585786 5.25 0.25 5.58579 0.25 6C0.25 6.41421 0.585786 6.75 1 6.75V5.25ZM13.0303 6.53033C13.3232 6.23744 13.3232 5.76256 13.0303 5.46967L8.25736 0.696699C7.96447 0.403806 7.48959 0.403806 7.1967 0.696699C6.90381 0.989593 6.90381 1.46447 7.1967 1.75736L11.4393 6L7.1967 10.2426C6.90381 10.5355 6.90381 11.0104 7.1967 11.3033C7.48959 11.5962 7.96447 11.5962 8.25736 11.3033L13.0303 6.53033ZM1 6.75H12.5V5.25H1V6.75Z" fill="white"/>
</svg>
