<svg width="13" height="13" viewBox="0 0 13 13" fill="none" xmlns="http://www.w3.org/2000/svg">
<path d="M0.242021 10.691C-0.074385 11.0074 -0.089452 11.5724 0.249555 11.9039C0.581028 12.2353 1.14604 12.2278 1.46245 11.9114L6.07294 7.29336L10.691 11.9114C11.0149 12.2353 11.5724 12.2353 11.9039 11.9039C12.2278 11.5648 12.2353 11.0149 11.9039 10.691L7.29336 6.07294L11.9039 1.46245C12.2353 1.13851 12.2353 0.581028 11.9039 0.249555C11.5648 -0.074385 11.0149 -0.0819185 10.691 0.242021L6.07294 4.86005L1.46245 0.242021C1.14604 -0.074385 0.573494 -0.089452 0.249555 0.249555C-0.0819185 0.581028 -0.074385 1.14604 0.242021 1.46245L4.86005 6.07294L0.242021 10.691Z" fill="#76718D"/>
</svg>
