<svg width="9" height="17" viewBox="0 0 9 17" fill="none" xmlns="http://www.w3.org/2000/svg">
<path d="M0.274194 9.0542H2.13767V16.7258C2.13767 16.8773 2.2604 17 2.41186 17H5.57145C5.72291 17 5.84564 16.8773 5.84564 16.7258V9.09034H7.98786C8.12715 9.09034 8.24434 8.98582 8.26024 8.84746L8.5856 6.02315C8.59454 5.94545 8.56992 5.86763 8.51793 5.80934C8.46589 5.75099 8.39142 5.71759 8.31327 5.71759H5.84575V3.94718C5.84575 3.41349 6.13311 3.14286 6.69992 3.14286C6.7807 3.14286 8.31327 3.14286 8.31327 3.14286C8.46474 3.14286 8.58747 3.02008 8.58747 2.86867V0.276223C8.58747 0.124758 8.46474 0.00202903 8.31327 0.00202903H6.08984C6.07415 0.00126129 6.03933 0 5.988 0C5.60221 0 4.26124 0.0757322 3.20198 1.05022C2.02832 2.1301 2.19146 3.42309 2.23045 3.64727V5.71754H0.274194C0.122729 5.71754 0 5.84027 0 5.99173V8.77995C0 8.93142 0.122729 9.0542 0.274194 9.0542Z" fill="#76718D"/>
</svg>
