<svg width="17" height="17" viewBox="0 0 17 17" fill="none" xmlns="http://www.w3.org/2000/svg">
<path d="M4.72222 0C2.11839 0 0 2.11839 0 4.72222V12.2778C0 14.8816 2.11839 17 4.72222 17H12.2778C14.8816 17 17 14.8816 17 12.2778V4.72222C17 2.11839 14.8816 0 12.2778 0H4.72222ZM4.72222 1.88889H12.2778C13.8399 1.88889 15.1111 3.16011 15.1111 4.72222V12.2778C15.1111 13.8399 13.8399 15.1111 12.2778 15.1111H4.72222C3.16011 15.1111 1.88889 13.8399 1.88889 12.2778V4.72222C1.88889 3.16011 3.16011 1.88889 4.72222 1.88889ZM13.2222 2.83333C12.9717 2.83333 12.7315 2.93284 12.5544 3.10995C12.3773 3.28707 12.2778 3.5273 12.2778 3.77778C12.2778 4.02826 12.3773 4.26848 12.5544 4.4456C12.7315 4.62272 12.9717 4.72222 13.2222 4.72222C13.4727 4.72222 13.7129 4.62272 13.89 4.4456C14.0672 4.26848 14.1667 4.02826 14.1667 3.77778C14.1667 3.5273 14.0672 3.28707 13.89 3.10995C13.7129 2.93284 13.4727 2.83333 13.2222 2.83333ZM8.5 3.77778C5.89617 3.77778 3.77778 5.89617 3.77778 8.5C3.77778 11.1038 5.89617 13.2222 8.5 13.2222C11.1038 13.2222 13.2222 11.1038 13.2222 8.5C13.2222 5.89617 11.1038 3.77778 8.5 3.77778ZM8.5 5.66667C10.0621 5.66667 11.3333 6.93789 11.3333 8.5C11.3333 10.0621 10.0621 11.3333 8.5 11.3333C6.93789 11.3333 5.66667 10.0621 5.66667 8.5C5.66667 6.93789 6.93789 5.66667 8.5 5.66667Z" fill="#76718D"/>
</svg>
